<?xml version="1.0" encoding="UTF-8" standalone="no"?>
<svg
   width="512"
   viewBox="0 0 512 512"
   version="1.1"
   height="512"
   id="svg14"
   sodipodi:docname="arch-logo.svg"
   inkscape:version="1.1.2 (0a00cf5339, 2022-02-04, custom)"
   xmlns:inkscape="http://www.inkscape.org/namespaces/inkscape"
   xmlns:sodipodi="http://sodipodi.sourceforge.net/DTD/sodipodi-0.dtd"
   xmlns="http://www.w3.org/2000/svg"
   xmlns:svg="http://www.w3.org/2000/svg">
  <sodipodi:namedview
     id="namedview16"
     pagecolor="#ffffff"
     bordercolor="#666666"
     borderopacity="1.0"
     inkscape:pageshadow="2"
     inkscape:pageopacity="0.0"
     inkscape:pagecheckerboard="0"
     showgrid="false"
     width="512px"
     inkscape:zoom="0.49928826"
     inkscape:cx="180.25659"
     inkscape:cy="198.28225"
     inkscape:window-width="1578"
     inkscape:window-height="973"
     inkscape:window-x="35"
     inkscape:window-y="32"
     inkscape:window-maximized="0"
     inkscape:current-layer="svg14" />
  <defs
     id="defs7">
    <linearGradient
       id="lg"
       y1="9.90843"
       x2="25.431995"
       x1="34.76569"
       y2="28.426884"
       gradientTransform="matrix(7.4569226,0,0,8.5859489,-2.0243914,-1.6788846)"
       gradientUnits="userSpaceOnUse">
      <stop
         stop-color="#fff"
         stop-opacity="0"
         offset="0"
         id="stop2" />
      <stop
         stop-color="#fff"
         stop-opacity=".27451"
         offset="1"
         id="stop4" />
    </linearGradient>
  </defs>
  <path
     d="M 256.0495,7.2013922e-4 C 233.25309,55.885924 219.41042,92.490601 194.03751,146.71708 c 15.55501,16.49119 34.67871,35.63089 65.7007,57.32308 C 226.38776,190.31751 203.65537,176.57885 186.66009,162.28009 154.1818,230.0532 103.25996,326.55985 0,512.09972 c 81.135685,-46.84105 144.04385,-75.74264 202.66318,-86.76878 -2.51249,-10.81008 -3.84875,-22.55636 -3.75273,-34.75871 l 0.064,-2.5605 c 1.28825,-51.99405 28.34147,-91.97778 60.38768,-89.26526 32.03818,2.71253 56.98701,47.0811 55.69876,99.08316 -0.24805,9.7939 -1.38427,19.20371 -3.31264,27.9414 57.98721,11.3462 120.29525,40.11175 200.35073,86.32869 -15.78705,-29.06162 -29.92579,-55.25068 -43.38439,-80.20751 -21.1961,-16.42717 -43.29637,-37.7993 -88.39308,-60.94778 30.99799,8.05756 53.21028,17.37136 70.50963,27.75737 C 314.02071,143.97256 302.96257,110.10201 256.0495,7.2013922e-4 V 0 Z"
     fill="#1793d1"
     id="path9"
     style="stroke-width:8.00155" />
  <path
     id="path2522"
     fill-opacity="0.16568"
     fill="#ffffff"
     d="M 400.18137,304.37228 C 289.1839,153.72715 263.45893,32.303685 256.93767,3.3140806 316.14912,139.87648 315.74104,141.55681 400.18137,304.37228 Z"
     style="stroke-width:8.00155" />
  <path
     d="m 257.04969,2.0011869 c -2.88056,7.0772081 -5.60108,13.9771021 -8.25759,20.5039631 -2.91257,7.158184 -5.74511,14.054718 -8.49765,20.754413 -2.75252,6.699695 -5.54507,13.049723 -8.24959,19.503771 -2.71252,6.453247 -5.23301,12.833681 -8.00154,19.254122 -2.76854,6.417241 -5.80913,12.906495 -8.7537,19.499774 -2.94457,6.60127 -6.01716,13.26656 -9.24979,20.25991 -3.23263,6.98535 -6.62528,14.41079 -10.25799,22.00426 -0.48808,1.0242 -0.99218,2.20842 -1.49628,3.24862 15.515,16.43518 34.6467,35.42285 65.50866,57.01102 -33.34244,-13.72265 -56.01083,-27.4613 -73.01411,-41.76007 -0.88017,1.80835 -1.58431,3.40066 -2.49648,5.24901 -3.36065,6.96935 -6.96935,13.86668 -10.75408,21.50816 -0.90418,1.79235 -1.5683,3.41667 -2.49649,5.24902 -4.00877,8.03356 -8.20958,16.34716 -12.75446,25.25288 -0.90417,1.76034 -1.82435,3.21663 -2.75253,5.00096 -2.74453,5.33704 -11.52223,22.16429 -20.49997,39.2636 -5.24101,9.98593 -9.35381,18.16351 -15.25895,29.25366 -1.67232,3.18461 -5.11298,9.56184 -6.00116,11.25017 65.01257,-36.59108 135.15413,-89.74535 262.55476,-44.25656 -6.37723,-12.08233 -12.49841,-23.35651 -18.00348,-34.00657 -5.50507,-10.65806 -10.49803,-20.57198 -15.25095,-30.00581 -4.75292,-9.43381 -9.14577,-18.33154 -13.25856,-26.75717 -4.1048,-8.42563 -7.91353,-16.37916 -11.49823,-24.00463 -3.58468,-7.62548 -7.08137,-14.96289 -10.24997,-22.00426 -3.17662,-7.03335 -6.12919,-13.84267 -9.00175,-20.49996 -2.87255,-6.66529 -5.56107,-13.266567 -8.25759,-19.755821 -2.68853,-6.493256 -5.37704,-12.719259 -8.00155,-19.254122 -1.13622,-2.84375 -2.1044,-5.871535 -3.24862,-8.752092 C 272.44467,38.32901 265.47533,21.793013 257.04969,2.0011869 v 1.6e-4 z"
     fill="url(#lg)"
     id="path12"
     style="fill:url(#lg);stroke-width:8.00155" />
</svg>
