<?xml version="1.0" encoding="UTF-8" standalone="no"?>
<svg
   viewBox="0 0 51.200001 51.200001"
   width="512"
   height="512"
   version="1.1"
   id="svg10"
   sodipodi:docname="c-logo.svg"
   inkscape:version="1.1.2 (0a00cf5339, 2022-02-04, custom)"
   xmlns:inkscape="http://www.inkscape.org/namespaces/inkscape"
   xmlns:sodipodi="http://sodipodi.sourceforge.net/DTD/sodipodi-0.dtd"
   xmlns="http://www.w3.org/2000/svg"
   xmlns:svg="http://www.w3.org/2000/svg"
   xmlns:rdf="http://www.w3.org/1999/02/22-rdf-syntax-ns#"
   xmlns:cc="http://creativecommons.org/ns#"
   xmlns:dc="http://purl.org/dc/elements/1.1/">
  <metadata
     id="metadata16">
    <rdf:RDF>
      <cc:Work
         rdf:about="">
        <dc:format>image/svg+xml</dc:format>
        <dc:type
           rdf:resource="http://purl.org/dc/dcmitype/StillImage" />
      </cc:Work>
    </rdf:RDF>
  </metadata>
  <defs
     id="defs14" />
  <sodipodi:namedview
     pagecolor="#ffffff"
     bordercolor="#666666"
     borderopacity="1"
     objecttolerance="10"
     gridtolerance="10"
     guidetolerance="10"
     inkscape:pageopacity="0"
     inkscape:pageshadow="2"
     inkscape:window-width="1578"
     inkscape:window-height="973"
     id="namedview12"
     showgrid="false"
     fit-margin-top="0"
     fit-margin-left="0"
     fit-margin-right="0"
     fit-margin-bottom="0"
     inkscape:zoom="0.5"
     inkscape:cx="174"
     inkscape:cy="362"
     inkscape:window-x="35"
     inkscape:window-y="32"
     inkscape:window-maximized="0"
     inkscape:current-layer="svg10"
     inkscape:pagecheckerboard="0"
     width="512px" />
  <path
     fill="#283593"
     fill-rule="evenodd"
     d="m 24.262651,0.34899072 c 0.827734,-0.4644568 1.846857,-0.4644568 2.673371,0 4.089903,2.29546498 16.397403,9.20502178 20.488526,11.50048628 0.827733,0.463239 1.337294,1.321447 1.337294,2.250361 0,4.59093 0,18.408824 0,22.999754 0,0.928914 -0.509561,1.787123 -1.337294,2.25158 -4.089904,2.295465 -16.397403,9.205021 -20.488526,11.500486 -0.827733,0.464457 -1.846856,0.464457 -2.673371,0 C 20.172749,48.556193 7.8652479,41.646637 3.7741257,39.351172 2.9476117,38.886715 2.43805,38.029725 2.43805,37.100811 c 0,-4.590929 0,-18.408824 0,-22.999754 0,-0.928913 0.5095617,-1.787122 1.3372947,-2.25158 C 7.8640289,9.5540125 20.173968,2.6444557 24.262651,0.34899072 Z"
     clip-rule="evenodd"
     id="path2"
     style="fill:#004482;fill-opacity:1;stroke-width:1.21905" />
  <path
     fill="#5c6bc0"
     fill-rule="evenodd"
     d="M 2.8086403,38.283287 C 2.4843738,37.849306 2.43805,37.437268 2.43805,36.882602 c 0,-4.564111 0,-18.302767 0,-22.868097 0,-0.924038 0.5083427,-1.77737 1.3336376,-2.23817 C 7.8469619,9.4942792 20.113015,2.624951 24.188289,0.34167644 c 0.825295,-0.46201871 1.943162,-0.45226633 2.768457,0.009752 C 31.032021,2.6334843 43.256625,9.4442983 47.3319,11.726354 c 0.329143,0.185295 0.580267,0.40838 0.804571,0.702171 z"
     clip-rule="evenodd"
     id="path4"
     style="fill:#659ad2;fill-opacity:1;stroke-width:1.21905" />
  <path
     fill="#ffffff"
     fill-rule="evenodd"
     d="m 25.599947,8.5336704 c 9.419577,0 17.06666,7.6470806 17.06666,17.0666546 0,9.419574 -7.647083,17.066654 -17.06666,17.066654 -9.419578,0 -17.0666611,-7.64708 -17.0666611,-17.066654 0,-9.419574 7.6470831,-17.0666546 17.0666611,-17.0666546 z m 0,8.5333276 c 4.709178,0 8.53333,3.82293 8.53333,8.533327 0,4.709177 -3.824152,8.533327 -8.53333,8.533327 -4.70918,0 -8.53333,-3.82415 -8.53333,-8.533327 0,-4.710397 3.822931,-8.533327 8.53333,-8.533327 z"
     clip-rule="evenodd"
     id="path6"
     style="stroke-width:1.21905" />
  <path
     fill="#3949ab"
     fill-rule="evenodd"
     d="m 48.134033,12.440715 c 0.629028,0.5888 0.616838,1.476266 0.616838,2.17478 0,4.626282 -0.03901,17.784672 0.01097,22.410955 0.0049,0.482742 -0.154819,0.991085 -0.393752,1.373865 L 25.103795,25.600325 Z"
     clip-rule="evenodd"
     id="path8"
     style="fill:#00599c;fill-opacity:1;stroke-width:1.21905" />
</svg>
