<?xml version="1.0" encoding="UTF-8" standalone="no"?>
<svg
   fill="#000000"
   viewBox="0 0 24 24"
   width="512px"
   height="512px"
   version="1.1"
   id="svg4"
   sodipodi:docname="github-logo.svg"
   inkscape:version="1.1.2 (0a00cf5339, 2022-02-04, custom)"
   xmlns:inkscape="http://www.inkscape.org/namespaces/inkscape"
   xmlns:sodipodi="http://sodipodi.sourceforge.net/DTD/sodipodi-0.dtd"
   xmlns="http://www.w3.org/2000/svg"
   xmlns:svg="http://www.w3.org/2000/svg">
  <defs
     id="defs8" />
  <sodipodi:namedview
     id="namedview6"
     pagecolor="#ffffff"
     bordercolor="#666666"
     borderopacity="1.0"
     inkscape:pageshadow="2"
     inkscape:pageopacity="1"
     inkscape:pagecheckerboard="true"
     showgrid="false"
     inkscape:zoom="1.4804688"
     inkscape:cx="249.92084"
     inkscape:cy="152.65435"
     inkscape:window-width="1920"
     inkscape:window-height="1043"
     inkscape:window-x="0"
     inkscape:window-y="0"
     inkscape:window-maximized="1"
     inkscape:current-layer="svg4" />
  <path
     d="M 10.652961,0.08322696 C 5.1217543,0.68444496 0.67274086,5.1334583 0.07152286,10.54442 -0.52969504,16.19587 2.7168823,21.246101 7.6468701,23.169999 8.0076007,23.290242 8.3683317,23.049755 8.3683317,22.568781 v -1.923898 c 0,0 -0.4809743,0.120244 -1.0821925,0.120244 -1.6834105,0 -2.4048721,-1.442924 -2.5251157,-2.284629 C 4.6407799,17.999524 4.4002927,17.638793 4.0395618,17.278062 3.6788311,17.157818 3.5585875,17.157818 3.5585875,17.037575 c 0,-0.240487 0.3607307,-0.240487 0.4809743,-0.240487 0.7214617,0 1.3226797,0.841705 1.5631669,1.202436 0.6012181,0.961949 1.3226797,1.202436 1.6834105,1.202436 0.4809743,0 0.8417055,-0.120244 1.0821925,-0.240487 0.120244,-0.841706 0.480975,-1.683411 1.202436,-2.164385 -2.7656029,-0.601218 -4.8097442,-2.164385 -4.8097442,-4.809745 0,-1.322679 0.601218,-2.6453587 1.4429233,-3.6073077 C 6.0837032,8.1395483 5.9634596,7.5383305 5.9634596,6.6966252 c 0,-0.4809744 0,-1.2024361 0.3607308,-1.9238976 0,0 1.6834103,0 3.3668213,1.5631668 C 10.29223,6.0954072 11.133935,5.9751636 11.97564,5.9751636 c 0.841706,0 1.683411,0.1202436 2.404873,0.3607308 1.563166,-1.5631668 3.36682,-1.5631668 3.36682,-1.5631668 0.240487,0.7214615 0.240487,1.4429232 0.240487,1.9238976 0,0.9619489 -0.120243,1.4429231 -0.240487,1.6834101 0.841705,0.961949 1.442923,2.1643847 1.442923,3.6073077 0,2.64536 -2.04414,4.208527 -4.809743,4.809745 0.721461,0.601218 1.202436,1.68341 1.202436,2.765603 v 3.126333 c 0,0.360731 0.36073,0.721462 0.841705,0.601218 C 20.873666,21.486588 24,17.157818 24,12.107587 24,4.8929712 17.867577,-0.75847834 10.652961,0.08322696 Z"
     id="path2"
     style="fill:#ffffff;stroke-width:1.20244" />
</svg>
