<?xml version="1.0" encoding="UTF-8" standalone="no"?>
<svg
   width="512"
   height="512"
   viewBox="0 0 512 512"
   version="1.1"
   id="svg18"
   sodipodi:docname="instagram-logo.svg"
   inkscape:version="1.1.2 (0a00cf5339, 2022-02-04, custom)"
   xmlns:inkscape="http://www.inkscape.org/namespaces/inkscape"
   xmlns:sodipodi="http://sodipodi.sourceforge.net/DTD/sodipodi-0.dtd"
   xmlns="http://www.w3.org/2000/svg"
   xmlns:svg="http://www.w3.org/2000/svg">
  <sodipodi:namedview
     id="namedview20"
     pagecolor="#ffffff"
     bordercolor="#666666"
     borderopacity="1.0"
     inkscape:pageshadow="2"
     inkscape:pageopacity="0.0"
     inkscape:pagecheckerboard="0"
     showgrid="false"
     width="512px"
     inkscape:zoom="0.286"
     inkscape:cx="178.32168"
     inkscape:cy="963.28671"
     inkscape:window-width="1578"
     inkscape:window-height="972"
     inkscape:window-x="35"
     inkscape:window-y="32"
     inkscape:window-maximized="0"
     inkscape:current-layer="svg18" />
  <defs
     id="defs12">
    <radialGradient
       id="0"
       cx="332.14001"
       cy="2511.8101"
       r="3263.54"
       gradientUnits="userSpaceOnUse"
       gradientTransform="scale(0.2048)">
      <stop
         offset=".09"
         stop-color="#fa8f21"
         id="stop2" />
      <stop
         offset=".78"
         stop-color="#d82d7e"
         id="stop4" />
    </radialGradient>
    <radialGradient
       id="1"
       cx="1516.14"
       cy="2623.8101"
       r="2572.1201"
       gradientUnits="userSpaceOnUse"
       gradientTransform="scale(0.2048)">
      <stop
         offset=".64"
         stop-color="#8c3aaa"
         stop-opacity="0"
         id="stop7" />
      <stop
         offset="1"
         stop-color="#8c3aaa"
         id="stop9" />
    </radialGradient>
  </defs>
  <path
     d="m 170.68032,256 c 0,-47.12653 38.19315,-85.34016 85.31968,-85.34016 47.12653,0 85.34016,38.21363 85.34016,85.34016 0,47.12653 -38.21363,85.34016 -85.34016,85.34016 -47.12653,0 -85.31968,-38.21363 -85.31968,-85.34016 m -46.13325,0 c 0,72.6016 58.85133,131.45293 131.45293,131.45293 72.6016,0 131.45293,-58.85133 131.45293,-131.45293 C 387.45293,183.3984 328.6016,124.54707 256,124.54707 183.3984,124.54707 124.54707,183.3984 124.54707,256 M 361.9369,119.33491 A 30.72,30.72 0 1 0 392.66918,88.6272 h -0.0123 a 30.734336,30.734336 0 0 0 -30.72,30.70771 M 152.576,464.37786 c -24.95898,-1.13664 -38.52493,-5.29408 -47.54022,-8.8064 -11.952132,-4.65306 -20.480004,-10.19495 -29.446148,-19.1488 -8.966144,-8.95386 -14.516224,-17.47354 -19.1488,-29.42567 -3.514368,-9.0112 -7.671808,-22.58125 -8.8064,-47.54022 -1.241088,-26.98445 -1.488896,-35.09043 -1.488896,-103.45472 0,-68.36429 0.268288,-76.44775 1.488896,-103.45472 1.13664,-24.95898 5.3248,-38.5024 8.8064,-47.54023 4.653056,-11.952124 10.194944,-20.479996 19.1488,-29.44614 8.953856,-8.966144 17.473536,-14.516224 29.446148,-19.1488 9.0112,-3.514368 22.58124,-7.671808 47.54022,-8.8064 26.98445,-1.241088 35.09043,-1.488896 103.424,-1.488896 68.33357,0 76.44774,0.268288 103.45472,1.488896 24.95898,1.13664 38.5024,5.3248 47.54022,8.8064 11.95213,4.632576 20.48,10.194944 29.44615,19.1488 8.96614,8.953856 14.49574,17.494016 19.1488,29.44614 3.51437,9.0112 7.67181,22.58125 8.8064,47.54023 1.24109,27.00697 1.48889,35.09043 1.48889,103.45472 0,68.36429 -0.2478,76.44774 -1.48889,103.45472 -1.13664,24.95897 -5.31456,38.52493 -8.8064,47.54022 -4.65306,11.95213 -10.19495,20.48 -19.1488,29.42567 -8.95386,8.94566 -17.49402,14.49574 -29.44615,19.1488 -9.0112,3.51436 -22.58124,7.6718 -47.54022,8.8064 -26.98445,1.24108 -35.09043,1.48889 -103.45472,1.48889 -68.36429,0 -76.44774,-0.24781 -103.424,-1.48889 M 150.45632,1.550336 C 123.20358,2.791424 104.58112,7.112704 88.317952,13.441024 71.4752,19.976192 57.217024,28.74368 42.969088,42.969088 28.721152,57.194496 19.976192,71.4752 13.441024,88.317952 7.112704,104.59136 2.791424,123.20358 1.550336,150.45632 0.288768,177.75206 0,186.47859 0,256 c 0,69.52141 0.288768,78.24794 1.550336,105.54368 1.241088,27.25478 5.562368,45.86496 11.890688,62.13837 6.535168,16.83251 15.282176,31.1296 29.528064,45.34886 14.245888,14.21927 28.506112,22.97447 45.348864,29.52807 16.293888,6.32832 34.885628,10.6496 62.138368,11.89068 C 177.7664,511.69075 186.47859,512 256,512 c 69.52141,0 78.24794,-0.28877 105.54368,-1.55034 27.25478,-1.24108 45.86496,-5.56236 62.13837,-11.89068 16.83251,-6.5536 31.10093,-15.30266 45.34886,-29.52807 14.24794,-14.22541 22.97447,-28.51635 29.52807,-45.34886 6.32832,-16.27341 10.67008,-34.88563 11.89068,-62.13837 1.24109,-27.31622 1.52986,-36.02227 1.52986,-105.54368 0,-69.52141 -0.28877,-78.24794 -1.52986,-105.54368 -1.24108,-27.25478 -5.56236,-45.8752 -11.89068,-62.138368 C 492.00538,71.48544 483.25632,57.217024 469.03091,42.969088 454.8055,28.721152 440.51456,19.976192 423.70253,13.441024 407.40864,7.112704 388.79642,2.770944 361.56416,1.550336 334.26842,0.309248 325.54189,0 256.02048,0 186.49907,0 177.7664,0.288768 150.45632,1.550336"
     fill="url(#0)"
     id="path14"
     style="fill:url(#0);stroke-width:0.2048" />
  <path
     d="m 170.68032,256 c 0,-47.12653 38.19315,-85.34016 85.31968,-85.34016 47.12653,0 85.34016,38.21363 85.34016,85.34016 0,47.12653 -38.21363,85.34016 -85.34016,85.34016 -47.12653,0 -85.31968,-38.21363 -85.31968,-85.34016 m -46.13325,0 c 0,72.6016 58.85133,131.45293 131.45293,131.45293 72.6016,0 131.45293,-58.85133 131.45293,-131.45293 C 387.45293,183.3984 328.6016,124.54707 256,124.54707 183.3984,124.54707 124.54707,183.3984 124.54707,256 M 361.9369,119.33491 A 30.72,30.72 0 1 0 392.66918,88.6272 h -0.0123 a 30.734336,30.734336 0 0 0 -30.72,30.70771 M 152.576,464.37786 c -24.95898,-1.13664 -38.52493,-5.29408 -47.54022,-8.8064 -11.952132,-4.65306 -20.480004,-10.19495 -29.446148,-19.1488 -8.966144,-8.95386 -14.516224,-17.47354 -19.1488,-29.42567 -3.514368,-9.0112 -7.671808,-22.58125 -8.8064,-47.54022 -1.241088,-26.98445 -1.488896,-35.09043 -1.488896,-103.45472 0,-68.36429 0.268288,-76.44775 1.488896,-103.45472 1.13664,-24.95898 5.3248,-38.5024 8.8064,-47.54023 4.653056,-11.952124 10.194944,-20.479996 19.1488,-29.44614 8.953856,-8.966144 17.473536,-14.516224 29.446148,-19.1488 9.0112,-3.514368 22.58124,-7.671808 47.54022,-8.8064 26.98445,-1.241088 35.09043,-1.488896 103.424,-1.488896 68.33357,0 76.44774,0.268288 103.45472,1.488896 24.95898,1.13664 38.5024,5.3248 47.54022,8.8064 11.95213,4.632576 20.48,10.194944 29.44615,19.1488 8.96614,8.953856 14.49574,17.494016 19.1488,29.44614 3.51437,9.0112 7.67181,22.58125 8.8064,47.54023 1.24109,27.00697 1.48889,35.09043 1.48889,103.45472 0,68.36429 -0.2478,76.44774 -1.48889,103.45472 -1.13664,24.95897 -5.31456,38.52493 -8.8064,47.54022 -4.65306,11.95213 -10.19495,20.48 -19.1488,29.42567 -8.95386,8.94566 -17.49402,14.49574 -29.44615,19.1488 -9.0112,3.51436 -22.58124,7.6718 -47.54022,8.8064 -26.98445,1.24108 -35.09043,1.48889 -103.45472,1.48889 -68.36429,0 -76.44774,-0.24781 -103.424,-1.48889 M 150.45632,1.550336 C 123.20358,2.791424 104.58112,7.112704 88.317952,13.441024 71.4752,19.976192 57.217024,28.74368 42.969088,42.969088 28.721152,57.194496 19.976192,71.4752 13.441024,88.317952 7.112704,104.59136 2.791424,123.20358 1.550336,150.45632 0.288768,177.75206 0,186.47859 0,256 c 0,69.52141 0.288768,78.24794 1.550336,105.54368 1.241088,27.25478 5.562368,45.86496 11.890688,62.13837 6.535168,16.83251 15.282176,31.1296 29.528064,45.34886 14.245888,14.21927 28.506112,22.97447 45.348864,29.52807 16.293888,6.32832 34.885628,10.6496 62.138368,11.89068 C 177.7664,511.69075 186.47859,512 256,512 c 69.52141,0 78.24794,-0.28877 105.54368,-1.55034 27.25478,-1.24108 45.86496,-5.56236 62.13837,-11.89068 16.83251,-6.5536 31.10093,-15.30266 45.34886,-29.52807 14.24794,-14.22541 22.97447,-28.51635 29.52807,-45.34886 6.32832,-16.27341 10.67008,-34.88563 11.89068,-62.13837 1.24109,-27.31622 1.52986,-36.02227 1.52986,-105.54368 0,-69.52141 -0.28877,-78.24794 -1.52986,-105.54368 -1.24108,-27.25478 -5.56236,-45.8752 -11.89068,-62.138368 C 492.00538,71.48544 483.25632,57.217024 469.03091,42.969088 454.8055,28.721152 440.51456,19.976192 423.70253,13.441024 407.40864,7.112704 388.79642,2.770944 361.56416,1.550336 334.26842,0.309248 325.54189,0 256.02048,0 186.49907,0 177.7664,0.288768 150.45632,1.550336"
     fill="url(#1)"
     id="path16"
     style="fill:url(#1);stroke-width:0.2048" />
</svg>
