<?xml version="1.0" encoding="UTF-8" standalone="no"?>
<svg
   viewBox="0 0 163.84 163.84"
   width="512"
   height="512"
   version="1.1"
   id="svg6"
   sodipodi:docname="reddit-logo.svg"
   inkscape:version="1.1.2 (0a00cf5339, 2022-02-04, custom)"
   xmlns:inkscape="http://www.inkscape.org/namespaces/inkscape"
   xmlns:sodipodi="http://sodipodi.sourceforge.net/DTD/sodipodi-0.dtd"
   xmlns="http://www.w3.org/2000/svg"
   xmlns:svg="http://www.w3.org/2000/svg">
  <defs
     id="defs10" />
  <sodipodi:namedview
     id="namedview8"
     pagecolor="#ffffff"
     bordercolor="#666666"
     borderopacity="1.0"
     inkscape:pageshadow="2"
     inkscape:pageopacity="0.0"
     inkscape:pagecheckerboard="0"
     showgrid="false"
     inkscape:zoom="0.286"
     inkscape:cx="1248.2517"
     inkscape:cy="1248.2517"
     inkscape:window-width="1920"
     inkscape:window-height="1011"
     inkscape:window-x="0"
     inkscape:window-y="0"
     inkscape:window-maximized="1"
     inkscape:current-layer="svg6" />
  <circle
     cx="81.919998"
     cy="81.919998"
     fill="#ff4500"
     r="81.919998"
     id="circle2"
     style="stroke-width:0.2048" />
  <path
     d="m 136.56064,81.92 c 0.0164,1.122304 -0.12288,2.24256 -0.41779,3.325952 -0.29491,1.083392 -0.74138,2.121728 -1.32711,3.080192 -0.58368,0.958464 -1.30048,1.830912 -2.12787,2.59072 -0.82739,0.759808 -1.75718,1.398784 -2.76275,1.898496 0.0225,0.299008 0.041,0.600064 0.0512,0.90112 a 21.968486,21.968486 0 0 1 0,1.80224 c -0.0102,0.301056 -0.0287,0.602112 -0.0512,0.90112 0,18.35008 -21.38112,33.25952 -47.75936,33.25952 -26.37824,0 -47.75936,-14.90944 -47.75936,-33.25952 -0.02253,-0.299008 -0.04096,-0.600064 -0.0512,-0.90112 a 21.968486,21.968486 0 0 1 0,-1.80224 c 0.01024,-0.301056 0.02867,-0.602112 0.0512,-0.90112 a 11.968102,11.968102 0 0 1 -6.52288,-7.634944 11.962368,11.962368 0 0 1 1.59744,-9.916416 11.950899,11.950899 0 0 1 8.587264,-5.20192 11.96032,11.96032 0 0 1 9.527296,3.1744 58.735616,58.735616 0 0 1 7.350272,-4.241408 c 2.54976,-1.232896 5.185536,-2.281472 7.886848,-3.13344 2.701312,-0.851968 5.462016,-1.50528 8.257536,-1.957888 2.79552,-0.452608 5.62176,-0.700416 8.454144,-0.743424 L 85.6064,34.73408 c 0.06758,-0.329728 0.200704,-0.641024 0.391168,-0.919552 0.188416,-0.27648 0.432128,-0.514048 0.712704,-0.69632 0.282624,-0.182272 0.598016,-0.3072 0.929792,-0.36864 0.329728,-0.05939 0.669696,-0.05325 0.997376,0.01843 l 20.0704,4.01408 c 2.02547,-3.479552 6.27712,-4.970496 10.0311,-3.520512 3.75399,1.449984 5.90029,5.412864 5.06061,9.34912 -0.83763,3.936256 -4.41344,6.680576 -8.43161,6.473728 -4.02023,-0.206848 -7.29498,-3.303424 -7.72506,-7.305216 L 90.112,38.0928 84.7872,63.65184 c 2.797568,0.05939 5.588992,0.321536 8.349696,0.782336 a 58.236518,58.236518 0 0 1 15.933444,5.091328 58.247578,58.247578 0 0 1 7.25606,4.202496 11.949056,11.949056 0 0 1 6.02112,-3.115008 11.952333,11.952333 0 0 1 6.74816,0.657408 11.957043,11.957043 0 0 1 5.30637,4.220928 11.957043,11.957043 0 0 1 2.15859,6.428672 z M 55.263232,93.247488 c 0.413696,0.99328 1.015808,1.896448 1.777664,2.656256 0.759808,0.761856 1.662976,1.363968 2.656256,1.777664 A 8.2020352,8.2020352 0 0 0 62.83264,98.304 c 3.313664,0 6.299648,-1.9968 7.569408,-5.056512 1.267712,-3.06176 0.565248,-6.58432 -1.777664,-8.927232 -2.342912,-2.342912 -5.865472,-3.045376 -8.927232,-1.777664 -3.059712,1.26976 -5.056512,4.255744 -5.056512,7.569408 0,1.0752 0.210944,2.14016 0.622592,3.135488 z m 46.919678,19.664892 c 0.41984,-0.4096 0.65946,-0.9687 0.66765,-1.55443 0.008,-0.58777 -0.21914,-1.15302 -0.62874,-1.57286 -0.4096,-0.41984 -0.9687,-0.65946 -1.55443,-0.66765 -0.58777,-0.008 -1.153022,0.21914 -1.62611,0.57344 a 26.841088,26.841088 0 0 1 -3.899392,2.32448 26.937344,26.937344 0 0 1 -4.235264,1.63635 c -1.45408,0.42394 -2.942976,0.72499 -4.448256,0.89907 -1.507328,0.17408 -3.024896,0.21914 -4.538368,0.13722 -1.511424,0.0676 -3.026944,0.006 -4.528128,-0.18227 A 26.421248,26.421248 0 0 1 72.96,113.56365 c -1.449984,-0.43827 -2.85696,-0.99943 -4.210688,-1.67527 -1.353728,-0.67584 -2.648064,-1.46636 -3.868672,-2.36134 -0.423936,-0.34816 -0.96256,-0.52634 -1.511424,-0.49971 -0.548864,0.0266 -1.067008,0.25805 -1.456128,0.64512 -0.387072,0.38912 -0.618496,0.90726 -0.64512,1.45613 -0.02662,0.54886 0.151552,1.08748 0.499712,1.51142 1.439744,1.08544 2.9696,2.0439 4.573184,2.8672 1.603584,0.8233 3.2768,1.50528 4.99712,2.04186 1.72032,0.53657 3.483648,0.92364 5.271552,1.15916 1.787904,0.23348 3.592192,0.31335 5.392384,0.23962 1.800192,0.0737 3.60448,-0.006 5.392384,-0.23962 a 31.531213,31.531213 0 0 0 10.268672,-3.20102 c 1.603584,-0.8233 3.133444,-1.78176 4.573184,-2.8672 z m -1.50323,-13.95302 c 1.11002,0.01229 2.21184,-0.202752 3.23789,-0.628736 1.02605,-0.428032 1.95379,-1.058816 2.72793,-1.855488 0.77415,-0.796672 1.37626,-1.742848 1.77357,-2.781184 a 8.1678336,8.1678336 0 0 0 0.53453,-3.254272 c 0,-3.313664 -1.9968,-6.299648 -5.05651,-7.569408 -3.06176,-1.267712 -6.584322,-0.565248 -8.927234,1.777664 -2.342912,2.342912 -3.045376,5.865472 -1.777664,8.927232 1.26976,3.059712 4.255744,5.056512 7.569408,5.056512 z"
     fill="#ffffff"
     id="path4"
     style="stroke-width:0.2048" />
</svg>
