<svg width="737.8" height="371" xmlns="http://www.w3.org/2000/svg" version="1.1">

 <title>Simple DirectMedia Layer</title>
 <metadata>image/svg+xml</metadata>
 <g>
  <title>Layer 1</title>
  <g id="svg_1">
   <path d="m343.5,370.59999c-84.77,-2.903 -165.4,-22.08 -228.1,-54.23c-5.904,-3.03 -18.79,-10.2 -18.79,-10.46c0,-0.0873 2.045,0.8768 4.545,2.153c30.69,15.67 69.26,29.06 108.2,37.56c61.76,13.49 129.4,17.08 195.7,10.37c62.56,-6.33 121,-21.69 170.9,-44.92c44.86,-20.88 80.78,-47.6 104.7,-77.83c36.74,-46.5 41.65,-100.4 13.53,-148.2c-18.21,-30.98 -48.6,-58.27 -90.32,-81.1c-3.995,-2.187 -7.129,-3.976 -6.966,-3.976c0.5468,0 18.2,8.51 23.72,11.44c26.95,14.28 48.38,29.48 67.08,47.58c23.49,22.74 38.24,46.16 45.46,72.16c6.672,24.05 5.427,50.72 -3.474,74.37c-11.97,31.82 -36.47,61.1 -72.3,86.45c-58.2,41.17 -141.5,68.44 -233.9,76.54c-25.07,2.199 -54.51,2.97 -79.99,2.097l0.005,-0.004z" fill="#ffffff" id="svg_2"/>
   <path d="m555.5,261.59999l-0.4518,0c-0.2081,-0.0749 -0.5093,-0.1244 -0.9042,-0.1557c-0.3949,-0.0367 -0.8307,-0.05 -1.308,-0.05c-0.5717,0 -1.171,0.0749 -1.799,0.2365c-0.6277,0.158 -1.238,0.3449 -1.83,0.563l0,11.13l-5.452,0l0,-16.62l5.452,0l0,2.382c0.2488,-0.2167 0.5941,-0.4907 1.036,-0.8207c0.4409,-0.3302 0.8443,-0.5941 1.207,-0.7921c0.395,-0.2268 0.8542,-0.422 1.379,-0.5841c0.5242,-0.163 1.02,-0.2443 1.488,-0.2443c0.177,0.00013 0.3739,0.005 0.5916,0.0132c0.2182,0.0103 0.416,0.023 0.5917,0.0496l-0.0003,4.8926zm-19.83,12.16c-3.302,0 -5.834,-0.7498 -7.594,-2.249s-2.641,-3.635 -2.641,-6.407c0,-2.713 0.8209,-4.878 2.462,-6.496c1.641,-1.618 3.936,-2.427 6.886,-2.427c2.679,0 4.694,0.685 6.044,2.057c1.35,1.371 2.025,3.334 2.025,5.889l0,1.864l-11.95,0c0.05,0.7697 0.2231,1.413 0.5144,1.931c0.2915,0.5181 0.6751,0.9291 1.153,1.235c0.4671,0.3054 1.013,0.5256 1.636,0.6588c0.6226,0.1332 1.303,0.1993 2.04,0.1993c0.634,0 1.257,-0.0624 1.869,-0.1993c0.6129,-0.1332 1.173,-0.3077 1.682,-0.5256c0.4473,-0.1883 0.8594,-0.3899 1.238,-0.6065c0.3785,-0.2167 0.6876,-0.4096 0.9266,-0.5766l0.5766,0l0,4.276c-0.4472,0.1681 -0.8543,0.3224 -1.223,0.4658c-0.3688,0.1433 -0.8757,0.2888 -1.519,0.4372c-0.5917,0.1483 -1.202,0.264 -1.83,0.3476c-0.6277,0.0873 -1.394,0.1258 -2.298,0.1258l0.0024,0.0005zm1.807,-10.89c-0.036,-1.095 -0.299,-1.929 -0.8021,-2.501c-0.5032,-0.5717 -1.275,-0.8581 -2.313,-0.8581c-1.06,0.00014 -1.888,0.3012 -2.485,0.903c-0.5967,0.6016 -0.9267,1.42 -0.9889,2.456l6.589,0.0001zm-10.9,-6.17l-8.833,22.71l-5.857,0l2.648,-6.496l-6.418,-16.22l5.733,0l3.676,10.42l3.443,-10.42l5.608,0.006zm-23.87,12.28l0,-3.462c-0.9241,0.0873 -1.672,0.1658 -2.243,0.2292c-0.5716,0.0624 -1.132,0.1892 -1.683,0.3775c-0.4781,0.158 -0.8494,0.3972 -1.113,0.7174c-0.2654,0.3214 -0.3971,0.7473 -0.3971,1.28c0,0.7796 0.2205,1.314 0.6625,1.605c0.441,0.2916 1.094,0.4358 1.955,0.4358c0.4781,0 0.9653,-0.0997 1.464,-0.31c0.4982,-0.2067 0.9503,-0.4982 1.355,-0.8731l-0.0004,0.0002zm0,2.575c-0.3738,0.2962 -0.7086,0.5617 -1.005,0.7996c-0.2967,0.2365 -0.6936,0.4733 -1.192,0.7099c-0.4882,0.2269 -0.9628,0.4 -1.426,0.5181c-0.4619,0.1245 -1.108,0.1782 -1.94,0.1782c-1.547,0 -2.832,-0.4932 -3.856,-1.48c-1.022,-0.9864 -1.534,-2.229 -1.534,-3.729c0,-1.233 0.259,-2.229 0.7785,-2.989c0.5194,-0.7597 1.267,-1.361 2.243,-1.805c0.9862,-0.4532 2.165,-0.7697 3.536,-0.9465c1.371,-0.1782 2.846,-0.3164 4.424,-0.4146l0,-0.0873c0,-0.9179 -0.3564,-1.551 -1.067,-1.901c-0.7112,-0.3499 -1.779,-0.5256 -3.201,-0.5256c-0.6439,0 -1.397,0.1121 -2.259,0.3325c-0.8618,0.2218 -1.703,0.5056 -2.524,0.8506l-0.4671,0l0,-4.01c0.5405,-0.1483 1.413,-0.3224 2.617,-0.5256c1.204,-0.2016 2.42,-0.3026 3.645,-0.3026c3.012,0 5.206,0.4758 6.582,1.428c1.376,0.9515 2.064,2.404 2.064,4.358l0,11.3l-5.421,0l0.0026,-1.7587zm-10.18,1.761l-15.48,0l0,-22.03l5.826,0l0,17.83l9.658,0l-0.004,4.2zm-30.78,-4.336l0,-3.462c-0.924,0.0873 -1.672,0.1658 -2.243,0.2292c-0.5717,0.0624 -1.132,0.1892 -1.682,0.3775c-0.4782,0.158 -0.8494,0.3972 -1.114,0.7174c-0.2654,0.3214 -0.3972,0.7473 -0.3972,1.28c0,0.7796 0.2206,1.314 0.6625,1.605c0.4409,0.2916 1.094,0.4358 1.955,0.4358c0.4783,0 0.9666,-0.0997 1.464,-0.31c0.4982,-0.2067 0.9501,-0.4982 1.355,-0.8731l-0.0003,0.0002zm0,2.575c-0.3737,0.2962 -0.7086,0.5617 -1.005,0.7996c-0.2968,0.2365 -0.6937,0.4733 -1.192,0.7099c-0.4882,0.2269 -0.9628,0.4 -1.425,0.5181c-0.4621,0.1245 -1.108,0.1782 -1.94,0.1782c-1.547,0 -2.832,-0.4932 -3.855,-1.48c-1.023,-0.9864 -1.534,-2.229 -1.534,-3.729c0,-1.233 0.2588,-2.229 0.7783,-2.989c0.5194,-0.7597 1.267,-1.361 2.243,-1.805c0.9864,-0.4532 2.165,-0.7697 3.536,-0.9465c1.371,-0.1782 2.846,-0.3164 4.424,-0.4146l0,-0.0873c0,-0.9179 -0.3564,-1.551 -1.067,-1.901c-0.711,-0.3499 -1.778,-0.5256 -3.201,-0.5256c-0.6438,0 -1.397,0.1121 -2.259,0.3325c-0.8618,0.2218 -1.703,0.5056 -2.524,0.8506l-0.4671,0l0,-4.01c0.5405,-0.1483 1.412,-0.3224 2.617,-0.5256c1.204,-0.2016 2.42,-0.3026 3.645,-0.3026c3.012,0 5.206,0.4758 6.582,1.428c1.376,0.9515 2.064,2.404 2.064,4.358l0,11.3l-5.421,0l0.0008,-1.7587zm-11.91,1.761l-5.452,0l0,-16.62l5.452,0l0,16.62zm0.1556,-18.98l-5.764,0l0,-4.04l5.764,0l0,4.04zm-7.856,18.98l-5.452,0l0,-1.731c-0.3536,0.2764 -0.756,0.5717 -1.207,0.888c-0.4519,0.315 -0.8494,0.5529 -1.192,0.7099c-0.4357,0.1979 -0.8667,0.3448 -1.293,0.4445c-0.4261,0.0997 -0.9352,0.1483 -1.527,0.1483c-1.994,0 -3.573,-0.7846 -4.736,-2.353c-1.163,-1.568 -1.745,-3.665 -1.745,-6.289c0,-1.45 0.198,-2.708 0.5916,-3.773c0.3948,-1.065 0.9403,-1.993 1.636,-2.782c0.6339,-0.7199 1.402,-1.29 2.306,-1.709c0.903,-0.4197 1.859,-0.629 2.866,-0.629c0.9141,0 1.664,0.0873 2.251,0.2742c0.5866,0.1832 1.27,0.4658 2.049,0.8506l0,-7.073l5.452,0l0.0004,23.0235zm-5.452,-4.587l0,-8.153c-0.2705,-0.1281 -0.6227,-0.2342 -1.06,-0.3178c-0.4359,-0.0873 -0.8095,-0.1258 -1.122,-0.1258c-1.309,0 -2.292,0.4349 -2.952,1.302c-0.6601,0.8681 -0.989,2.081 -0.989,3.64c0,1.638 0.2627,2.821 0.7872,3.551c0.5243,0.7298 1.373,1.095 2.547,1.095c0.4783,0 0.9603,-0.0873 1.449,-0.2664c0.4881,-0.1782 0.934,-0.4197 1.34,-0.7249l-0.0002,-0.0001zm-18.51,5.031c-3.303,0 -5.834,-0.7498 -7.594,-2.249c-1.76,-1.499 -2.64,-3.635 -2.64,-6.407c0,-2.713 0.8208,-4.878 2.461,-6.496c1.641,-1.618 3.936,-2.427 6.886,-2.427c2.679,0 4.694,0.685 6.044,2.057c1.35,1.371 2.025,3.334 2.025,5.889l0,1.864l-11.95,0c0.051,0.7697 0.2232,1.413 0.5145,1.931c0.2916,0.5181 0.675,0.9291 1.153,1.235c0.467,0.3054 1.012,0.5256 1.636,0.6588c0.6228,0.1332 1.303,0.1993 2.041,0.1993c0.6339,0 1.257,-0.0624 1.869,-0.1993c0.6128,-0.1332 1.173,-0.3077 1.682,-0.5256c0.4473,-0.1883 0.8594,-0.3899 1.238,-0.6065c0.3784,-0.2167 0.6887,-0.4096 0.9267,-0.5766l0.5765,0l0,4.276c-0.4472,0.1681 -0.8543,0.3224 -1.223,0.4658c-0.3688,0.1433 -0.8756,0.2888 -1.519,0.4372c-0.5915,0.1483 -1.202,0.264 -1.83,0.3476c-0.6276,0.0873 -1.394,0.1258 -2.298,0.1258l0.0013,0.0005zm1.807,-10.89c-0.037,-1.095 -0.2989,-1.929 -0.8021,-2.501c-0.503,-0.5717 -1.275,-0.8581 -2.313,-0.8581c-1.059,0.00014 -1.888,0.3012 -2.485,0.903c-0.5966,0.6016 -0.9266,1.42 -0.9888,2.456l6.5889,0.0001zm-18.38,10.45l0,-8.301c0,-0.8183 -0.013,-1.509 -0.051,-2.072c-0.037,-0.5617 -0.1245,-1.021 -0.2801,-1.376c-0.1556,-0.355 -0.3972,-0.614 -0.7248,-0.7772c-0.3275,-0.163 -0.7871,-0.2443 -1.379,-0.2443c-0.4161,0 -0.8257,0.0873 -1.231,0.259c-0.4045,0.1731 -0.8467,0.4174 -1.324,0.7323l0,11.78l-5.484,0l0,-8.301c0,-0.8095 -0.013,-1.497 -0.051,-2.064c-0.037,-0.5667 -0.1318,-1.029 -0.2874,-1.383c-0.1558,-0.355 -0.3972,-0.614 -0.7249,-0.7772c-0.3274,-0.163 -0.781,-0.2443 -1.363,-0.2443c-0.4473,0 -0.883,0.0997 -1.308,0.2966c-0.4262,0.1966 -0.8408,0.4298 -1.246,0.6949l0,11.78l-5.452,0l0,-16.62l5.452,0l0,1.835c0.893,-0.7199 1.734,-1.282 2.524,-1.687c0.7896,-0.4046 1.677,-0.6065 2.664,-0.6065c1.07,0 2.009,0.2415 2.82,0.7248c0.8095,0.4832 1.428,1.203 1.854,2.16c1.049,-0.9278 2.038,-1.64 2.968,-2.138c0.9291,-0.4982 1.872,-0.7473 2.827,-0.7473c0.8094,0 1.537,0.1245 2.181,0.3701c0.644,0.2466 1.189,0.6165 1.636,1.11c0.4882,0.5331 0.8544,1.167 1.098,1.901c0.2443,0.7348 0.3659,1.694 0.3659,2.878l0,10.82l-5.4837,-0.0029zm-25.56,0.3251c-2.222,0 -3.84,-0.4335 -4.852,-1.302c-1.013,-0.8681 -1.519,-2.289 -1.519,-4.261l0,-7.768l-2.088,0l0,-3.61l2.088,0l0,-4.75l5.452,0l0,4.75l5.25,0l0,3.61l-5.25,0l0,5.889c0,0.5816 0,1.09 0.013,1.524c0.011,0.4349 0.088,0.8232 0.2489,1.169c0.1456,0.3449 0.4023,0.619 0.771,0.8208c0.3687,0.2016 0.9066,0.304 1.612,0.304c0.2916,0 0.6725,-0.0624 1.144,-0.1782c0.4721,-0.1245 0.8021,-0.2268 0.989,-0.3251l0.4669,0l0,3.655c-0.5915,0.1482 -1.22,0.264 -1.885,0.3476c-0.665,0.0873 -1.48,0.1258 -2.446,0.1258l0.0052,-0.0009zm-13.01,0.1245c-1.443,0 -2.765,-0.1731 -3.964,-0.5181c-1.199,-0.3449 -2.241,-0.8781 -3.123,-1.598c-0.8719,-0.7199 -1.553,-1.625 -2.041,-2.715c-0.4882,-1.09 -0.7324,-2.375 -0.7324,-3.855c0,-1.588 0.2654,-2.94 0.7947,-4.054c0.5293,-1.115 1.246,-2.032 2.15,-2.752c0.8717,-0.6913 1.898,-1.201 3.077,-1.532c1.179,-0.3302 2.407,-0.4957 3.684,-0.4957c0.9665,0 1.932,0.1121 2.898,0.3178c0.9664,0.2117 1.937,0.5505 2.913,1.014l0,4.439l-0.7011,0c-0.2183,-0.197 -0.4858,-0.4147 -0.8021,-0.6514c-0.3164,-0.2365 -0.6627,-0.4532 -1.036,-0.6513c-0.3949,-0.2067 -0.8407,-0.3825 -1.34,-0.5256c-0.4981,-0.1433 -1.054,-0.214 -1.667,-0.214c-1.392,0.00013 -2.469,0.4608 -3.232,1.384c-0.7633,0.9229 -1.144,2.163 -1.144,3.721c0,1.667 0.4072,2.91 1.223,3.729c0.8159,0.8195 1.898,1.228 3.248,1.228c0.685,0.0001 1.288,-0.0748 1.807,-0.2218c0.5194,-0.1483 0.9665,-0.3251 1.34,-0.533c0.3636,-0.2066 0.675,-0.422 0.9354,-0.6439c0.259,-0.2218 0.4832,-0.422 0.67,-0.599l0.7011,0l0,4.439c-0.3112,0.1281 -0.6724,0.2765 -1.082,0.4436c-0.4096,0.1681 -0.8281,0.3063 -1.254,0.4146c-0.5293,0.1382 -1.025,0.2443 -1.488,0.3178c-0.462,0.0749 -1.072,0.1121 -1.83,0.1121l-0.0046,-0.0001zm-16.64,0c-3.303,0 -5.834,-0.7498 -7.594,-2.249c-1.76,-1.499 -2.64,-3.635 -2.64,-6.407c0,-2.713 0.8208,-4.878 2.461,-6.496c1.641,-1.618 3.936,-2.427 6.885,-2.427c2.68,0 4.694,0.685 6.044,2.057c1.35,1.371 2.025,3.334 2.025,5.889l0,1.864l-11.95,0c0.05,0.7696 0.2227,1.413 0.5143,1.931c0.2903,0.5181 0.6751,0.9291 1.153,1.236c0.4672,0.3054 1.013,0.5256 1.636,0.6588c0.6227,0.1332 1.303,0.1993 2.041,0.1993c0.634,0 1.257,-0.0624 1.87,-0.1993c0.6127,-0.1332 1.173,-0.3077 1.682,-0.5256c0.4472,-0.1883 0.8594,-0.3899 1.238,-0.6065c0.3784,-0.2167 0.6875,-0.4096 0.9267,-0.5766l0.5766,0l0,4.276c-0.4459,0.1681 -0.8544,0.3228 -1.223,0.4658c-0.3687,0.1433 -0.8755,0.2888 -1.519,0.4372c-0.5915,0.1483 -1.202,0.264 -1.83,0.3476c-0.6277,0.0873 -1.394,0.1258 -2.298,0.1258l0.0014,-0.0005zm1.807,-10.89c-0.023,-1.095 -0.2989,-1.929 -0.8019,-2.501c-0.5044,-0.5717 -1.275,-0.8581 -2.314,-0.8581c-1.059,0.00015 -1.888,0.3012 -2.485,0.903c-0.5965,0.6016 -0.9266,1.42 -0.9889,2.456l6.5898,0.0001zm-10.95,-1.273l-0.4518,0c-0.2082,-0.0749 -0.5095,-0.1244 -0.903,-0.1557c-0.3949,-0.0367 -0.8307,-0.05 -1.309,-0.05c-0.5716,0 -1.171,0.0749 -1.799,0.2365c-0.6289,0.158 -1.238,0.3449 -1.83,0.5629l0,11.13l-5.452,0l0,-16.62l5.452,0l0,2.382c0.2489,-0.2168 0.5942,-0.4907 1.036,-0.8207c0.4408,-0.3302 0.8432,-0.5941 1.207,-0.7921c0.3949,-0.2268 0.8543,-0.422 1.378,-0.5841c0.5243,-0.163 1.02,-0.2443 1.488,-0.2443c0.1768,0.00015 0.3738,0.005 0.5915,0.0132c0.2182,0.0103 0.4161,0.023 0.5917,0.05l0.0006,4.8923zm-14.01,11.72l-5.452,0l0,-16.62l5.452,0l0,16.62zm0.1557,-18.98l-5.764,0l0,-4.04l5.764,0l0,4.04zm-6.814,7.99c0,2.052 -0.4721,3.889 -1.418,5.512c-0.9452,1.623 -2.139,2.868 -3.583,3.736c-1.204,0.7398 -2.516,1.216 -3.933,1.428c-1.418,0.2117 -2.926,0.3187 -4.525,0.3187l-7.259,0l0,-22.03l7.197,0c1.63,0 3.157,0.0997 4.58,0.2962c1.423,0.197 2.757,0.6763 4.004,1.435c1.527,0.9278 2.731,2.178 3.614,3.751c0.883,1.573 1.324,3.425 1.324,5.556l-0.001,-0.0029zm-5.982,-0.0501c0,-1.45 -0.2627,-2.691 -0.787,-3.721c-0.5244,-1.031 -1.332,-1.837 -2.422,-2.419c-0.7897,-0.4147 -1.618,-0.6414 -2.485,-0.6813c-0.8668,-0.0367 -1.903,-0.0624 -3.108,-0.0624l-0.1121,0l0,13.79l0.1121,0c1.308,0 2.412,-0.023 3.31,-0.0624c0.898,-0.05 1.752,-0.309 2.563,-0.7921c0.9553,-0.5717 1.682,-1.361 2.181,-2.367c0.4982,-1.006 0.7472,-2.234 0.7472,-3.684l0.0008,-0.0008zm-30.55,11.49c-3.302,0 -5.834,-0.7498 -7.594,-2.249c-1.76,-1.499 -2.64,-3.635 -2.64,-6.407c0,-2.713 0.8207,-4.878 2.461,-6.496c1.641,-1.618 3.936,-2.427 6.886,-2.427c2.679,0 4.694,0.685 6.044,2.057c1.35,1.371 2.025,3.334 2.025,5.889l0,1.864l-11.95,0c0.05,0.7696 0.2232,1.413 0.5144,1.931c0.2902,0.5181 0.675,0.9291 1.153,1.235c0.4671,0.3054 1.013,0.5256 1.636,0.6588c0.6227,0.1332 1.303,0.1993 2.041,0.1993c0.6339,0 1.257,-0.0624 1.869,-0.1993c0.6128,-0.1332 1.173,-0.3077 1.682,-0.5256c0.4473,-0.1883 0.8593,-0.3899 1.238,-0.6065c0.3788,-0.2167 0.6887,-0.4096 0.9266,-0.5766l0.5766,0l0,4.276c-0.4472,0.1681 -0.8543,0.3228 -1.223,0.4658c-0.3689,0.1433 -0.8757,0.2889 -1.519,0.4372c-0.5916,0.1482 -1.202,0.264 -1.83,0.3476c-0.629,0.0873 -1.394,0.1258 -2.298,0.1258l0.0014,0.0005zm1.807,-10.89c-0.023,-1.095 -0.299,-1.929 -0.8021,-2.501c-0.5032,-0.5717 -1.275,-0.8581 -2.313,-0.8581c-1.059,0.00015 -1.888,0.3012 -2.485,0.903c-0.5978,0.6016 -0.9266,1.42 -0.9888,2.456l6.5889,0.0001zm-13.03,10.45l-5.452,0l0,-23.02l5.452,0l0,23.02zm-6.454,-8.538c-0.00009,2.654 -0.7086,4.794 -2.126,6.422c-1.418,1.628 -3.165,2.441 -5.242,2.441c-0.873,0 -1.631,-0.0997 -2.274,-0.2815c-0.6438,-0.1883 -1.329,-0.4783 -2.056,-0.8731l0,6.925l-5.452,0l0,-22.71l5.452,0l0,1.731c0.7996,-0.6514 1.615,-1.178 2.446,-1.583c0.8307,-0.405 1.791,-0.6066 2.882,-0.6066c2.025,0 3.593,0.7647 4.705,2.293c1.111,1.529 1.667,3.61 1.667,6.244l-0.002,-0.0018zm-5.577,0.0997c0,-1.618 -0.2627,-2.792 -0.7871,-3.522c-0.5243,-0.7298 -1.342,-1.095 -2.454,-1.095c-0.4882,0 -0.9739,0.0749 -1.457,0.2218c-0.4833,0.1483 -0.9578,0.3701 -1.425,0.6663l0,8.36c0.2902,0.1245 0.6103,0.2016 0.9577,0.2516c0.3476,0.0501 0.761,0.0749 1.238,0.0749c1.329,0 2.316,-0.4124 2.96,-1.236c0.6439,-0.8232 0.9665,-2.064 0.9665,-3.721l0.0009,-0.0006zm-19.19,8.438l0,-8.301c0,-0.8183 -0.0132,-1.509 -0.0501,-2.072c-0.023,-0.5617 -0.1244,-1.021 -0.2801,-1.376c-0.1557,-0.355 -0.3972,-0.614 -0.7249,-0.7771c-0.3274,-0.163 -0.7871,-0.2443 -1.379,-0.2443c-0.416,0 -0.8258,0.0873 -1.23,0.259c-0.405,0.1731 -0.8469,0.4174 -1.324,0.7323l0,11.78l-5.484,0l0,-8.301c0,-0.8096 -0.0132,-1.497 -0.0496,-2.064c-0.0367,-0.5667 -0.1322,-1.029 -0.2879,-1.383c-0.1557,-0.355 -0.3972,-0.614 -0.7248,-0.7772c-0.3274,-0.163 -0.7809,-0.2443 -1.363,-0.2443c-0.4459,0 -0.883,0.0997 -1.308,0.2962c-0.4261,0.197 -0.8419,0.4298 -1.246,0.695l0,11.78l-5.452,0l0,-16.62l5.452,0l0,1.835c0.893,-0.7198 1.734,-1.282 2.524,-1.687c0.7896,-0.405 1.677,-0.6066 2.664,-0.6066c1.07,0 2.01,0.2416 2.82,0.7249c0.8108,0.4832 1.428,1.203 1.854,2.16c1.049,-0.9278 2.038,-1.64 2.968,-2.138c0.9291,-0.4982 1.872,-0.7473 2.827,-0.7473c0.8095,0 1.537,0.1244 2.181,0.3697c0.6439,0.2466 1.189,0.6165 1.636,1.11c0.4882,0.5331 0.8544,1.167 1.098,1.901c0.2438,0.7348 0.366,1.694 0.366,2.878l0,10.82l-5.4866,-0.0023zm-23.17,0l-5.452,0l0,-16.62l5.452,0l0,16.62zm0.1557,-18.98l-5.764,0l0,-4.04l5.764,0l0,4.04zm-16.41,19.38c-1.776,0 -3.336,-0.163 -4.681,-0.4882c-1.345,-0.3251 -2.594,-0.7298 -3.747,-1.213l0,-5.238l0.5293,0c1.163,0.9366 2.446,1.657 3.848,2.16c1.402,0.5032 2.763,0.7547 4.081,0.7547c0.3325,0 0.7709,-0.0367 1.316,-0.0997c0.5455,-0.0749 0.9839,-0.1782 1.316,-0.3251c0.405,-0.1681 0.7473,-0.4023 1.028,-0.7025c0.2801,-0.3012 0.4211,-0.6974 0.4211,-1.191c0,-0.553 -0.2278,-1.001 -0.685,-1.347c-0.4569,-0.3449 -1.003,-0.5966 -1.636,-0.7548c-0.7896,-0.197 -1.633,-0.3848 -2.531,-0.5617c-0.8979,-0.1782 -1.737,-0.3949 -2.516,-0.6514c-1.797,-0.6016 -3.084,-1.411 -3.863,-2.427c-0.7784,-1.016 -1.168,-2.289 -1.168,-3.818c0,-2.062 0.9192,-3.731 2.757,-5.009c1.838,-1.277 4.133,-1.916 6.885,-1.916c1.381,0.00009 2.755,0.1332 4.12,0.4c1.366,0.2663 2.589,0.6264 3.669,1.08l0,5.031l-0.5144,0c-0.8618,-0.7 -1.913,-1.292 -3.155,-1.776c-1.24,-0.4833 -2.516,-0.7249 -3.824,-0.7249c-0.5094,0 -0.9665,0.0367 -1.371,0.0997c-0.4046,0.0749 -0.8307,0.2016 -1.277,0.4c-0.3637,0.158 -0.6775,0.3922 -0.9428,0.7024c-0.2654,0.31 -0.3972,0.6588 -0.3972,1.044c0,0.5616 0.2103,1.009 0.6315,1.339c0.4211,0.3302 1.233,0.6289 2.438,0.8954c0.7784,0.1681 1.529,0.3302 2.251,0.4882c0.7223,0.158 1.493,0.3747 2.313,0.6514c1.61,0.553 2.807,1.295 3.591,2.227c0.7846,0.9328 1.176,2.163 1.176,3.692c0,2.19 -0.9054,3.951 -2.718,5.282c-1.812,1.332 -4.261,1.998 -7.345,1.998l0.0005,-0.0015z" fill="#ffffff" id="svg_3"/>
   <path d="m554.5,236.29999l-149.8,0l0,-213.1l56.36,0l0,172.5l93.43,0l0.01,40.6zm-164.5,-106.4c-0.0002,19.85 -4.571,37.62 -13.71,53.32c-9.143,15.7 -20.7,27.74 -34.66,36.14c-11.65,7.157 -24.34,11.76 -38.05,13.81c-13.71,2.052 -28.31,3.077 -43.78,3.077l-70.22,0l0,-213.1l69.62,0c15.77,0.00026 30.54,0.954 44.3,2.863c13.76,1.909 26.67,6.537 38.73,13.88c14.77,8.97 26.42,21.07 34.96,36.29c8.539,15.22 12.81,33.14 12.81,53.75l0,-0.03zm-57.87,-0.4298c-0.0001,-14.03 -2.537,-26.03 -7.61,-36c-5.074,-9.972 -12.88,-17.77 -23.43,-23.4c-7.635,-4.008 -15.65,-6.202 -24.04,-6.584c-8.389,-0.3811 -18.41,-0.5729 -30.06,-0.5729l-1.055,0l0,133.4l1.055,0c12.66,0.00014 23.33,-0.214 32.02,-0.6439c8.69,-0.4298 16.95,-2.982 24.79,-7.658c9.243,-5.534 16.28,-13.17 21.1,-22.9c4.822,-9.733 7.233,-21.61 7.234,-35.64l-0.004,-0.0012zm-250.1,110.6c-17.18,0 -32.27,-1.574 -45.28,-4.723c-13.01,-3.149 -25.09,-7.062 -36.24,-11.74l0,-50.67l5.124,0c11.25,9.065 23.66,16.03 37.22,20.9c13.56,4.867 26.72,7.3 39.48,7.3c3.215,0 7.459,-0.3338 12.73,-1.001c5.274,-0.6676 9.519,-1.718 12.73,-3.149c3.918,-1.622 7.233,-3.889 9.946,-6.799c2.712,-2.91 4.069,-6.751 4.069,-11.52c-0.00014,-5.344 -2.21,-9.686 -6.631,-13.03c-4.421,-3.34 -9.695,-5.773 -15.82,-7.3c-7.635,-1.908 -15.8,-3.722 -24.49,-5.439c-8.69,-1.718 -16.8,-3.817 -24.34,-6.298c-17.38,-5.821 -29.84,-13.65 -37.37,-23.47c-7.535,-9.829 -11.3,-22.14 -11.3,-36.93c0,-19.94 8.891,-36.09 26.67,-48.45c17.78,-12.36 39.98,-18.54 66.61,-18.54c13.36,0.00024 26.65,1.288 39.86,3.865c13.21,2.577 25.04,6.06 35.49,10.45l0,48.67l-4.973,0c-8.339,-6.775 -18.51,-12.5 -30.52,-17.18c-12.01,-4.676 -24.34,-7.014 -37,-7.014c-4.923,0.0001 -9.343,0.3338 -13.26,1.001c-3.918,0.6688 -8.037,1.956 -12.36,3.865c-3.516,1.527 -6.555,3.793 -9.117,6.799c-2.562,3.006 -3.843,6.37 -3.843,10.09c-0.00014,5.439 2.034,9.757 6.103,12.95c4.069,3.197 11.93,6.083 23.58,8.66c7.535,1.622 14.79,3.197 21.78,4.723c6.982,1.527 14.44,3.626 22.38,6.298c15.57,5.344 27.15,12.52 34.74,21.54c7.585,9.018 11.38,20.92 11.38,35.71c-0.0001,21.18 -8.766,38.22 -26.3,51.1c-17.53,12.88 -41.22,19.32 -71.05,19.32l0.002,0.012z" fill="#ffffff" id="svg_4"/>
   <path d="m173.1,334.49999c-1.389,0 -2.513,0.9752 -2.513,2.179c0,1.203 1.125,2.179 2.513,2.179c1.387,0 2.513,-0.9765 2.513,-2.179c0,-1.203 -1.126,-2.179 -2.513,-2.179zm107.7,19.54c-2.169,0 -3.927,1.524 -3.927,3.407c0,1.881 1.758,3.405 3.927,3.405s3.927,-1.524 3.927,-3.405c0,-1.883 -1.758,-3.407 -3.927,-3.407zm-55.89,-7.379c-1.736,0 -3.143,1.221 -3.143,2.726c0,1.506 1.407,2.725 3.143,2.725c1.736,0 3.141,-1.219 3.141,-2.725c0,-1.505 -1.406,-2.726 -3.141,-2.726zm117.1,9.57c-2.712,0 -4.909,1.905 -4.909,4.257c0,2.352 2.198,4.257 4.909,4.257c2.71,0 4.909,-1.905 4.909,-4.257c0,-2.352 -2.199,-4.257 -4.909,-4.257zm63.21,-3.286c-3.387,0 -6.134,2.382 -6.134,5.321c0,2.94 2.747,5.323 6.134,5.323c3.389,0 6.138,-2.383 6.138,-5.323c0,-2.938 -2.749,-5.321 -6.138,-5.321zm63.35,-10.82c-4.237,0 -7.67,2.98 -7.67,6.652c0,3.674 3.433,6.653 7.67,6.653c4.237,0 7.672,-2.979 7.672,-6.653c0,-3.673 -3.434,-6.652 -7.672,-6.652zm63.39,-19.8c-5.295,0 -9.587,3.722 -9.587,8.314c0,4.592 4.292,8.316 9.587,8.316c5.295,0 9.589,-3.724 9.589,-8.316c0,-4.592 -4.294,-8.314 -9.589,-8.314zm60.7,-26.35c-5.883,0 -10.65,4.137 -10.65,9.24c0,5.103 4.769,9.239 10.65,9.239c5.883,0 10.65,-4.136 10.65,-9.239c0,-5.103 -4.769,-9.24 -10.65,-9.24zm55.33,-37.88c-6.537,0 -11.84,4.595 -11.84,10.26c0,5.669 5.3,10.27 11.84,10.27c6.539,0 11.84,-4.597 11.84,-10.27c0,-5.669 -5.298,-10.26 -11.84,-10.26zm45.63,-53.3c-8.499,0 -15.39,5.976 -15.39,13.35c0,7.37 6.889,13.35 15.39,13.35s15.39,-5.975 15.39,-13.35c0,-7.369 -6.889,-13.35 -15.39,-13.35zm19.6,-55.29c-6.537,0 -11.84,4.595 -11.84,10.27c0,5.669 5.298,10.26 11.84,10.26s11.84,-4.595 11.84,-10.26c0,-5.67 -5.298,-10.27 -11.84,-10.27zm-6.608,-34.51c4.671,0 8.457,-3.281 8.457,-7.332c0,-4.049 -3.785,-7.332 -8.457,-7.332c-4.668,0 -8.453,3.283 -8.453,7.332c0,4.051 3.785,7.332 8.453,7.332zm-20.65,-39.88c3.337,0 6.038,-2.346 6.038,-5.238c0,-2.892 -2.702,-5.236 -6.038,-5.236c-3.335,0 -6.04,2.344 -6.04,5.236c0,2.892 2.705,5.238 6.04,5.238zm-22.7,-33.44c-2.223,0 -4.024,1.564 -4.024,3.493c0,1.927 1.802,3.491 4.024,3.491c2.224,0 4.028,-1.564 4.028,-3.491c0,-1.929 -1.803,-3.493 -4.028,-3.493zm-24.16,-13.7c1.483,0 2.685,-1.042 2.685,-2.328c0,-1.285 -1.202,-2.328 -2.685,-2.328c-1.483,0 -2.683,1.042 -2.683,2.328c0,1.285 1.2,2.328 2.683,2.328" fill-rule="evenodd" fill="#ffffff" id="svg_5"/>
  </g>
  <path fill="#ffffff" opacity="NaN" d="m247.90002,256" id="svg_6"/>
 </g>
</svg>