<?xml version="1.0" standalone="no"?>
<!DOCTYPE svg PUBLIC "-//W3C//DTD SVG 1.1//EN" "http://www.w3.org/Graphics/SVG/1.1/DTD/svg11.dtd" >
<svg xmlns="http://www.w3.org/2000/svg" xmlns:xlink="http://www.w3.org/1999/xlink" version="1.1">
<metadata>
Created by FontForge 20170731 at Sun Jan 26 11:46:22 2020
 By Aleksey,,,
</metadata>
<defs>
<font id="mononokiNerdFontCompleteM-Regular" horiz-adv-x="587" >
  <font-face 
    font-family="mononoki Nerd Font Mono"
    font-weight="400"
    font-stretch="normal"
    units-per-em="1024"
    panose-1="0 0 5 9 0 0 0 0 0 0"
    ascent="819"
    descent="-205"
    x-height="500"
    cap-height="700"
    bbox="-365 -271 723 1149"
    underline-thickness="50"
    underline-position="-150"
    unicode-range="U+0020-FEFF"
  />
<missing-glyph 
d="M508 675v-650q0 -25 -25 -25h-391q-25 0 -25 25v650q0 25 25 25h391q25 0 25 -25zM288 395l151 256h-302zM261 350l-145 246v-491zM460 596l-146 -246l146 -245v491zM439 49l-151 257l-151 -257h302z" />
    <glyph glyph-name="map-marker-plus" unicode="&#x671;" arabic-form="isolated" 
d="M195 339q30 0 50 20t20 50t-20 49.5t-50 19.5t-49.5 -19.5t-19.5 -49.5t19.5 -50t49.5 -20zM195 604q83 -1 138.5 -56t56.5 -139q-11 -119 -97 -236.5t-98 -126.5q-12 9 -97.5 126.5t-97.5 236.5q1 84 56 139t139 56zM363 185h84v84h56v-84h84v-55h-84v-84h-56v84h-84v55
z" />
    <glyph glyph-name="marker" unicode="&#x671;" arabic-form="final" 
d="M463 582q-22 1 -38 -15l-150 -150l147 -147l150 150q15 16 15 36.5t-15 37.5l-74 73q-16 16 -35 15zM250 392l-154 -154q-16 -17 -16 -37.5t16 -36.5l-96 -96h147l22 22q16 -15 36.5 -15t36.5 16l154 154z" />
    <glyph glyph-name="message-plus" unicode="&#x67b;" arabic-form="isolated" 
d="M529 618q25 0 41.5 -16.5t16.5 -40.5v-353q0 -25 -16.5 -42t-41.5 -17h-412l-117 -117v529q0 24 16.5 40.5t41.5 16.5h471zM265 501v-88h-89v-59h89v-88h57v88h89v59h-89v88h-57z" />
    <glyph glyph-name="microscope" unicode="&#x67b;" arabic-form="final" 
d="M194 512l52 -88q-64 -8 -105.5 -53t-42.5 -111q1 -69 47 -114.5t115 -47.5q52 0 91 26.5t59 71.5h-84v64h261v-64h-73q-22 -78 -81 -132h88v-64h-521v64h87q-40 37 -63.5 87.5t-23.5 108.5q2 92 54.5 160t139.5 92zM301 650l25 -43l27 17l115 -199l-113 -64l-115 197
l29 17l-24 43z" />
    <glyph glyph-name="move-resize" unicode="&#x67b;" arabic-form="initial" 
d="M214 618v-27h26v-80h-26v-26h80v26h-27v80h27v27h-80zM214 459q-23 -2 -38 -17t-16 -37v-320q1 -22 16 -37t38 -16h319q23 1 38 16t16 37v320q-1 22 -16 37t-38 17h-319zM0 405v-80h27v26h80v-26h27v80h-27v-26h-80v26h-27zM214 405h319v-320h-319v320zM347 379v-28h26
v-132h-106v26h-27v-80h27v26h106v-52h-26v-28h80v28h-27v52h80v-26h27v80h-27v-26h-80v132h27v28h-80z" />
    <glyph glyph-name="move-resize-variant" unicode="&#x67b;" arabic-form="medial" 
d="M37 618l-37 -36l133 -133h-93v-53h182v182h-52v-93zM275 449v-53h260v-156h52v156q-1 22 -16 37t-36 16h-260zM170 344v-260q1 -22 15.5 -36.5t36.5 -15.5h156v52h-156v260h-52zM402 255l-38 -38l134 -133h-67v-52h156v156h-52v-67z" />
    <glyph glyph-name="paw-off" unicode="&#x67e;" arabic-form="isolated" 
d="M2 573l37 37l533 -533l-37 -37l-59 59q-7 -4 -13 -8q-39 -14 -83.5 4t-88.5 22q-45 -4 -89 -22.5t-84 -3.5q-22 12 -35 36t-10 49q5 31 34 53t54 45q16 17 31 38t30 40zM187 610q27 3 49.5 -21t31 -63t-2.5 -68l-117 116q13 30 39 36zM396 610q26 -6 38.5 -34.5t4 -69
t-31.5 -64t-50 -19t-38.5 33t-3 68.5t31 64t49.5 21zM30 476q26 9 55 -6.5t47 -51.5t12.5 -66.5t-31 -41.5t-53.5 5.5t-46 51.5t-13 65.5t29 43.5zM557 476q24 -13 29 -43.5t-13 -65.5t-46 -51.5t-53.5 -5.5t-31 41.5t12.5 66.5t47 51.5t55 6.5z" />
    <glyph glyph-name="phone-minus" unicode="&#x67e;" arabic-form="final" 
d="M32 618q-14 0 -23 -9t-9 -23q6 -235 162.5 -391.5t392.5 -162.5q14 0 23 9t9 23v114q0 14 -9 23t-23 9q-61 0 -116 19q-19 6 -34 -8l-72 -72q-70 37 -124.5 91t-90.5 125l72 72q13 13 7 33q-18 55 -18 116q0 14 -9 23t-23 9h-115zM326 521v-66h261v66h-261z" />
    <glyph glyph-name="phone-plus" unicode="&#x67e;" arabic-form="initial" 
d="M32 618q-14 0 -23 -9t-9 -23q6 -235 162.5 -391.5t392.5 -162.5q14 0 23 9t9 23v114q0 14 -9 23t-23 9q-61 0 -116 19q-19 6 -34 -8l-72 -72q-70 37 -124.5 91t-90.5 125l72 72q13 13 7 33q-18 55 -18 116q0 14 -9 23t-23 9h-115zM423 618v-97h-97v-66h97v-98h66v98h98
v66h-98v97h-66z" />
    <glyph glyph-name="pot" unicode="&#x67e;" arabic-form="medial" 
d="M521 97q0 -27 -18 -46t-46 -19h-327q-28 0 -46 19t-18 46v196h-66v98h587v-98h-66v-196zM98 521h66v-66h-66v66zM261 521h65v-66h-65v66zM423 521h66v-66h-66v66zM489 618h66v-65h-66v65zM326 618h65v-65h-65v65zM164 618h64v-65h-64v65z" />
    <glyph glyph-name="pot-mix" unicode="&#x680;" arabic-form="isolated" 
d="M521 98q0 -28 -18 -47t-46 -19h-327q-28 0 -46 19t-18 47v196h-66v97h359l130 227l57 -34l-112 -193h153v-97h-66v-196z" />
    <glyph glyph-name="serial-port" unicode="&#x680;" arabic-form="final" 
d="M83 724h421v-85h83v-126h-126v-252h-335v252h-126v126h83v85zM504 472h83v-211h-83v211zM252 220h83v-294h-83v294zM0 472h83v-211h-83v211z" />
    <glyph glyph-name="shape-circle-plus" unicode="&#x680;" arabic-form="initial" 
d="M248 94q78 1 130 53.5t55 131.5h61q-1 -105 -71.5 -175t-174.5 -72q-106 2 -175.5 72t-72.5 175q3 105 72.5 175t175.5 72v-61q-80 -3 -132 -55t-54 -131q2 -79 54 -131.5t132 -53.5zM494 526h93v-61h-93v-93h-61v93h-92v61h92v92h61v-92z" />
    <glyph glyph-name="shape-polygon-plus" unicode="&#x680;" arabic-form="medial" 
d="M433 195v84h61v-124l-278 -123l-216 215l123 279h125v-61h-84l-90 -204l155 -156zM587 526v-61h-93v-93h-61v93h-92v61h92v92h61v-92h93z" />
    <glyph glyph-name="shape-rectangle-plus" unicode="&#x67a;" arabic-form="isolated" 
d="M494 479h93v-62h-93v-93h-61v93h-92v62h92v93h61v-93zM433 139v93h61v-154h-494v401h248v-62h-186v-278h371z" />
    <glyph glyph-name="shape-square-plus" unicode="&#x67a;" arabic-form="final" 
d="M494 526h93v-61h-93v-93h-61v93h-92v61h92v92h61v-92zM433 94v185h61v-247h-494v494h248v-61h-186v-371h371z" />
    <glyph glyph-name="skip-next-circle" unicode="&#x67a;" arabic-form="initial" 
d="M294 618q-126 -2 -208.5 -85t-85.5 -208q3 -125 85.5 -208t208.5 -85q125 2 207.5 85t85.5 208q-3 125 -85.5 208t-207.5 85zM176 442l146 -117l-146 -117v234zM353 442h58v-234h-58v234z" />
    <glyph glyph-name="skip-next-circle-outline" unicode="&#x67a;" arabic-form="medial" 
d="M294 618q-126 -2 -208.5 -85t-85.5 -208q3 -125 85.5 -208t208.5 -85q125 2 207.5 85t85.5 208q-3 125 -85.5 208t-207.5 85zM294 561q99 -3 165.5 -70t69.5 -166q-3 -99 -69.5 -166t-165.5 -70q-100 3 -166.5 70t-69.5 166q3 99 69.5 166t166.5 70zM176 442v-234
l146 117zM353 442v-234h58v234h-58z" />
    <glyph glyph-name="skip-previous-circle" unicode="&#x67f;" arabic-form="isolated" 
d="M294 618q-126 -2 -208.5 -85t-85.5 -208q3 -125 85.5 -208t208.5 -85q125 2 207.5 85t85.5 208q-3 125 -85.5 208t-207.5 85zM176 442h58v-234h-58v234zM411 442v-234l-146 117z" />
    <glyph glyph-name="skip-previous-circle-outline" unicode="&#x67f;" arabic-form="final" 
d="M294 618q125 -2 207.5 -85t85.5 -208q-3 -125 -85.5 -208t-207.5 -85q-126 2 -208.5 85t-85.5 208q3 125 85.5 208t208.5 85zM294 561q-100 -3 -166.5 -70t-69.5 -166q3 -99 69.5 -166t166.5 -70q99 3 165.5 70t69.5 166q-3 99 -69.5 166t-165.5 70zM411 442v-234
l-146 117zM234 442v-234h-58v234h58z" />
    <glyph glyph-name="spray" unicode="&#x67f;" arabic-form="initial" 
d="M220 618h74v-73h-74v73zM110 655h74v-74h-74v74zM110 545h74v-74h-74v74zM74 471v-72h-74v72h74zM74 581v-72h-74v72h74zM74 691v-73h-74v73h74zM330 -41q-31 0 -52 21t-21 52v367q0 31 21 51.5t52 20.5v38h37v109h110v-109h36v-38q31 0 51.5 -20.5t22.5 -51.5v-367
q-2 -31 -22.5 -52t-51.5 -21h-183zM330 399v-367h183v367h-183z" />
    <glyph glyph-name="stop-circle" unicode="&#x67f;" arabic-form="medial" 
d="M294 618q-126 -2 -208.5 -85t-85.5 -208q3 -125 85.5 -208t208.5 -85q125 2 207.5 85t85.5 208q-3 125 -85.5 208t-207.5 85zM205 413h177v-176h-177v176z" />
    <glyph glyph-name="stop-circle-outline" unicode="&#x679;" arabic-form="isolated" 
d="M294 618q-126 -2 -208.5 -85t-85.5 -208q3 -125 85.5 -208t208.5 -85q125 2 207.5 85t85.5 208q-3 125 -85.5 208t-207.5 85zM294 561q99 -3 165.5 -70t69.5 -166q-3 -99 -69.5 -166t-165.5 -70q-100 3 -166.5 70t-69.5 166q3 99 69.5 166t166.5 70zM205 413v-176h177
v176h-177z" />
    <glyph glyph-name="test-tube" unicode="&#x679;" arabic-form="final" 
d="M35 837v-101h53v-721q3 -86 60.5 -144t144.5 -58t144.5 58t60.5 144v721h53v101h-516zM242 119q-24 0 -38.5 13t-14.5 37.5t14.5 37.5t37.5 13t37.5 -13t14.5 -37.5t-14.5 -37.5t-36.5 -13zM344 324q-22 0 -36.5 14.5t-14.5 37t14.5 37t37.5 14.5t37.5 -14.5t14.5 -37
t-14.5 -37t-38.5 -14.5zM397 582h-208v154h208v-154z" />
    <glyph glyph-name="text-shadow" unicode="&#x679;" arabic-form="initial" 
d="M0 635h448v-103h-171v-414h-104v414h-173v103zM310 498h70v-70h-70v70zM414 498h70v-70h-70v70zM517 498h70v-70h-70v70zM310 395h70v-70h-70v70zM310 291h70v-69h-70v69zM310 188h70v-70h-70v70zM310 84h70v-69h-70v69z" />
    <glyph glyph-name="tune-vertical" unicode="&#x679;" arabic-form="medial" 
d="M66 618v-293h-66v-66h66v-227h64v227h66v66h-66v293h-64zM261 618v-163h-65v-64h65v-359h65v359h65v64h-65v163h-65zM457 618v-359h-66v-64h66v-163h64v163h66v64h-66v359h-64z" />
    <glyph glyph-name="cart-off" unicode="&#x6a4;" arabic-form="isolated" 
d="M587 64l-554 554l-33 -32l114 -114l57 -120l-35 -64q-6 -11 -6 -24q0 -22 14.5 -36.5t35.5 -15.5h193l36 -35q-20 -15 -22 -43q0 -21 15.5 -35.5t36.5 -14.5q27 0 41 21l74 -73zM191 264q-6 0 -6 6l1 4l23 42h61l52 -52h-131zM402 316q14 0 25.5 7t19.5 20l92 167
q3 6 3 12q0 11 -7 18t-18 8h-348zM180 186q-21 0 -35.5 -15t-14.5 -36.5t14.5 -36t36 -14.5t36.5 14.5t15 36t-15 36.5t-37 15z" />
    <glyph glyph-name="chart-gantt" unicode="&#x6a4;" arabic-form="final" 
d="M0 530h234v88h60v-586h-60v117h-117v88h117v59h-176v88h176v58h-234v88zM353 530h88v-88h-88v88zM353 384h146v-88h-146v88zM353 237h234v-88h-234v88z" />
    <glyph glyph-name="chart-scatterplot-hexbin" unicode="&#x6a4;" arabic-form="initial" 
d="M0 618h58v-529h529v-57h-587v586zM353 252l-59 -103h-120l-60 103l60 102h120zM354 486l-59 -102h-119l-59 102l59 104h119zM565 369l-59 -103h-119l-59 103l59 103h119z" />
    <glyph glyph-name="chart-timeline" unicode="&#x6a4;" arabic-form="medial" 
d="M0 618h58v-529h529v-57h-587v586zM146 384h295v-88h-295v88zM265 237h293v-88h-293v88zM117 561h470v-119h-58v59h-353v-59h-59v119z" />
    <glyph glyph-name="discord" unicode="&#x6a6;" arabic-form="isolated" 
d="M587 -13l-154 147l19 -59h-379q-32 1 -52.5 22t-20.5 51v441q0 32 20.5 52.5t52.5 21.5h441q32 -1 52.5 -21.5t20.5 -52.5v-602zM294 492q-61 -2 -97.5 -16.5t-36.5 -17.5q25 21 52.5 32t30.5 11l-6 5q-37 -3 -64.5 -18t-29.5 -18q-36 -81 -42.5 -137.5t-5.5 -57.5
q35 -39 68 -46t35 -4l21 26q-27 9 -43 24t-18 16q2 -1 38.5 -17.5t97.5 -19.5q60 3 96.5 19.5t38.5 17.5q-2 -1 -18 -16t-43 -24l21 -26q2 -3 35 4t68 46q1 1 -5.5 57.5t-42.5 137.5q-2 3 -29.5 18t-64.5 18l-6 -5q3 0 30.5 -11t52.5 -32q0 3 -36.5 17.5t-96.5 16.5z
M233 381q15 0 24.5 -11t9.5 -26.5t-9.5 -26.5t-24.5 -11t-25 11t-10 26.5t10 26.5t25 11zM356 381q13 0 23.5 -11t10.5 -26.5t-10.5 -26.5t-25 -11t-24 11t-9.5 26.5t9.5 26.5t25.5 11z" />
    <glyph glyph-name="file-restore" unicode="&#x6a6;" arabic-form="final" 
d="M367 691h-293q-31 0 -51.5 -21t-22.5 -52v-586q2 -31 22.5 -52t51.5 -21h439q31 0 51.5 21t22.5 52v439zM294 105q-57 0 -101.5 30t-67.5 80h64q17 -26 44.5 -40.5t60.5 -14.5q54 2 90.5 38t36.5 90t-36.5 91t-90.5 37q-38 0 -67.5 -19t-46.5 -50l59 -58h-146v146l46 -48
q26 39 65.5 61.5t89.5 22.5q77 -2 129 -53.5t54 -128.5q-2 -79 -54 -130.5t-129 -53.5z" />
    <glyph glyph-name="language-c" unicode="&#x6a6;" arabic-form="initial" 
d="M554 93l25 -142q-25 -11 -74 -22t-117 -11q-191 3 -289.5 113.5t-98.5 282.5q3 199 117.5 308.5t286.5 109.5q66 0 113.5 -11t69.5 -22l-35 -145l-61 19q-35 9 -81 9q-101 0 -167 -64.5t-68 -195.5q0 -117 62.5 -185.5t174.5 -68.5l77 6q38 8 65 19z" />
    <glyph glyph-name="language-cpp" unicode="&#x6a6;" arabic-form="medial" 
d="M243 223l10 -62q-10 -5 -31.5 -9.5t-51.5 -4.5q-84 1 -127 49.5t-43 123.5q2 87 52 135t125 48q29 0 49.5 -4.5t30.5 -9.5l-14 -64l-28 9q-14 3 -34 3q-45 0 -74 -28t-30 -85q0 -52 27.5 -81.5t76.5 -29.5l34 2q16 4 28 8zM256 350h50v52h51v-52h52v-50h-52v-52h-51v52
h-50v50zM434 350h51v52h51v-52h51v-50h-51v-52h-51v52h-51v50z" />
    <glyph glyph-name="xaml" unicode="&#x684;" arabic-form="isolated" 
d="M467 325l-87 -150h-173l-87 150l87 150h173zM587 325l-101 -174l-43 24l87 150l-87 150l43 24zM0 325l101 174l43 -24l-87 -150l87 -150l-43 -24z" />
    <glyph glyph-name="bandcamp" unicode="&#x684;" arabic-form="final" 
d="M587 501l-190 -352h-397l190 352h397z" />
    <glyph glyph-name="credit-card-plus" unicode="&#x684;" arabic-form="initial" 
d="M510 210h77v-51h-77v-77h-51v77h-76v51h76v77h51v-77zM459 465v51h-408v-51h408zM459 363h-408v-153h281v-51h-281q-21 1 -35.5 15.5t-15.5 35.5v306q1 22 15.5 36t35.5 16h408q22 -2 36.5 -16t14.5 -36v-178h-51v25z" />
    <glyph glyph-name="itunes" unicode="&#x684;" arabic-form="medial" 
d="M139 139q-29 -2 -88 -25t-50 -92q28 -83 115 -68.5t97 114.5v360q-2 2 1 13.5t21 16.5l285 58q2 2 12 0.5t12 -19.5v-253q0 -2 -3.5 -13t-22.5 -16q-29 0 -87.5 -21t-57.5 -90q21 -84 111.5 -74.5t102.5 109.5v531q0 3 -5 17.5t-36 9.5l-345 -70q-2 1 -15.5 -6.5
t-15.5 -30.5v-417q0 -1 -4.5 -15t-26.5 -19z" />
    <glyph glyph-name="bow-tie" unicode="&#x683;" arabic-form="isolated" 
d="M391 259l196 -98v328l-196 -98v-132zM196 259l-196 -98v328l196 -98v-132zM228 391h131v-132h-131v132z" />
    <glyph glyph-name="calendar-range" unicode="&#x683;" arabic-form="final" 
d="M196 358h-66v-66h66v66zM326 358h-65v-66h65v66zM457 358h-66v-66h66v66zM521 586h-32v65h-66v-65h-259v65h-66v-65h-32q-29 0 -47.5 -19.5t-18.5 -46.5v-456q0 -27 19 -46t47 -19h455q28 0 47 19t19 46v456q0 27 -19 46.5t-47 19.5zM521 64h-455v358h455v-358z" />
    <glyph glyph-name="currency-usd-off" unicode="&#x683;" arabic-form="initial" 
d="M313 514q48 0 69 -21.5t23 -56.5h81q-1 49 -31 88t-87 53v81h-111v-79q-29 -7 -56 -21l56 -54q21 10 56 10zM47 618l-47 -46l127 -127q2 -57 40 -92t104 -54l130 -129q-9 -13 -30.5 -23.5t-57.5 -10.5q-58 1 -84 23t-28 55h-81q5 -61 43 -95.5t94 -47.5v-79h111v79
q54 11 90 42l82 -83l47 47z" />
    <glyph glyph-name="flash-red-eye" unicode="&#x683;" arabic-form="medial" 
d="M401 557q-13 0 -21.5 -8.5t-8.5 -22t8.5 -22t22.5 -8.5t22 8.5t8 22t-8 22t-23 8.5zM401 650q-63 0 -112.5 -34t-72.5 -90q23 -55 72.5 -89t114 -34t113.5 34t71 89q-22 56 -71 90t-115 34zM401 603q34 0 55.5 -21.5t21.5 -55t-21.5 -55t-54 -21.5t-54.5 21.5t-22 55
t22 55t53 21.5zM0 650v-371h93v-279l216 371h-123l34 79q-32 33 -50 76q17 41 45 72t66 52h-281z" />
    <glyph glyph-name="oar" unicode="&#x686;" arabic-form="isolated" 
d="M561 222q-40 42 -113 94.5t-131 34.5l-268 268l-49 -49l270 -270q-18 -58 36 -128t96 -109.5t74 -29t64 47.5q38 35 45.5 70.5t-24.5 70.5z" />
    <glyph glyph-name="piano" unicode="&#x686;" arabic-form="final" 
d="M58 590h471q25 0 41.5 -17.5t16.5 -42.5v-410q0 -25 -16.5 -42.5t-41.5 -17.5h-471q-25 0 -41.5 17.5t-16.5 42.5v410q0 25 16.5 42.5t41.5 17.5zM58 530v-410h118v176h-37v234h-81zM205 120h177v176h-38v234h-101v-234h-38v-176zM411 120h118v410h-81v-234h-37v-176z
" />
    <glyph glyph-name="weather-lightning-rainy" unicode="&#x686;" arabic-form="initial" 
d="M94 282q10 -6 12.5 -16t-3 -20t-15.5 -12.5t-20 2.5q-32 18 -49.5 48t-18.5 67q1 58 39.5 95.5t94.5 38.5q21 48 63 77.5t97 29.5q70 -2 118.5 -47t55.5 -114h13q46 -1 76 -31t30 -75t-30 -75t-76 -31q-12 0 -19.5 7.5t-7.5 18.5t7.5 18.5t19.5 7.5q22 1 37.5 16t15.5 38
t-15.5 38t-37.5 16h-53v26q-1 56 -39.5 94.5t-94.5 39.5q-51 -1 -87 -32.5t-44 -80.5q-14 5 -29 5q-34 0 -56.5 -22.5t-23.5 -57.5q0 -22 10.5 -40.5t29.5 -28.5v0zM228 351h80l-54 -106h54l-100 -187l20 133h-68zM441 147q0 -26 -17 -43.5t-43 -17.5t-42.5 17.5t-18.5 43.5
q4 34 30.5 71t29.5 41q4 -4 30.5 -41t30.5 -71z" />
    <glyph glyph-name="weather-snowy-rainy" unicode="&#x686;" arabic-form="medial" 
d="M468 134q-1 -26 -18 -43.5t-42.5 -17.5t-42.5 17.5t-17 43.5q4 34 30 71t30 41q4 -4 30 -41t30 -71zM80 169q-2 12 3.5 21.5t16.5 11.5l60 16l-44 44q-8 9 -8 20t8 19.5t19 8.5t20 -9l44 -44l16 60q3 11 13 17t21 2.5t16 -12.5t3 -21l-16 -60l60 15q11 4 21 -1.5
t12.5 -17t-2.5 -20.5t-16 -12l-60 -16l43 -44q8 -9 8 -20t-8 -19.5t-19.5 -8.5t-18.5 8l-44 45l-16 -60q-4 -13 -13.5 -18t-21 -1.5t-17 12.5t-2.5 21l16 60l-60 -17q-11 -2 -20.5 3.5t-13.5 16.5zM0 338q1 58 39.5 95.5t94.5 38.5q21 48 63 77.5t97 29.5q70 -2 118.5 -47
t55.5 -113h13q46 -2 76 -32t30 -75t-30 -75t-76 -31q-12 0 -19.5 7.5t-7.5 18.5t7.5 18.5t19.5 7.5q22 2 37.5 17t15.5 37.5t-15.5 37.5t-37.5 16h-53v26q-1 57 -39.5 95t-94.5 39q-51 -1 -87 -32.5t-44 -79.5q-14 5 -29 5q-34 0 -56.5 -23t-22.5 -58t23 -57q7 -8 7 -18.5
t-8 -18t-18.5 -7.5t-18.5 8q-19 18 -29.5 42t-10.5 51z" />
    <glyph glyph-name="yin-yang" unicode="&#x687;" arabic-form="isolated" 
d="M294 618q125 -2 207.5 -85t85.5 -208q-3 -125 -85.5 -208t-207.5 -85q-126 2 -208.5 85t-85.5 208q3 125 85.5 208t208.5 85zM294 561q-101 -3 -167 -69t-69 -167q3 -101 69 -167t167 -69q-50 2 -83 35t-33 83t33 83.5t82.5 34.5t82.5 34.5t33 83.5t-33 83t-82 35z
M294 486q19 0 31.5 -12.5t12.5 -31t-12.5 -31t-32 -12.5t-32 12.5t-12.5 31t12.5 31t32.5 12.5zM294 252q-20 -1 -32.5 -13.5t-12.5 -31t12.5 -31t32 -12.5t32 12.5t12.5 31t-12.5 31t-31.5 13.5z" />
    <glyph glyph-name="tower-beach" unicode="&#x687;" arabic-form="final" 
d="M457 586v-131h32v-64h-12l110 -425h-67l-19 72l-207 119l-208 -119l-19 -72h-67l110 425h-12v64h32v131h-32v32l391 66v-98h-32zM139 246l-30 -121l119 70zM410 391h-233l-21 -80l138 -79l137 79zM478 125l-30 121l-89 -51z" />
    <glyph glyph-name="tower-fire" unicode="&#x687;" arabic-form="initial" 
d="M457 586v-131h32v-64h-12l110 -425h-67l-19 72l-207 119l-208 -119l-19 -72h-67l110 425h-12v64h32v131h-32v32l196 66l195 -66v-32h-32zM139 246l-30 -121l119 70zM410 391h-233l-21 -80l138 -79l137 79zM478 125l-30 121l-89 -51z" />
    <glyph glyph-name="delete-circle" unicode="&#x687;" arabic-form="medial" 
d="M294 618q125 -2 207.5 -85t85.5 -208q-3 -125 -85.5 -208t-207.5 -85q-126 2 -208.5 85t-85.5 208q3 125 85.5 208t208.5 85zM441 472h-74l-29 29h-89l-29 -29h-74v-59h295v59zM205 149h177q12 0 20.5 8t8.5 21v206h-235v-206q0 -13 8.5 -21t20.5 -8z" />
    <glyph glyph-name="dna" unicode="&#x68d;" arabic-form="isolated" 
d="M0 691h74v-73q0 -39 18 -72.5t50 -66.5q50 -44 119 -89l-67 -43q-57 36 -101 81q-42 38 -66.5 85t-26.5 105v73zM513 691h74v-73q-2 -58 -26.5 -105t-65 -85t-87 -70.5t-95.5 -63.5t-92.5 -61t-77 -62.5t-51.5 -66t-18 -72.5v-73h-74v73q2 58 26.5 105t65 85t87 70.5
t95.5 63.5t92.5 61t77 62.5t51.5 66t18 72.5v73zM393 303q57 -36 101 -81q42 -38 66.5 -85t26.5 -105v-73h-74v73q0 39 -18 72.5t-50 66.5q-50 44 -119 89zM110 655h367v-37l-3 -18h-361l-3 18v37zM136 545h315q-12 -19 -32 -40l-19 -15h-215l-17 15q-20 21 -32 40zM187 160
h215l17 -15q20 -21 32 -40h-315q12 19 32 40zM113 50h361l3 -18v-37h-367v37z" />
    <glyph glyph-name="hamburger" unicode="&#x68d;" arabic-form="final" 
d="M0 208h587v-59q0 -25 -16.5 -41.5t-41.5 -18.5h-471q-25 2 -41.5 18.5t-16.5 41.5v59zM117 561h353q49 -2 82.5 -35t34.5 -84v-58h-587v58q1 51 34.5 84t82.5 35zM58 354h324l59 -58l58 58h30q25 0 41.5 -16.5t16.5 -42t-16.5 -42t-41.5 -16.5h-471q-25 0 -41.5 16.5
t-16.5 42t16.5 42t41.5 16.5z" />
    <glyph glyph-name="gondola" unicode="&#x68c;" arabic-form="isolated" 
d="M467 377h-145v69l265 45l-7 42l-159 -26q3 7 3 14q0 19 -12.5 31t-31.5 12t-31 -12t-12 -29t9 -30l-24 -2v30h-57v-41l-18 -3q3 7 3 15q0 19 -12 31.5t-31 12.5t-31.5 -12.5t-12.5 -30t10 -28.5l-173 -29l7 -43l258 43v-59h-145q-25 -2 -41 -18t-18 -41v-174
q2 -24 18 -40.5t41 -17.5h347q25 1 41 17.5t18 40.5v174q-2 25 -18 41t-41 18zM120 318h65v-115h-65v115zM228 203v115h131v-115h-131zM467 203h-65v115h65v-115z" />
    <glyph glyph-name="inbox" unicode="&#x68c;" arabic-form="final" 
d="M521 227h-130q-1 -41 -28.5 -68.5t-69 -27.5t-69 27.5t-28.5 68.5h-130v326h455v-326zM521 618h-455q-29 0 -47.5 -19t-18.5 -46v-456q0 -27 19 -46t47 -19h455q28 0 47 19t19 46v456q0 27 -19 46t-47 19z" />
    <glyph glyph-name="reorder-horizontal" unicode="&#x68e;" arabic-form="isolated" 
d="M0 227h587v66h-587v-66zM0 97h587v64h-587v-64zM0 357h587v66h-587v-66zM0 553v-64h587v64h-587z" />
    <glyph glyph-name="reorder-vertical" unicode="&#x68e;" arabic-form="final" 
d="M167 703v-756h85v756h-85zM0 703v-756h83v756h-83zM335 703v-756h85v756h-85zM587 703h-83v-756h83v756z" />
    <glyph glyph-name="security-home" unicode="&#x688;" arabic-form="isolated" 
d="M261 293h65v-98h97v162h66l-195 164l-196 -164h66v-162h97v98zM294 684l293 -131v-196q-3 -139 -84 -247.5t-209 -143.5q-129 35 -210 143.5t-84 247.5v196z" />
    <glyph glyph-name="tag-heart" unicode="&#x688;" arabic-form="final" 
d="M570 337l-264 265q-17 16 -41 16h-207q-25 0 -41.5 -16.5t-16.5 -40.5v-207q0 -25 17 -41l264 -265q17 -16 41.5 -16t41.5 16l206 207q17 16 17 41t-17 41zM102 472q-18 0 -30.5 12.5t-12.5 31t12.5 31t31 12.5t31 -12.5t12.5 -31t-12.5 -31t-31.5 -12.5zM448 229
l-126 -126l-125 126q-21 20 -21 52t21 52.5t52.5 20.5t52.5 -21l20 -22l22 22q21 21 52 21t51.5 -20.5t20.5 -52.5t-20 -52z" />
    <glyph glyph-name="skull" unicode="&#x698;" arabic-form="isolated" 
d="M294 651q-126 -3 -208.5 -86t-85.5 -208q0 -75 34.5 -138.5t95.5 -104.5v-115h66v98h65v-98h65v98h65v-98h66v115q61 41 95.5 105.5t34.5 137.5q-3 125 -85.5 208t-207.5 86zM164 357q27 0 45.5 -18.5t18.5 -46t-18.5 -46.5t-46 -19t-46.5 19t-19 46.5t19 46t47 18.5z
M423 357q28 0 47 -18.5t19 -46t-19 -46.5t-46.5 -19t-46 19t-18.5 46.5t18.5 46t45.5 18.5zM294 259l48 -98h-97z" />
    <glyph glyph-name="solid" unicode="&#x698;" arabic-form="final" 
d="M0 618h587v-586h-587v586z" />
    <glyph glyph-name="alarm-snooze" unicode="&#x691;" arabic-form="isolated" 
d="M172 576l-37 45l-135 -113l37 -45zM587 508l-135 113l-37 -45l135 -114zM294 559q-113 -3 -187.5 -78t-77.5 -187q3 -113 77.5 -187.5t187.5 -77.5q112 3 186.5 77.5t77.5 187.5q-3 112 -77.5 187t-186.5 78zM294 87q-89 3 -146.5 61t-59.5 146q2 87 59.5 145t146.5 60
q88 -2 145.5 -60t59.5 -145q-2 -88 -59.5 -146t-145.5 -61zM205 352h106l-106 -123v-54h177v60h-106l106 124v52h-177v-59z" />
    <glyph glyph-name="baby-buggy" unicode="&#x691;" arabic-form="final" 
d="M339 634v-247h248q-3 105 -72.5 175t-175.5 72zM535 205q24 32 38 70t14 80h-451l-29 63h-107v-63h68l31 -63q26 -57 34 -73q-26 -14 -41 -39t-15 -56q1 -45 31.5 -76.5t77.5 -31.5q40 0 70 26t35 67h66q5 -41 35 -67t72 -26q45 0 76 31.5t31 76.5q-1 50 -36 81zM186 77
q-21 2 -34 15t-13 32.5t13 32.5t32.5 13t32.5 -13t13 -32.5t-13 -32.5t-31 -15zM464 77q-20 2 -33.5 15t-13.5 32.5t13.5 32.5t33 13t32.5 -13t13 -32.5t-13 -32.5t-32 -15z" />
    <glyph glyph-name="beaker" unicode="&#x6a9;" arabic-form="isolated" 
d="M0 618h587v-65q-28 0 -46 -18.5t-20 -45.5v-392q0 -27 -18 -46t-46 -19h-327q-28 0 -46 19t-18 46v392q-2 27 -20 45.5t-46 18.5v65zM130 553v-64h164v-34h-164v-32h98v-32h-98v-34h98v-32h-98v-32h164v-34h-164v-32h98v-32h-98v-98h327v456h-327z" />
    <glyph glyph-name="bomb" unicode="&#x6a9;" arabic-form="final" 
d="M193 495q1 42 29.5 71t71 29t71 -29t29.5 -71q0 -10 6.5 -16.5t17 -6.5t17 6.5t6.5 16.5v23h46v-23q-1 -29 -21 -48.5t-49.5 -19.5t-49 19.5t-19.5 48.5q-2 23 -17 38.5t-38 15.5t-38.5 -15.5t-15.5 -38.5h39v-40q68 -21 110 -76.5t44 -131.5q-2 -91 -62.5 -152
t-153.5 -63q-93 2 -154 63t-62 152q1 76 43.5 131.5t110.5 76.5v40h39zM525 495h62v-30h-62v30zM432 558v60h32v-60h-32zM491 546l44 44l23 -22l-45 -45z" />
    <glyph glyph-name="calendar-question" unicode="&#x6a9;" arabic-form="initial" 
d="M98 651v-65h-32q-29 0 -47.5 -19.5t-18.5 -46.5v-456q0 -27 19 -46t47 -19h455q28 0 47 19t19 46v456q0 27 -19 46.5t-47 19.5h-32v65h-66v-65h-259v65h-66zM66 422h455v-358h-455v358zM300 390q-43 0 -69 -19t-25 -57v-2h63q0 15 9 23t23 8t23 -10t9 -25.5t-7.5 -26
t-19.5 -18.5q-26 -17 -35.5 -30.5t-9.5 -38.5h65q0 16 4.5 25t16.5 17q21 10 35.5 29t14.5 44q0 37 -26 59t-71 22zM261 162v-66h65v66h-65z" />
    <glyph glyph-name="camera-burst" unicode="&#x6a9;" arabic-form="medial" 
d="M0 511h54v-372h-54v372zM107 511h53v-372h-53v372zM560 511h-320q-11 0 -18.5 -7.5t-7.5 -18.5v-320q0 -11 7.5 -18.5t18.5 -7.5h320q11 0 18.5 7.5t8.5 18.5v320q-1 11 -8.5 18.5t-18.5 7.5zM267 191l66 85l48 -57l67 85l85 -113h-266z" />
    <glyph glyph-name="code-tags-check" unicode="&#x6af;" arabic-form="isolated" 
d="M128 592l-128 -129l128 -128l40 39l-89 89l89 89zM291 592l-39 -40l89 -89l-89 -89l39 -39l128 128zM548 364l-227 -227l-102 103l-39 -39l141 -143l266 266z" />
    <glyph glyph-name="coins" unicode="&#x6af;" arabic-form="final" 
d="M373 539q91 -2 151 -62.5t63 -151.5q-3 -91 -63 -151.5t-151 -62.5q-91 2 -151.5 62.5t-62.5 151.5q2 91 62.5 151.5t151.5 62.5zM373 165q68 1 113.5 46.5t46.5 113.5q-1 68 -46.5 113.5t-113.5 46.5q-68 -1 -113.5 -46.5t-46.5 -113.5q1 -68 46.5 -113.5t113.5 -46.5z
M53 325q1 -53 29.5 -93.5t76.5 -57.5v-56q-70 19 -114.5 75t-44.5 132t44.5 132t114.5 75v-56q-48 -17 -76.5 -57.5t-29.5 -93.5z" />
    <glyph glyph-name="crop-rotate" unicode="&#x6af;" arabic-form="initial" 
d="M182 92q-60 30 -99 84.5t-46 124.5h-37q11 -116 92.5 -191.5t199.5 -77.5q8 0 16 1l-92 93zM295 618q-8 0 -16 -1l92 -93l34 34q60 -30 99 -84.5t46 -124.5h37q-11 116 -92.5 191.5t-199.5 77.5zM391 276h49v146q0 22 -14 36t-35 14h-147v-50h147v-146zM196 228v293h-49
v-49h-50v-50h50v-194q0 -21 14 -35.5t35 -14.5h195v-49h49v49h50v50h-294z" />
    <glyph glyph-name="developer-board" unicode="&#x6af;" arabic-form="medial" 
d="M587 413v59h-58v58q-1 25 -17.5 42.5t-41.5 17.5h-412q-25 0 -41.5 -17.5t-16.5 -42.5v-410q0 -25 16.5 -42.5t41.5 -17.5h412q25 0 41.5 17.5t17.5 42.5v58h58v59h-58v59h58v58h-58v59h58zM470 120h-412v410h412v-410zM117 296h148v-118h-148v118zM294 472h117v-88h-117
v88zM117 472h148v-147h-148v147zM294 354h117v-176h-117v176z" />
    <glyph glyph-name="do-not-disturb" unicode="&#x6b3;" arabic-form="isolated" 
d="M294 618q-126 -2 -208.5 -85t-85.5 -208q3 -125 85.5 -208t208.5 -85q125 2 207.5 85t85.5 208q-3 125 -85.5 208t-207.5 85zM441 296h-295v58h295v-58z" />
    <glyph glyph-name="do-not-disturb-off" unicode="&#x6b3;" arabic-form="final" 
d="M448 367v-55h-41l130 -131q24 34 37 74t13 84q-3 120 -81.5 198.5t-197.5 80.5q-45 0 -85 -13t-74 -36l202 -202h97zM35 612l-35 -37l79 -77q-24 -34 -37 -74t-13 -85q2 -119 81 -197.5t198 -81.5q44 0 84 13.5t74 36.5l78 -78l36 35zM168 312v55h40l57 -55h-97z" />
    <glyph glyph-name="douban" unicode="&#x6b3;" arabic-form="initial" 
d="M587 545h-587v73h587v-73zM587 105v-73h-587v73h122l-38 146h-46v220h511v-220h-46l-38 -146h122zM110 325h367v74h-367v-74zM199 105h189l39 146h-267z" />
    <glyph glyph-name="emoticon-dead" unicode="&#x6b3;" arabic-form="medial" 
d="M294 618q-126 -2 -208.5 -85t-85.5 -208q3 -125 85.5 -208t208.5 -85q125 2 207.5 85t85.5 208q-3 125 -86 208t-207 85zM294 89q-101 3 -167 69t-69 167q3 101 69 167t167 69q100 -3 166 -69t69 -167q-3 -101 -69 -167t-166 -69zM416 449l-30 -30l-32 30l-32 -30l32 -32
l-32 -30l32 -32l32 32l30 -32l32 32l-32 30l32 32zM171 325l30 32l32 -32l32 32l-32 30l32 32l-32 30l-32 -30l-30 30l-32 -30l32 -32l-32 -30zM294 266q-53 0 -93 -28.5t-58 -73.5h301q-18 45 -58 73.5t-92 28.5z" />
    <glyph glyph-name="emoticon-excited" unicode="&#x6b1;" arabic-form="isolated" 
d="M294 618q-126 -2 -208.5 -85t-85.5 -208q3 -125 85.5 -208t208.5 -85q125 2 207.5 85t85.5 208q-3 125 -86 208t-207 85zM294 89q-101 3 -167 69t-69 167q3 101 69 167t167 69q100 -3 166 -69t69 -167q-3 -101 -69 -167t-166 -69zM322 386l32 -32l32 32l30 -32l32 32
l-62 62zM201 386l32 -32l32 32l-64 62l-62 -62l32 -32zM294 164q52 0 92 28t58 74h-301q18 -46 58 -74t93 -28z" />
    <glyph glyph-name="folder-star" unicode="&#x6b1;" arabic-form="final" 
d="M529 501h-235l-60 60h-176q-25 -2 -41.5 -18.5t-16.5 -41.5v-352q0 -25 16.5 -41.5t41.5 -18.5h471q25 2 41.5 18.5t16.5 41.5v293q0 25 -16.5 42t-41.5 17zM468 178l-86 51l-87 -51l23 97l-75 67l99 8l40 92l40 -92l99 -8l-76 -67z" />
    <glyph glyph-name="format-color-text" unicode="&#x6b1;" arabic-form="initial" 
d="M186 235l108 285l107 -285h-215zM249 641l-249 -632h101l51 135h283l51 -135h101l-249 632h-89z" />
    <glyph glyph-name="format-section" unicode="&#x6b1;" arabic-form="medial" 
d="M480 714q-74 44 -163 44q-62 0 -102 -28t-42 -76q2 -50 48 -79t122 -53q99 -29 161.5 -77t64.5 -139q-2 -51 -26 -94t-65 -72q51 -51 51 -120q-5 -108 -83 -157.5t-179 -49.5q-113 -2 -212 58l34 77q81 -56 180 -56q67 0 109 29t45 84q2 46 -36.5 78.5t-131.5 63.5
q-109 36 -172.5 84t-65.5 135q2 50 29.5 93.5t71.5 67.5q-49 46 -51 115q2 92 73 143.5t179 51.5q101 0 190 -46zM259 253q82 -26 157 -67q52 41 52 105q0 39 -28.5 72.5t-96.5 57.5q-84 29 -168 70q-29 -17 -45.5 -46t-16.5 -65t33.5 -68.5t112.5 -58.5z" />
    <glyph glyph-name="gradient" unicode="&#x6ba;" arabic-form="isolated" 
d="M261 423h65v-66h-65v66zM196 357h65v-64h-65v64zM326 357h65v-64h-65v64zM391 423h66v-66h-66v66zM130 423h66v-66h-66v66zM521 618h-455q-28 0 -47 -19t-19 -46v-456q0 -27 19 -46t47 -19h455q28 0 47 19t19 46v456q0 27 -19 46t-47 19zM196 129h-66v66h66v-66zM326 129
h-65v66h65v-66zM457 129h-66v66h66v-66zM521 357h-64v-64h64v-66h-64v66h-66v-66h-65v66h-65v-66h-65v66h-66v-66h-64v66h64v64h-64v196h455v-196z" />
    <glyph glyph-name="home-outline" unicode="&#x6ba;" arabic-form="final" 
d="M204 105v178h179v-178h89v239l-178 178l-179 -178v-239h89zM294 605l293 -293h-56v-267h-208v178h-59v-178h-208v267h-56z" />
    <glyph glyph-name="message-bulleted" unicode="&#x6bb;" arabic-form="isolated" 
d="M529 618h-471q-25 0 -41.5 -16.5t-16.5 -40.5v-529l117 117h412q25 0 41.5 17t16.5 42v353q0 24 -16.5 40.5t-41.5 16.5zM176 266h-59v59h59v-59zM176 354h-59v59h59v-59zM176 442h-59v59h59v-59zM382 266h-148v59h148v-59zM470 354h-236v59h236v-59zM470 442h-236v59
h236v-59z" />
    <glyph glyph-name="message-bulleted-off" unicode="&#x6bb;" arabic-form="final" 
d="M34 618l-34 -33l54 -54v-453l106 106h241l152 -152l34 33zM214 291h-54v53h54v-53zM160 371v54l54 -54h-54zM534 611h-425l158 -158v52h214v-54h-212l26 -26h186v-54h-132l187 -187q22 1 36.5 16t14.5 38v320q0 23 -15 38t-38 15z" />
    <glyph glyph-name="nuke" unicode="&#x6bb;" arabic-form="initial" 
d="M354 325h-120v29h-132q-43 1 -72.5 30t-29.5 73t29.5 73t72.5 31q47 -2 77 -35q10 42 41 67t73.5 25t73.5 -25t41 -67q30 33 77 35q43 -2 72.5 -31t29.5 -73t-29.5 -73t-72.5 -30h-131v-29zM234 180v35h-146v58h411v-58h-145v-35l175 -63q13 -6 21 -17t8 -24
q0 -20 -12.5 -32t-31.5 -12h-441q-19 0 -31.5 12t-12.5 32q0 13 8 24t21 17z" />
    <glyph glyph-name="power-plug" unicode="&#x6bb;" arabic-form="medial" 
d="M488 570v195h-96v-195h-197v195h-96v-195q-39 -2 -68 -30.5t-31 -67.5v-269l172 -171v-147h243v147l172 171v269q-2 39 -31 67.5t-68 30.5z" />
    <glyph glyph-name="power-plug-off" unicode="&#x6c0;" arabic-form="isolated" 
d="M196 636v-104q150 -150 301 -297q4 6 12.5 12.5t13.5 16.5v182q-2 28 -24 42.5t-42 21.5v126h-65v-130h-131v130h-65zM41 604q-21 -22 -41 -41l130 -132v-170l115 -115v-98h163v98q6 4 11.5 -3.5t11.5 -10.5l113 -118q25 21 43 43q-276 273 -546 545v2z" />
    <glyph glyph-name="publish" unicode="&#x6c0;" arabic-form="final" 
d="M0 662v-85h587v85h-587zM0 240h167v-252h253v252h167l-293 296z" />
    <glyph glyph-name="restore" unicode="&#x6c1;" arabic-form="isolated" 
d="M335 577q-106 -3 -177.5 -74t-73.5 -178h-84l109 -109l2 -4l113 113h-84q3 84 58 139t137 56q84 -1 139 -56t58 -139q-3 -84 -58 -139t-139 -56q-40 0 -75.5 15t-61.5 42l-39 -40q34 -34 79 -54t97 -20q108 3 178.5 74t73.5 178q-3 107 -73.5 178t-178.5 74zM308 436
v-139l119 -72l21 34l-98 59v118h-42z" />
    <glyph glyph-name="robot" unicode="&#x6c1;" arabic-form="final" 
d="M294 591q22 0 37 -15t16 -37q0 -15 -7.5 -27.5t-19.5 -19.5v-33h27q79 -3 131.5 -55.5t54.5 -132.5h27q11 0 18.5 -7.5t8.5 -18.5v-80q-1 -11 -8.5 -18.5t-18.5 -7.5h-27v-28q0 -22 -15.5 -37t-37.5 -15h-373q-22 0 -37.5 15t-15.5 37v28h-27q-11 0 -18.5 7.5t-8.5 18.5
v80q1 11 8.5 18.5t18.5 7.5h27q2 80 54.5 132.5t131.5 55.5h27v33q-12 7 -19.5 19.5t-7.5 27.5q1 22 16 37t38 15zM174 299q-29 -1 -48 -20t-19 -47t19 -47t47.5 -19t47.5 19t19 47t-19 47t-47 20zM413 299q-28 -1 -47 -20t-19 -47t19 -47t47.5 -19t47.5 19t19 47t-19 47
t-48 20z" />
    <glyph glyph-name="format-rotate-90" unicode="&#x6c1;" arabic-form="initial" 
d="M181 462l-181 -179l181 -180l180 180zM79 283l102 101l101 -101l-101 -102zM514 456q-36 38 -81.5 56t-95.5 18v90l-117 -119l117 -117v90q38 0 73.5 -14.5t64.5 -42.5q57 -60 57 -137.5t-57 -137.5q-29 -29 -64.5 -43t-73.5 -14q-40 0 -78 17l-42 -41q56 -31 120 -31
q50 0 95.5 18.5t81.5 54.5q73 77 73 176.5t-73 176.5z" />
    <glyph glyph-name="scanner" unicode="&#x6c1;" arabic-form="medial" 
d="M547 385l-507 185l-23 -62l458 -166h-409q-28 0 -47 -19t-19 -47v-130q0 -27 19 -45.5t47 -20.5h455q28 2 47 20.5t19 45.5v179q0 21 -10.5 37.5t-29.5 22.5zM130 178h-64v66h64v-66zM521 178h-325v66h325v-66z" />
    <glyph glyph-name="subway" unicode="&#x6be;" arabic-form="isolated" 
d="M190 236q13 0 21 -8t8 -20.5t-8 -21t-20.5 -8.5t-21 8.5t-8.5 21t8.5 20.5t20.5 8zM146 412h295v-147h-295v147zM397 236q12 0 20.5 -8t8.5 -20.5t-8.5 -21t-21 -8.5t-20.5 8.5t-8 21t8 20.5t21 8zM470 210v202q-2 57 -52 73.5t-124 15.5q-69 1 -121.5 -15.5t-55.5 -73.5
v-202q2 -33 23 -54.5t54 -22.5l-33 -33v-11h50l44 44h83l44 -44h44v11l-33 33q33 1 54 22.5t23 54.5zM464 594q60 -23 91.5 -69t31.5 -108v-386h-587v386q0 62 31.5 108t91.5 69q40 16 84.5 20.5t86 4.5t86 -4.5t84.5 -20.5z" />
    <glyph glyph-name="timer-sand-empty" unicode="&#x6be;" arabic-form="final" 
d="M0 813v-293l195 -195l-195 -195v-293h587v293l-195 195l195 195v293h-587zM488 105v-172h-389v172l195 195zM294 350l-195 195v172h389v-172z" />
    <glyph glyph-name="transit-transfer" unicode="&#x6be;" arabic-form="initial" 
d="M426 229h161v-44h-161v-51l-73 73l73 75v-53zM514 105v51l73 -73l-73 -74v52h-161v44h161zM220 524q-24 0 -41.5 16.5t-17.5 41.5t17.5 42t42 17t41 -17t16.5 -42t-16.5 -41.5t-41.5 -16.5zM110 424l-52 -23v-97h-58v137l154 64q11 4 22 4q32 -1 50 -28l28 -46
q20 -34 53 -53t75 -20v-58q-49 0 -90 20t-70 55l-18 -88l61 -60v-222h-60v176l-63 59l-51 -235h-62z" />
    <glyph glyph-name="unity" unicode="&#x6be;" arabic-form="medial" 
d="M252 157h-87l-165 168l165 168h87l44 76l228 58l63 -226l-44 -76l44 -76l-63 -226l-228 58zM257 166l173 -47l-100 173h-199zM488 153l45 172l-45 172l-99 -172zM257 484l-126 -126h199l100 173z" />
    <glyph glyph-name="update" unicode="&#x6d2;" arabic-form="isolated" 
d="M587 386h-222l91 92q-71 67 -162 68t-161 -65q-67 -69 -67 -159t67 -161q70 -65 161 -65t162 65q65 66 65 161h66q0 -51 -21.5 -106.5t-64.5 -98.5q-90 -85 -207.5 -85t-207.5 85q-86 89 -86 205t86 205q90 85 206 85t206 -85l89 91v-232zM310 455v-138l113 -68l-22 -40
l-140 84v162h49z" />
    <glyph glyph-name="watch-vibrate" unicode="&#x6d2;" arabic-form="final" 
d="M73 202v245h50v-245h-50zM464 202v245h50v-245h-50zM538 398h49v-147h-49v147zM0 251v147h49v-147h-49zM439 326q0 -36 -15 -66t-40 -50l-18 -105h-146l-18 105q-25 20 -40 50t-15 65t15 65t40 50l18 105h146l18 -105q25 -20 40 -50t15 -64zM183 326q2 -47 32.5 -78
t77 -31t77.5 31t31 77t-31 77t-77.5 31t-77 -31t-32.5 -76z" />
    <glyph glyph-name="angular" unicode="&#x6d3;" arabic-form="isolated" 
d="M294 640l293 -105l-45 -387l-248 -138l-249 138l-45 387zM294 570l-184 -411h69l37 93h155l37 -93h67zM348 308h-107l53 129z" />
    <glyph glyph-name="dolby" unicode="&#x6d3;" arabic-form="final" 
d="M0 530v-410h587v410h-587zM117 178h-59v294h59q65 -4 106.5 -45t41.5 -102t-41.5 -102t-106.5 -45zM529 178h-59q-65 4 -106.5 45t-41.5 102t41.5 102t106.5 45h59v-294z" />
    <glyph glyph-name="flash-outline" unicode="&#x6ad;" arabic-form="isolated" 
d="M36 837h514l-180 -358h180l-360 -666v409h-154v615zM139 736v-411h154v-137l103 187h-194l182 361h-245z" />
    <glyph glyph-name="format-font" unicode="&#x6ad;" arabic-form="final" 
d="M457 455h98v-391h32v-32h-130v32h32v97h-130l-49 -97h49v-32h-131v32h33zM489 423l-114 -228h114v228zM66 618h162q29 0 47.5 -18t18.5 -47v-358h-98v162h-98v-162h-98v358q0 29 18.5 47t47.5 18zM98 553v-130h98v130h-98z" />
    <glyph glyph-name="format-page-break" unicode="&#x6ad;" arabic-form="initial" 
d="M130 357h66v-64h-66v64zM261 357h65v-64h-65v64zM521 161h-130v192l196 -196v-158h-587v294h66v-229h455v97zM0 651h587v-294h-66v229h-455v-229h-66v294z" />
    <glyph glyph-name="format-pilcrow" unicode="&#x6ad;" arabic-form="medial" 
d="M193 373q-83 3 -138 58t-55 139t55 139.5t138 57.5h394v-99h-99v-785h-97v785h-99v-785h-99v490z" />
    <glyph glyph-name="garage" unicode="&#x6c7;" arabic-form="isolated" 
d="M587 10h-83v378h-421v-378h-83v463l294 167l293 -167v-463zM126 347h335v-85h-335v85zM126 221h335v-85h-335v85zM461 95v-85h-335v85h335z" />
    <glyph glyph-name="garage-open" unicode="&#x6c7;" arabic-form="final" 
d="M587 10h-83v378h-421v-378h-83v463l294 167l293 -167v-463zM126 347h335v-85h-335v85z" />
    <glyph glyph-name="github-face" unicode="&#x6c6;" arabic-form="isolated" 
d="M540 442q4 9 8.5 41.5t-13.5 79.5q0 3 -30.5 -1.5t-96.5 -45.5q-55 12 -114 11q-60 1 -115 -11q-66 43 -96.5 46.5t-30.5 0.5q-18 -47 -13.5 -79.5t8.5 -41.5q-46 -49 -47 -123q1 -139 82 -187.5t212 -45.5q129 -3 210.5 45.5t82.5 187.5q-1 74 -47 123zM294 123
q-94 -4 -156 16.5t-64 106.5q0 43 38 76q30 25 77 22t105 -6q57 3 104 6t77 -22q38 -33 39 -76q-3 -84 -65 -105.5t-155 -17.5zM201 307q-18 0 -31 -19t-13 -46.5t13 -46.5t31.5 -19t31 18.5t12.5 46.5t-12.5 47t-31.5 19zM386 307q-19 0 -31.5 -19t-12.5 -47t12.5 -46.5
t31 -18.5t31.5 18.5t13 46.5t-12.5 47t-31.5 19z" />
    <glyph glyph-name="google-keep" unicode="&#x6c6;" arabic-form="final" 
d="M58 618h471q25 0 41.5 -16.5t16.5 -40.5v-393l-136 -136h-393q-25 0 -41.5 16.5t-16.5 40.5v472q0 24 16.5 40.5t41.5 16.5zM441 178v-96l95 96h-95zM234 120h119v29h29v147q27 19 42.5 50t16.5 67q-1 62 -43 104t-104 44q-63 -2 -105 -44t-43 -104q1 -36 16.5 -67
t42.5 -50v-147h29v-29zM353 178h-119v30h119v-30zM353 237h-119v29h119v-29zM294 530q49 -1 82 -34t35 -83q0 -33 -16 -60t-42 -42v-15h-119v15q-26 15 -42 42t-16 60q2 50 35 83t83 34z" />
    <glyph glyph-name="google-photos" unicode="&#x6c8;" arabic-form="isolated" 
d="M441 325v147l-147 146v-146h-148l-146 -147h146v-147l148 -146v146h147l146 147h-146zM320 299l-26 -77l-27 77l-77 26l77 26l27 79l26 -79l77 -26z" />
    <glyph glyph-name="heart-half-full" unicode="&#x6c8;" arabic-form="final" 
d="M426 535q-35 0 -62.5 -18t-41.5 -47v-308q96 84 151 148t56 123q-1 44 -29.5 73t-73.5 29zM426 594q69 -1 114.5 -46.5t46.5 -114.5q-1 -81 -68.5 -159.5t-182.5 -179.5l-42 -38l-43 38q-115 101 -182.5 179.5t-68.5 159.5q1 69 46.5 114.5t114.5 46.5q39 0 73.5 -16.5
t59.5 -43.5q24 27 58.5 43.5t73.5 16.5z" />
    <glyph glyph-name="heart-half" unicode="&#x677;" arabic-form="isolated" 
d="M587 590v-708l-53 -47l-77 70q-209 183 -331.5 326t-125.5 291q3 125 85.5 208t208.5 85q105 -2 196.5 -67.5t96.5 -157.5z" />
    <glyph glyph-name="heart-half-outline" unicode="&#x6cb;" arabic-form="isolated" 
d="M105 522q3 -108 103.5 -224.5t273.5 -269.5v562q-25 52 -75.5 85t-112.5 33q-83 0 -134.5 -53t-54.5 -133zM587 590v-708l-53 -47l-77 70q-209 183 -331.5 326t-125.5 291q3 125 85.5 208t208.5 85q105 -2 196.5 -67.5t96.5 -157.5z" />
    <glyph glyph-name="hexagon-multiple" unicode="&#x6cb;" arabic-form="final" 
d="M221 629q9 0 13 -7l67 -121l3 -9l-3 -8l-67 -120q-4 -8 -13 -9h-137q-10 1 -14 9l-67 120l-3 8l3 9l67 121q4 7 14 7h137zM221 295q9 -1 13 -9l67 -120l3 -8l-3 -9l-67 -121q-4 -7 -13 -7h-137q-10 0 -14 7l-67 121l-3 9l3 8l67 120q4 8 14 9h137zM503 462q8 0 13 -8
l68 -120l3 -9l-3 -9l-68 -120q-5 -8 -13 -8h-137q-9 0 -13 8l-69 120l-3 9l3 9l69 120q4 8 13 8h137z" />
    <glyph glyph-name="hook" unicode="&#x6c5;" arabic-form="isolated" 
d="M587 597q0 -63 -37 -111t-99 -62v-325q-2 -95 -65.5 -158.5t-160.5 -65.5q-96 2 -159.5 65.5t-65.5 158.5v227l225 -227h-136q2 -57 40 -95t96.5 -38t96.5 38t38 95v325q-59 16 -96 64t-39 111q2 77 54 126.5t128 49.5t127 -50.5t53 -127.5zM407 506q38 2 63.5 27.5
t25.5 63.5t-25.5 63.5t-63.5 25.5t-64.5 -25.5t-26.5 -63.5t26.5 -63.5t64.5 -27.5z" />
    <glyph glyph-name="hook-off" unicode="&#x6c5;" arabic-form="final" 
d="M358 395v-44l65 -64v108q54 16 80.5 60t12 97.5t-58.5 80.5t-98.5 13t-80.5 -59t-14 -98q10 -36 35 -60.5t59 -33.5zM391 586q28 -1 46.5 -19.5t18.5 -46t-18.5 -46t-46 -18.5t-46.5 18.5t-19 46t19 46t46 19.5zM546 -1l-127 126q-18 -66 -74 -100.5t-123 -19.5
q-55 14 -89.5 57t-34.5 99v164l162 -164h-98q2 -41 29.5 -68.5t69.5 -27.5t69.5 27.5t27.5 68.5v25l-358 359l41 41l546 -545z" />
    <glyph glyph-name="infinity" unicode="&#x6c9;" arabic-form="isolated" 
d="M455 457q56 -1 93.5 -38.5t38.5 -93.5q-1 -56 -38.5 -93t-93.5 -39q-55 1 -94 39l-67 60l-69 -61q-19 -18 -43 -28t-50 -10q-56 1 -93.5 38.5t-38.5 93.5q1 56 38.5 93.5t93.5 38.5q55 -1 94 -39l68 -60l68 61q19 18 43 28t50 10zM190 267l67 58l-66 57q-25 26 -60 25
t-58.5 -23.5t-23.5 -58.5t23.5 -58.5t58.5 -23.5t59 24zM397 383l-67 -58l66 -57q25 -26 60 -25t58.5 23.5t23.5 58.5t-23.5 58.5t-58.5 23.5t-59 -24z" />
    <glyph glyph-name="language-swift" unicode="&#x6c9;" arabic-form="final" 
d="M444 98q-54 -31 -121.5 -32t-139.5 29q-59 25 -106 65.5t-77 91.5q29 -25 67 -41q75 -35 144.5 -34t123.5 34q-75 57 -137 125.5t-110 130.5q-18 20 -33 44q181 -139 188.5 -146.5t-116.5 175.5q111 -109 191.5 -167.5t85.5 -59.5l11 -6q4 11 7 22q16 63 -0.5 130.5
t-60.5 128.5q102 -63 152 -162.5t27 -197.5q-1 -4 -1 -11q46 -66 47.5 -114t-7.5 -40q-29 50 -69 49t-66 -14z" />
    <glyph glyph-name="language-typescript" unicode="&#x6d0;" arabic-form="isolated" 
d="M0 618h587v-586h-587v586zM349 134q12 -25 37 -41t65 -16t65 20t25 57q0 33 -19 53t-54 34l-14 6q-17 8 -25.5 14.5t-8.5 19.5q2 21 25.5 22.5t37.5 -22.5l41 27q-26 46 -78 45q-36 -2 -57.5 -22t-21.5 -52.5t17.5 -51t48.5 -30.5l13 -7q19 -7 29.5 -14.5t10.5 -20.5
t-10 -21t-29 -8t-31 9.5t-22 24.5zM326 349h-162v-48h48v-237h57v237h57v48z" />
    <glyph glyph-name="laptop-off" unicode="&#x6d0;" arabic-form="final" 
d="M24 526l32 31l434 -433l-31 -31l-50 48h-409v49h97q-20 0 -34 14.5t-14 35.5v244q0 8 3 15zM97 240h215l-215 213v-213zM490 240v244h-299l-49 49h348q20 -1 34 -15t14 -34v-244q0 -21 -14 -35.5t-34 -14.5h97v-49h-54l-97 99h54z" />
    <glyph glyph-name="lightbulb-on" unicode="&#x6d0;" arabic-form="initial" 
d="M294 485q67 -1 112.5 -47t46.5 -113q0 -45 -21.5 -81t-58.5 -58v-47q0 -11 -7.5 -18.5t-18.5 -9.5h-107q-11 2 -18.5 9.5t-7.5 18.5v47q-37 22 -58.5 58t-21.5 81q1 67 46.5 113t113.5 47zM347 85v-26q-1 -11 -8.5 -18.5t-18.5 -8.5h-53q-11 1 -18.5 8.5t-8.5 18.5v26
h107zM507 351h80v-52h-80v52zM0 351h80v-52h-80v52zM320 618v-79h-53v79h53zM105 551l56 -56l-37 -38l-57 57zM426 495l56 56l38 -37l-57 -57z" />
    <glyph glyph-name="lightbulb-on-outline" unicode="&#x6d0;" arabic-form="medial" 
d="M507 351h80v-52h-80v52zM0 351h80v-52h-80v52zM320 618v-79h-53v79h53zM105 551l56 -56l-37 -38l-57 57zM426 495l56 56l38 -37l-57 -57zM294 485q67 -1 112.5 -47t46.5 -113q0 -45 -21.5 -81t-58.5 -58v-47q0 -11 -7.5 -18.5t-18.5 -9.5h-107q-11 2 -18.5 9.5t-7.5 18.5
v47q-37 22 -58.5 58t-21.5 81q1 67 46.5 113t113.5 47zM347 85v-26q-1 -11 -8.5 -18.5t-18.5 -8.5h-53q-11 1 -18.5 8.5t-8.5 18.5v26h107zM267 165h53v56q36 10 58 38.5t22 65.5q-2 45 -32 75t-74.5 30t-74.5 -30t-32 -75q0 -37 22 -65.5t58 -38.5v-56z" />
    <glyph glyph-name="lock-pattern" unicode="&#x649;" arabic-form="initial" 
d="M130 618q57 -1 94 -38t38 -92q-1 -47 -28 -81t-70 -46v-74q18 -4 34 -13l147 147q-17 30 -19 67q2 55 39 92t92.5 37t92.5 -37t37 -92.5t-37 -92.5t-92 -39q-37 2 -66 19l-148 -149q17 -29 18 -66q-1 -55 -38 -91.5t-93 -36.5t-92.5 36.5t-38.5 91.5q2 48 28.5 81.5
t69.5 45.5v74q-43 12 -69.5 46t-28.5 81q2 55 38.5 92t91.5 38zM458 292q55 -1 92 -38t37 -93t-37 -92.5t-92.5 -36.5t-92.5 36.5t-37 92.5t37 93t93 38zM458 226q-27 0 -46.5 -19t-19.5 -46.5t19.5 -46t47 -18.5t46 18.5t18.5 46t-18.5 46.5t-46.5 19z" />
    <glyph glyph-name="loop" unicode="&#x649;" arabic-form="medial" 
d="M205 280v-205h-205v59h105q-36 37 -56 86t-20 104q3 120 82 198.5t198 81.5q118 -3 196.5 -81.5t81.5 -198.5q-3 -118 -81.5 -196.5t-196.5 -81.5h-15v58h15q93 3 155 65t65 155q-3 94 -65 156.5t-155 64.5q-94 -2 -156.5 -64.5t-64.5 -156.5q0 -42 15.5 -81t42.5 -68
v105h59z" />
    <glyph glyph-name="magnify-minus-outline" unicode="&#xfbea;" arabic-form="isolated" 
d="M420 249h-27l-9 9q25 28 38.5 64.5t13.5 77.5q-2 93 -63 155t-154 63q-93 -1 -155 -63t-64 -155q2 -93 64 -154.5t155 -62.5q41 0 77 13t64 39l10 -10v-27l167 -166l50 50zM219 249q-65 1 -107.5 43.5t-42.5 107t42.5 107t107 42.5t107 -42.5t42.5 -107t-42.5 -107
t-106.5 -43.5zM134 417h168v-33h-168v33z" />
    <glyph glyph-name="magnify-plus-outline" unicode="&#xfbeb;" arabic-form="final" 
d="M420 249l167 -167l-50 -50l-167 166v27l-10 10q-28 -26 -64 -39t-77 -13q-93 1 -155 62.5t-64 154.5q2 93 64 155t155 63q93 -1 154 -63t63 -155q0 -41 -13.5 -77.5t-38.5 -64.5l9 -9h27zM219 249q64 1 106.5 43.5t42.5 107t-42.5 107t-107 42.5t-107 -42.5t-42.5 -107
t42.5 -107t107.5 -43.5zM302 384h-68v-68h-33v68h-67v33h67v68h33v-68h68v-33z" />
    <glyph glyph-name="mailbox" unicode="&#xfbec;" arabic-form="isolated" 
d="M529 472h-295v-177h-58v236h177v117h-236v-176h-59q-25 0 -41.5 -17.5t-16.5 -42.5v-352q0 -25 16.5 -41.5t41.5 -16.5h471q25 0 41.5 16.5t16.5 41.5v352q0 25 -16.5 42.5t-41.5 17.5z" />
    <glyph glyph-name="medical-bag" unicode="&#xfbed;" arabic-form="final" 
d="M234 589l-57 -59v-58h-89q-26 -1 -41 -18.5t-18 -40.5l-29 -293q-2 -23 12.5 -40.5t45.5 -18.5h471q31 1 45.5 18.5t12.5 40.5l-29 293q-3 23 -19 40.5t-40 18.5h-89v58l-57 59h-119zM234 530h119v-58h-119v58zM265 384h57v-88h88v-59h-88v-88h-57v88h-88v59h88v88z" />
    <glyph glyph-name="message-settings" unicode="&#xfbee;" arabic-form="isolated" 
d="M529 648h-471q-25 0 -41.5 -16.5t-16.5 -41.5v-529l117 117h412q25 0 41.5 17.5t16.5 42.5v352q0 25 -16.5 41.5t-41.5 16.5zM265 2h57v59h-57v-59zM146 2h59v59h-59v-59zM382 2h59v59h-59v-59z" />
    <glyph glyph-name="message-settings-variant" unicode="&#xfbef;" arabic-form="final" 
d="M338 384q0 -19 -12.5 -31.5t-32 -12.5t-32 12.5t-12.5 31t12.5 31t32 12.5t32 -12.5t12.5 -30.5zM587 561v-353q0 -25 -16.5 -42t-41.5 -17h-412l-117 -117v529q0 24 16.5 40.5t41.5 16.5h471q25 0 41.5 -16.5t16.5 -40.5zM434 346l-32 23q0 7 1 14.5t-1 14.5l32 25
q4 4 1 9l-30 51q-3 6 -8 3l-37 -14q-11 9 -25 14l-6 39q-1 5 -7 5h-57q-7 0 -9 -5l-5 -39q-13 -5 -25 -14l-37 14q-6 3 -8 -3l-29 -51q-3 -5 1 -9l30 -25q-1 -14 0 -29l-30 -23q-4 -4 -1 -10l29 -51q2 -5 8 -4l37 15q11 -10 25 -15l5 -39q2 -5 9 -5h57q7 0 9 5l5 40
q13 6 25 14l36 -15q7 -1 9 4l29 51q3 6 -1 10z" />
    <glyph glyph-name="minus-box-outline" unicode="&#xfbf0;" arabic-form="isolated" 
d="M521 97v456h-455v-456h455zM521 618q28 0 47 -19t19 -46v-456q0 -27 -19 -46t-47 -19h-455q-28 0 -47 19t-19 46v456q0 29 19 47t47 18h455zM457 357v-64h-327v64h327z" />
    <glyph glyph-name="network" unicode="&#xfbf1;" arabic-form="final" 
d="M441 619q25 0 41.5 -17t16.5 -42v-294q0 -24 -16.5 -40.5t-41.5 -18.5h-119v-58h31q12 -1 20.5 -9.5t8.5 -20.5h205v-58h-205q0 -12 -8.5 -20.5t-20.5 -9.5h-119q-12 1 -20.5 9.5t-8.5 20.5h-205v58h205q0 12 8.5 20.5t20.5 9.5h31v58h-119q-25 2 -41.5 18.5t-16.5 40.5
v294q0 25 16.5 42t41.5 17h295z" />
    <glyph glyph-name="download-network" unicode="&#xfbf2;" arabic-form="isolated" 
d="M441 619q25 0 41.5 -17t16.5 -42v-294q0 -24 -16.5 -40.5t-41.5 -18.5h-119v-58h31q12 -1 20.5 -9.5t8.5 -20.5h205v-58h-205q0 -12 -8.5 -20.5t-20.5 -9.5h-119q-12 1 -20.5 9.5t-8.5 20.5h-205v58h205q0 12 8.5 20.5t20.5 9.5h31v58h-119q-25 2 -41.5 18.5t-16.5 40.5
v294q0 25 16.5 42t41.5 17h295zM294 282l132 132h-104v117h-57v-117h-104z" />
    <glyph glyph-name="help-network" unicode="&#xfbf3;" arabic-form="final" 
d="M441 619q25 0 41.5 -17t16.5 -42v-294q0 -24 -16.5 -40.5t-41.5 -18.5h-119v-58h31q12 -1 20.5 -9.5t8.5 -20.5h205v-58h-205q0 -12 -8.5 -20.5t-20.5 -9.5h-119q-12 1 -20.5 9.5t-8.5 20.5h-205v58h205q0 12 8.5 20.5t20.5 9.5h31v58h-119q-25 2 -41.5 18.5t-16.5 40.5
v294q0 25 16.5 42t41.5 17h295zM299 560q-39 0 -62 -17.5t-22 -51.5v-1h56q0 13 8.5 20t21 7t20.5 -8t8 -22t-6.5 -24.5t-17.5 -16.5q-24 -16 -32 -27.5t-8 -34.5h57q0 13 4.5 21.5t15.5 15.5q19 11 32 27.5t13 38.5q0 33 -23.5 53t-64.5 20zM265 355v-60h57v60h-57z" />
    <glyph glyph-name="upload-network" unicode="&#xfbf4;" arabic-form="isolated" 
d="M441 619q25 0 41.5 -17t16.5 -42v-294q0 -24 -16.5 -40.5t-41.5 -18.5h-119v-58h31q12 -1 20.5 -9.5t8.5 -20.5h205v-58h-205q0 -12 -8.5 -20.5t-20.5 -9.5h-119q-12 1 -20.5 9.5t-8.5 20.5h-205v58h205q0 12 8.5 20.5t20.5 9.5h31v58h-119q-25 2 -41.5 18.5t-16.5 40.5
v294q0 25 16.5 42t41.5 17h295zM294 546l-133 -132h104v-119h57v119h104z" />
    <glyph glyph-name="npm" unicode="&#xfbf5;" arabic-form="final" 
d="M32 407v-132h66v98h32v-98h34v132h-132zM196 407v-164h65v32h65v132h-130zM294 373v-64h-33v64h33zM359 407v-132h64v98h34v-98h32v98h32v-98h34v132h-196zM0 439h587v-196h-293v-32h-130v32h-164v196z" />
    <glyph glyph-name="nut" unicode="&#xfbf6;" arabic-form="isolated" 
d="M587 178q-2 -20 -17 -29l-258 -143q-8 -7 -18.5 -7t-18.5 7l-258 143q-15 9 -17 29v294q2 20 17 29l258 143q8 7 18.5 7t18.5 -7l258 -143q15 -9 17 -29v-294zM294 489q-69 -2 -116 -48.5t-48 -115.5q1 -69 48 -115.5t116 -48.5q68 2 115 48.5t48 115.5q-1 69 -48 115.5
t-115 48.5z" />
    <glyph glyph-name="octagram" unicode="&#xfbf7;" arabic-form="final" 
d="M0 203l51 122l-51 122l122 49l49 122l123 -50l122 50l49 -122l122 -49l-51 -122l51 -122l-122 -49l-49 -122l-122 50l-123 -50l-49 122z" />
    <glyph glyph-name="page-layout-body" unicode="&#xfbf8;" arabic-form="initial" 
d="M74 691h439q31 0 51.5 -21t22.5 -52v-586q-2 -31 -22.5 -52t-51.5 -21h-439q-31 0 -51.5 21t-22.5 52v586q2 31 22.5 52t51.5 21zM74 471v-292h439v292h-439z" />
    <glyph glyph-name="page-layout-footer" unicode="&#xfbf9;" arabic-form="isolated" 
d="M74 691h439q31 0 51.5 -21t22.5 -52v-586q-2 -31 -22.5 -52t-51.5 -21h-439q-31 0 -51.5 21t-22.5 52v586q2 31 22.5 52t51.5 21zM74 179v-147h439v147h-439z" />
    <glyph glyph-name="page-layout-header" unicode="&#xfbfa;" arabic-form="final" 
d="M74 691h439q31 0 51.5 -21t22.5 -52v-586q-2 -31 -22.5 -52t-51.5 -21h-439q-31 0 -51.5 21t-22.5 52v586q2 31 22.5 52t51.5 21zM74 618v-147h439v147h-439z" />
    <glyph glyph-name="page-layout-sidebar-left" unicode="&#xfbfb;" arabic-form="initial" 
d="M74 691h439q31 0 51.5 -21t22.5 -52v-586q-2 -31 -22.5 -52t-51.5 -21h-439q-31 0 -51.5 21t-22.5 52v586q2 31 22.5 52t51.5 21zM74 471v-292h146v292h-146z" />
    <glyph glyph-name="page-layout-sidebar-right" unicode="&#x6cc;" arabic-form="isolated" 
d="M74 691h439q31 0 51.5 -21t22.5 -52v-586q-2 -31 -22.5 -52t-51.5 -21h-439q-31 0 -51.5 21t-22.5 52v586q2 31 22.5 52t51.5 21zM367 471v-292h146v292h-146z" />
    <glyph glyph-name="pencil-circle" unicode="&#x6cc;" arabic-form="final" 
d="M294 618q-126 -2 -208.5 -85t-85.5 -208q3 -125 85.5 -208t208.5 -85q125 2 207.5 85t85.5 208q-3 125 -85.5 208t-207.5 85zM384 470q7 0 13 -4l37 -38q10 -12 0 -23l-30 -29l-60 59l29 31q5 4 11 4zM327 419l60 -61l-178 -178h-60v61z" />
    <glyph glyph-name="pentagon" unicode="&#x6cc;" arabic-form="initial" 
d="M294 605l-294 -215l112 -345h363l112 345z" />
    <glyph glyph-name="pentagon-outline" unicode="&#x6cc;" arabic-form="medial" 
d="M294 530l223 -161l-86 -262h-275l-86 262zM294 605l-294 -215l112 -345h361l114 345z" />
    <glyph glyph-name="pillar" unicode="&#xfc00;" arabic-form="isolated" 
d="M98 553h391q14 0 23 -9.5t9 -23t-9 -22.5t-23 -9h-391q-14 0 -23 9t-9 22.5t9 23t23 9.5zM587 651v-65h-587v65h587zM391 455h66v-456h-66v456zM130 455h66v-456h-66v456zM261 455h65v-456h-65v456z" />
    <glyph glyph-name="pistol" unicode="&#xfc01;" arabic-form="isolated" 
d="M162 511h425v-106h-27v-26h-159q-12 -1 -19 -8.5t-7 -18.5v-27q0 -22 -16 -37t-38 -16h-89q-17 0 -24 -15l-65 -129q-7 -14 -23 -15h-90q-8 -5 -26 20t52 139q9 7 27 53t-53 54v132h26l14 27h80zM348 325v27q-1 11 -8.5 18.5t-18.5 8.5h-26q-2 -1 -9.5 -16.5t9.5 -37.5
q-22 0 -37 15.5t-16 38.5q-12 -1 -19.5 -8.5t-7.5 -18.5v-27q0 -11 7.5 -18.5t19.5 -7.5h79q11 0 18.5 7.5t8.5 18.5z" />
    <glyph glyph-name="plus-box-outline" unicode="&#xfc02;" arabic-form="isolated" 
d="M521 97v456h-455v-456h455zM521 618q28 0 47 -19t19 -46v-456q0 -27 -19 -46t-47 -19h-455q-28 0 -47 19t-19 46v456q0 29 19 47t47 18h455zM261 489h65v-132h131v-64h-131v-132h-65v132h-131v64h131v132z" />
    <glyph glyph-name="plus-outline" unicode="&#xfc03;" arabic-form="isolated" 
d="M0 435h184v183h219v-183h184v-220h-184v-183h-219v183h-184v220zM257 289v-184h73v184h183v72h-183v184h-73v-184h-183v-72h183z" />
    <glyph glyph-name="prescription" unicode="&#xfc04;" arabic-form="isolated" 
d="M0 629v-372h75v150h74l200 -202l-132 -132l52 -52l132 132l134 -132l52 52l-134 132l134 134l-52 52l-134 -134l-147 150h7q46 0 77.5 31t31.5 79t-31.5 79t-77.5 33h-261zM75 554h186q15 0 25.5 -10.5t10.5 -26t-10.5 -26t-25.5 -11.5h-186v74z" />
    <glyph glyph-name="printer-settings" unicode="&#xfc05;" arabic-form="isolated" 
d="M470 648v-117h-353v117h353zM499 384q12 1 20.5 9t8.5 20.5t-8.5 21t-21 8.5t-20.5 -8.5t-8 -21t8 -20.5t21 -9zM411 178v148h-235v-148h235zM499 502q38 -1 63 -26t25 -62v-176h-117v-119h-353v119h-117v176q0 37 25 62t63 26h411zM382 2v59h59v-59h-59zM265 2v59h57
v-59h-57zM146 2v59h59v-59h-59z" />
    <glyph glyph-name="react" unicode="&#xfc06;" arabic-form="isolated" 
d="M294 376q21 0 35 -14.5t14 -36t-14 -36t-35.5 -14.5t-35.5 14.5t-14 36t14 36t36 14.5zM167 106q14 -8 39.5 4t58.5 43q-21 24 -41 51q-34 4 -65 11q-10 -45 -7.5 -73.5t15.5 -35.5zM186 263l-8 14q-5 -12 -8 -24l25 -4zM365 284l22 41l-22 41q-13 22 -25 40
q-22 1 -46.5 1t-46.5 -1q-12 -18 -25 -40l-22 -41l22 -41q13 -22 25 -40q22 -1 46.5 -1t46.5 1q12 18 25 40zM294 467q-8 -9 -17 -19h33q-9 10 -16 19zM294 183q7 9 16 19h-33q9 -10 17 -19zM420 544q-14 8 -39.5 -4.5t-58.5 -42.5q21 -25 41 -52q34 -4 65 -10q10 45 7.5 73
t-15.5 36zM401 386l8 -14q5 13 8 25l-25 3zM441 580q29 -18 34.5 -59.5t-7.5 -94.5q52 -17 85.5 -42t33.5 -59.5t-33.5 -59.5t-85.5 -41q13 -53 7.5 -94.5t-35.5 -58.5t-68.5 -1.5t-77.5 54.5q-40 -39 -78.5 -54.5t-68.5 1.5t-35.5 58.5t7.5 94.5q-52 16 -85.5 41
t-33.5 59.5t33.5 59.5t85.5 42q-13 53 -7.5 94.5t35.5 58t68.5 1.5t78.5 -54q39 39 77.5 54t69.5 0zM432 325q14 -31 24 -62q44 13 67 29.5t23 32t-23 32.5t-67 29q-10 -30 -24 -61zM155 325q-14 31 -24 61q-44 -12 -67 -29t-23 -32.5t23 -32t67 -29.5q10 31 24 62zM401 263
l-9 -14l25 4q-3 12 -8 24zM322 153q33 -31 58.5 -43t39 -4.5t16 36t-7.5 73.5q-31 -7 -65 -11q-20 -27 -41 -51zM186 386l9 14l-25 -3q3 -12 8 -25zM265 497q-33 30 -58.5 42.5t-39 4.5t-16 -36t7.5 -73q31 6 65 10q20 27 41 52z" />
    <glyph glyph-name="restart" unicode="&#xfc07;" arabic-form="isolated" 
d="M294 559q57 0 110.5 -21.5t96.5 -64.5q86 -92 86 -209t-86 -207q-52 -51 -116.5 -72t-131.5 -12l20 72q47 -5 93.5 11.5t82.5 52.5q66 67 66 155t-66 157q-33 33 -73.5 48.5t-81.5 15.5v-169l-183 183l183 180v-120zM86 56q-73 76 -84 173t39 185l53 -55
q-29 -62 -18 -130t61 -120q30 -29 64 -45l-17 -72q-55 22 -98 64z" />
    <glyph glyph-name="rewind-outline" unicode="&#xfc08;" arabic-form="isolated" 
d="M217 396l-101 -71l101 -71v142zM519 396l-100 -71l100 -71v142zM285 526v-402l-285 201zM587 526v-402l-285 201z" />
    <glyph glyph-name="rhombus" unicode="&#xfc09;" arabic-form="isolated" 
d="M575 361l-244 244q-17 15 -36 15t-36 -15l-244 -244q-15 -17 -15 -36t15 -36l244 -244q17 -15 36 -15t36 15l244 244q12 17 12 36t-12 36z" />
    <glyph glyph-name="rhombus-outline" unicode="&#xfc0a;" arabic-form="isolated" 
d="M575 361l-244 244q-17 15 -36 15t-36 -15l-244 -244q-15 -17 -15 -36t15 -36l244 -244q17 -15 36 -15t36 15l244 244q12 17 12 36t-12 36zM539 325l-244 -244l-244 244l244 244z" />
    <glyph glyph-name="roomba" unicode="&#xfc0b;" arabic-form="isolated" 
d="M294 618q59 0 112 -22t96 -63l-42 -41q-34 33 -77 51t-89.5 18t-89.5 -18t-77 -51l-42 41q43 41 96 63t113 22zM48 486l43 -41q-32 -55 -33 -120q3 -101 69 -167t167 -69q100 3 166 69t69 167q-1 65 -33 120l43 41q48 -73 48 -161q-3 -125 -85.5 -208t-207.5 -85
q-126 2 -208.5 85t-85.5 208q0 88 48 161zM294 501q74 -1 124 -51.5t52 -124.5q0 -36 -13 -67.5t-39 -56.5l-42 41q-34 -34 -82.5 -34t-82.5 34l-42 -41q-26 25 -39 56.5t-13 67.5q2 74 52 124.5t125 51.5zM294 442q-13 0 -21 -8t-8 -20.5t8 -21t20.5 -8.5t20.5 8.5t8 21
t-8 20.5t-20 8z" />
    <glyph glyph-name="run" unicode="&#xfc0c;" arabic-form="isolated" 
d="M387 572q31 0 51.5 21.5t20.5 52.5t-20.5 51.5t-51.5 20.5t-51.5 -20.5t-20.5 -51.5t20.5 -52.5t51.5 -21.5zM255 66l36 159l77 -74v-219h74v274l-77 74l22 109q36 -41 88 -66t112 -25v72q-53 2 -93 26t-64 63l-36 59q-23 34 -62 35q-9 0 -15 -1.5t-14 -1.5l-190 -80
v-172h74v125l65 26l-59 -298l-179 38l-14 -74z" />
    <glyph glyph-name="search-web" unicode="&#xfc0d;" arabic-form="isolated" 
d="M420 249l167 -167l-50 -50l-167 166v27l-10 10q-28 -26 -64 -39t-77 -13q-93 1 -155 62.5t-64 154.5q2 93 64 155t155 63q93 -1 154 -63t63 -155q0 -41 -13.5 -77.5t-38.5 -64.5l9 -9h27zM219 568l-19 -1q-6 -13 -14 -34.5t-16 -47.5h96q-6 26 -15 47.5t-15 34.5
q-8 1 -17 1zM364 485q-32 53 -90 74q12 -27 27 -74h63zM72 485h65q13 47 25 74q-58 -21 -90 -74zM50 400q0 -25 8 -51h73l-5 51l5 50h-73q-8 -23 -8 -50zM378 349q8 26 8 52t-8 49h-71q3 -25 3 -50t-3 -51h71zM164 450l-5 -50l5 -51h108q5 26 5 51t-5 50h-108zM219 233h17
q6 14 15 35.5t15 47.5h-96q8 -26 16 -47.5t14 -35.5h19zM364 316h-63q-15 -47 -27 -74q58 21 90 74zM72 316q32 -53 90 -74q-12 27 -25 74h-65z" />
    <glyph glyph-name="shovel" unicode="&#xfc0e;" arabic-form="isolated" 
d="M378 617l-82 -82q-18 -18 -18 -41.5t18 -41.5l41 -41l-133 -134l-83 83l-42 -41q-98 -111 -74.5 -179t34.5 -69q1 -11 69 -34t180 75l41 41l-83 82l134 132l41 -40q18 -17 41 -17t41 17l84 83zM462 370l-41 40l-84 84l43 41l123 -124z" />
    <glyph glyph-name="shovel-off" unicode="&#xfc0f;" arabic-form="isolated" 
d="M378 617l-82 -82q-18 -18 -18 -41.5t18 -41.5l41 -42l-21 -21l43 -42l22 22l40 -42q18 -17 42 -17t42 17l82 84zM462 370l-125 124l41 41l125 -124zM543 77l-41 -41l-230 228l-28 -29l82 -82l-38 -41q-112 -98 -180 -75t-69 34q-11 1 -34.5 69t74.5 179l42 41l83 -83
l29 30l-228 227l41 41z" />
    <glyph glyph-name="signal-2g" unicode="&#xfc10;" arabic-form="isolated" 
d="M265 105h-265v176q0 37 25 62t63 26h88v88h-176v88h176q38 -1 62.5 -26t26.5 -62v-88q-2 -37 -26.5 -62t-62.5 -26h-88v-88h177v-88zM587 369h-132v-88h44v-88h-88v264h176v88h-176q-38 -1 -62.5 -26t-26.5 -62v-264q2 -37 26.5 -62t62.5 -26h88q38 1 63 26t25 62v176z
" />
    <glyph glyph-name="signal-3g" unicode="&#xfc11;" arabic-form="isolated" 
d="M265 193v66q-2 29 -20.5 47.5t-46.5 18.5q28 1 46.5 20t20.5 46v66q-2 37 -26.5 62t-62.5 26h-176v-88h176v-88h-88v-88h88v-88h-176v-88h176q38 1 62.5 26t26.5 62zM587 193v176h-132v-88h44v-88h-88v264h176v88h-176q-38 -1 -62.5 -26t-26.5 -62v-264q2 -37 26.5 -62
t62.5 -26h88q38 1 63 26t25 62z" />
    <glyph glyph-name="signal-4g" unicode="&#xfc12;" arabic-form="isolated" 
d="M587 193v176h-132v-88h44v-88h-88v264h176v88h-176q-38 -1 -62.5 -26t-26.5 -62v-264q2 -37 26.5 -62t62.5 -26h88q38 1 63 26t25 62zM176 105h89v440h-89v-176h-88v176h-88v-264h176v-176z" />
    <glyph glyph-name="signal-hspa" unicode="&#xfc13;" arabic-form="isolated" 
d="M196 423h195v391h196v-978h-196v391h-195v-391h-196v978h196v-391z" />
    <glyph glyph-name="signal-hspa-plus" unicode="&#xfc14;" arabic-form="isolated" 
d="M499 442v-88h88v-88h-88v-88h-88v88h-89v88h89v88h88zM88 369h88v176h89v-440h-89v176h-88v-176h-88v440h88v-176z" />
    <glyph glyph-name="snowflake" unicode="&#xfc15;" arabic-form="isolated" 
d="M571 263l-74 -19l-64 35v92l64 35l74 -19l16 61l-56 15l15 56l-63 16l-19 -74l-62 -35l-78 45v71l55 54l-45 44l-41 -40l-42 40l-44 -44l55 -54v-71l-80 -45l-62 35l-19 74l-61 -16l15 -56l-55 -15l16 -61l73 19l63 -35v-92l-63 -35l-73 19l-16 -61l55 -15l-15 -56
l62 -16l19 74l62 35l79 -45v-71l-55 -54l44 -44l42 40l41 -40l45 44l-55 54v71l80 45l62 -35l20 -72l60 14l-15 56l55 15zM214 371l79 46l78 -46v-92l-78 -46l-79 46v92z" />
    <glyph glyph-name="source-commit" unicode="&#xfc16;" arabic-form="isolated" 
d="M577 325q-3 -104 -65.5 -180t-163.5 -100v-232h-112v232q-102 24 -164.5 100t-62.5 180t62.5 180t164.5 100v232h112v-232q101 -24 163.5 -100t65.5 -180zM292 496q-72 -3 -120 -51t-48 -120t48 -120t120 -48t120 48t48 120t-48 120t-120 51z" />
    <glyph glyph-name="source-commit-end" unicode="&#xfc17;" arabic-form="isolated" 
d="M587 208q-3 -123 -86.5 -206.5t-206.5 -86.5q-124 3 -207.5 86.5t-86.5 206.5q3 107 67.5 185.5t168.5 102.5v239h115v-239q104 -24 168.5 -102.5t67.5 -185.5zM294 384q-75 -3 -124 -52.5t-49 -123.5t49 -123t123.5 -49t123.5 49t49 123t-49 123.5t-123 52.5z" />
    <glyph glyph-name="source-commit-end-local" unicode="&#xfc18;" arabic-form="isolated" 
d="M294 502q123 -3 206.5 -86.5t86.5 -207.5q-3 -123 -86.5 -206.5t-206.5 -86.5q-124 3 -207.5 86.5t-86.5 206.5q3 124 86.5 207.5t207.5 86.5zM294 384q-75 -3 -124 -52.5t-49 -123.5t49 -123t123.5 -49t123.5 49t49 123t-49 123.5t-123 52.5zM236 617v118h115v-118h-115
z" />
    <glyph glyph-name="source-commit-local" unicode="&#xfc19;" arabic-form="isolated" 
d="M293 610q120 -2 201.5 -83.5t83.5 -201.5q-2 -120 -83.5 -201.5t-201.5 -83.5q-120 2 -201.5 83.5t-83.5 201.5q2 120 83.5 201.5t201.5 83.5zM293 496q-72 -3 -120 -51t-48 -120t48 -120t120 -48t120 48t48 120t-48 120t-120 51zM237 722v115h112v-115h-112zM237 -187
v115h112v-115h-112z" />
    <glyph glyph-name="source-commit-next-local" unicode="&#xfc1a;" arabic-form="isolated" 
d="M578 325q-2 -120 -83.5 -201.5t-201.5 -83.5q-120 2 -201.5 83.5t-83.5 201.5q2 104 65 180t164 100v232h112v-232q101 -24 164 -100t65 -180zM293 496q-72 -3 -120 -51t-48 -120t48 -120t120 -48t120 48t48 120t-48 120t-120 51zM237 -187v115h112v-115h-112z" />
    <glyph glyph-name="source-commit-start" unicode="&#xfc1b;" arabic-form="isolated" 
d="M294 735q123 -3 206.5 -86.5t86.5 -206.5q-3 -107 -67.5 -185.5t-168.5 -102.5v-239h-115v239q-104 24 -168.5 102.5t-67.5 185.5q3 123 86.5 206.5t207.5 86.5zM294 617q-75 -3 -124 -52t-49 -123t49 -123.5t123.5 -49.5t123.5 49.5t49 123.5t-49 123t-123 52z" />
    <glyph glyph-name="source-commit-start-next-local" unicode="&#xfc1c;" arabic-form="isolated" 
d="M294 735q123 -3 206.5 -86.5t86.5 -206.5q-3 -124 -86.5 -207.5t-206.5 -86.5q-124 3 -207.5 86.5t-86.5 207.5q3 123 86.5 206.5t207.5 86.5zM294 617q-75 -3 -124 -52t-49 -123t49 -123.5t123.5 -49.5t123.5 49.5t49 123.5t-49 123t-123 52zM236 -85v118h115v-118h-115
z" />
    <glyph glyph-name="speaker-wireless" unicode="&#xfc1d;" arabic-form="isolated" 
d="M506 127l-40 39q32 32 49 72t17 87t-17 87t-49 72l40 39q38 -38 59.5 -89t21.5 -109t-21.5 -109t-59.5 -89zM427 207l-40 39q32 32 32 79t-32 79l40 39q22 -22 35 -52.5t13 -65.5t-13 -65.5t-35 -52.5zM55 577h225q23 0 39 -16.5t17 -39.5v-392q-1 -23 -17 -39.5
t-39 -16.5h-225q-23 0 -39 16.5t-16 39.5v392q0 23 16 39.5t39 16.5zM168 521q-24 0 -40 -16t-16 -39.5t16 -40t40 -16.5t39.5 16.5t15.5 40t-15.5 39.5t-39.5 16zM168 353q-48 -2 -80 -33.5t-32 -78.5t32 -78.5t79.5 -31.5t79 31.5t31.5 78.5t-31.5 78.5t-78.5 33.5z
M168 297q24 -1 39.5 -16.5t15.5 -39.5t-15.5 -39.5t-39.5 -15.5t-40 15.5t-16 39.5t16 39.5t40 16.5z" />
    <glyph glyph-name="stadium" unicode="&#xfc1e;" arabic-form="isolated" 
d="M88 590h58l88 -60l-88 -58v-40q66 10 147.5 10t147.5 -10v158h58l88 -60l-88 -58v-51q41 -9 64.5 -23t23.5 -29q-3 -32 -86 -52.5t-207.5 -20.5t-207.5 20.5t-86 52.5q0 15 23.5 29t64.5 23v169zM294 398q-74 1 -111 -5t-37 -24t37 -24t110.5 -6t110.5 6t37 24t-37 24
t-110 5zM294 244q84 1 155.5 14t120.5 37l-41 -235h-147v60q0 24 -17.5 41t-42.5 17h-57q-25 0 -42.5 -17t-17.5 -41v-60h-147l-41 235q49 -24 120.5 -37t156.5 -14z" />
    <glyph glyph-name="svg" unicode="&#xfc1f;" arabic-form="isolated" 
d="M91 364h110l-77 77q-23 0 -38.5 15.5t-15.5 38.5t15.5 38t38 15t38.5 -15t16 -39l77 -77v111q-15 16 -15 37.5t15.5 37t38 15.5t38 -15.5t15.5 -37t-15 -37.5v-111l77 77q2 24 17 39t37.5 15t38 -15t15.5 -38t-15.5 -38.5t-38.5 -15.5l-77 -77h110q17 15 38 15t37 -16
t16 -38t-16 -38t-37 -16t-38 15h-110l77 -77q23 -1 38.5 -16t15.5 -38t-15.5 -38t-38 -15t-37.5 15t-17 39l-77 77v-111q15 -16 15 -37.5t-15.5 -37t-38 -15.5t-38 15.5t-15.5 37t15 37.5v111l-77 -77q0 -24 -16 -39t-38.5 -15t-38 15t-15.5 38t15.5 38t38.5 16l77 77h-110
q-17 -15 -38 -15t-37 16t-16 38t16 38t37 16t38 -15z" />
    <glyph glyph-name="tag-plus" unicode="&#xfc20;" arabic-form="isolated" 
d="M570 337l-264 265q-18 16 -41 16h-207q-25 0 -41.5 -16.5t-16.5 -40.5v-207q0 -23 17 -41l12 -11q40 23 88 23q75 -1 125 -51.5t52 -124.5q0 -47 -24 -89l11 -12q18 -16 42 -16t41 16l206 207q17 16 17 40t-17 42zM102 472q-18 0 -30.5 12.5t-12.5 31t12.5 31t31 12.5
t31 -12.5t12.5 -31t-12.5 -31t-31.5 -12.5zM234 120h-88v-88h-58v88h-88v58h88v88h58v-88h88v-58z" />
    <glyph glyph-name="tag-remove" unicode="&#xfc21;" arabic-form="isolated" 
d="M570 337l-264 265q-18 16 -41 16h-207q-25 0 -41.5 -16.5t-16.5 -40.5v-207q0 -23 17 -41l12 -11q40 23 88 23q75 -1 125 -51.5t52 -124.5q0 -47 -24 -89l11 -12q18 -16 42 -16t41 16l206 207q17 16 17 40t-17 42zM102 472q-18 0 -30.5 12.5t-12.5 31t12.5 31t31 12.5
t31 -12.5t12.5 -31t-12.5 -31t-31.5 -12.5zM179 44l-62 63l-62 -63l-43 43l64 62l-64 62l43 41l62 -62l62 62l41 -41l-62 -62l62 -62z" />
    <glyph glyph-name="ticket-percent" unicode="&#xfc22;" arabic-form="isolated" 
d="M58 561q-25 -2 -41.5 -18.5t-16.5 -41.5v-117q25 -1 41.5 -17.5t16.5 -41.5t-16.5 -41.5t-41.5 -17.5v-117q0 -25 16.5 -41.5t41.5 -18.5h471q25 2 41.5 18.5t16.5 41.5v117q-25 1 -41.5 17.5t-16.5 41.5t16.5 41.5t41.5 17.5v117q0 25 -16.5 41.5t-41.5 18.5h-471z
M397 472l44 -44l-251 -250l-44 44zM200 471q22 -1 36.5 -15.5t14.5 -36.5t-14.5 -36.5t-36.5 -14.5t-36.5 14.5t-14.5 36.5t14.5 36.5t36.5 15.5zM387 284q22 -2 36.5 -16.5t14.5 -36.5t-14.5 -36.5t-36.5 -14.5t-36.5 14.5t-14.5 36.5t14.5 36.5t36.5 16.5z" />
    <glyph glyph-name="tilde" unicode="&#xfc23;" arabic-form="isolated" 
d="M1 237q-6 11 21.5 88t154.5 88q82 -7 120.5 -51.5t99.5 -51.5q83 7 101.5 51.5t14.5 51.5h73q6 -11 -21.5 -88t-154.5 -88q-85 7 -131.5 51.5t-88.5 51.5q-83 -7 -101.5 -51.5t-14.5 -51.5h-73z" />
    <glyph glyph-name="treasure-chest" unicode="&#xfc24;" arabic-form="isolated" 
d="M88 561h411q38 -2 63 -26.5t25 -62.5v-118h-205v30h-177v-30h-205v118q0 38 25 62.5t63 26.5zM265 354h57v-58h-57v58zM0 325h205v-29l60 -59h57l60 59v29h205v-236h-587v236z" />
    <glyph glyph-name="truck-trailer" unicode="&#xfc25;" arabic-form="isolated" 
d="M587 236v-59h-353q0 -37 -24.5 -62t-62.5 -25t-63 25t-26 62h-58v324q0 24 16.5 41t41.5 18h383q25 -1 41.5 -18t16.5 -41v-265h88zM146 207q-12 -1 -20.5 -9.5t-8.5 -21t8.5 -20.5t20.5 -8t20.5 8t8.5 20.5t-8.5 21t-20.5 9.5z" />
    <glyph glyph-name="view-parallel" unicode="&#xfc26;" arabic-form="isolated" 
d="M0 -5v660h148v-660h-148zM220 -5v660h147v-660h-147zM439 -5v660h148v-660h-148z" />
    <glyph glyph-name="view-sequential" unicode="&#xfc27;" arabic-form="isolated" 
d="M0 586h587v-131h-587v131zM0 391h587v-132h-587v132zM0 195h587v-131h-587v131z" />
    <glyph glyph-name="washing-machine" unicode="&#xfc28;" arabic-form="isolated" 
d="M396 356q43 -46 43 -104.5t-43.5 -102.5t-102 -44t-102.5 43zM74 691h439q31 0 51.5 -21t22.5 -52v-586q-2 -31 -22.5 -52t-51.5 -21h-439q-31 0 -51.5 21t-22.5 52v586q2 31 22.5 52t51.5 21zM110 618q-16 -1 -26 -11.5t-10 -26t10 -25.5t25.5 -10t26 10t10.5 25.5
t-10.5 26t-25.5 11.5zM220 618q-16 -1 -26 -11.5t-10 -26t10 -25.5t25.5 -10t26 10t10.5 25.5t-10.5 26t-25.5 11.5zM294 471q-93 -2 -155.5 -63.5t-64.5 -156.5q2 -92 64.5 -154t155.5 -65q92 3 154.5 65t64.5 154q-2 95 -64.5 156.5t-154.5 63.5z" />
    <glyph glyph-name="webpack" unicode="&#xfc29;" arabic-form="isolated" 
d="M587 178q-2 -20 -17 -29l-258 -143q-8 -7 -18.5 -7t-18.5 7l-258 143q-15 9 -17 29v294q2 20 17 29l258 143q8 7 18.5 7t18.5 -7l258 -143q15 -9 17 -29v-294zM294 580l-228 -128v-254l228 -128l227 128v254zM294 513l160 -92l-160 -93l-161 93zM457 230l-131 -75v116
l131 77v-118zM261 155l-131 75v118l131 -77v-116z" />
    <glyph glyph-name="widgets" unicode="&#xfc2a;" arabic-form="isolated" 
d="M0 579h244v-133l171 172l172 -172l-172 -171h132v-243h-244v243h112l-171 171v-111h-244v244zM0 275h244v-243h-244v243z" />
    <glyph glyph-name="wiiu" unicode="&#xfc2b;" arabic-form="isolated" 
d="M0 209q0 -49 30.5 -76.5t81.5 -27.5h374q43 0 72 25.5t29 67.5v274q0 27 -16 48t-39 23h-87v-226q-19 -130 -150 -130t-149 126v232h-66q-33 0 -56.5 -18.5t-23.5 -49.5v-268zM215 347q10 -96 78.5 -94t78.5 73v219h-157v-198z" />
    <glyph glyph-name="arrow-down-bold" unicode="&#xfc2c;" arabic-form="isolated" 
d="M181 622h225v-301h181l-293 -293l-294 293h181v301z" />
    <glyph glyph-name="arrow-down-bold-box" unicode="&#xfc2d;" arabic-form="isolated" 
d="M66 618h455q28 0 47 -19t19 -46v-456q0 -27 -19 -46t-47 -19h-455q-28 0 -47 19t-19 46v456q0 27 19 46t47 19zM294 161l163 164h-98v130h-131v-130h-98z" />
    <glyph glyph-name="arrow-down-bold-box-outline" unicode="&#xfc2e;" arabic-form="isolated" 
d="M294 161l-164 164h98v130h131v-130h98zM66 618h455q28 0 47 -19t19 -46v-456q0 -27 -19 -46t-47 -19h-455q-28 0 -47 19t-19 46v456q0 27 19 46t47 19zM66 553v-456h455v456h-455z" />
    <glyph glyph-name="arrow-left-bold" unicode="&#xfc2f;" arabic-form="isolated" 
d="M587 436v-222h-297v-179l-290 290l290 290v-179h297z" />
    <glyph glyph-name="arrow-left-bold-box" unicode="&#xfc30;" arabic-form="isolated" 
d="M587 553v-456q0 -27 -19 -46t-47 -19h-455q-28 0 -47 19t-19 46v456q0 27 19 46t47 19h455q28 0 47 -19t19 -46zM130 325l164 -164v98h129v132h-129v98z" />
    <glyph glyph-name="arrow-left-bold-box-outline" unicode="&#xfc31;" arabic-form="isolated" 
d="M130 325l164 164v-98h129v-132h-129v-98zM587 553v-456q0 -27 -19 -46t-47 -19h-455q-28 0 -47 19t-19 46v456q0 27 19 46t47 19h455q28 0 47 -19t19 -46zM521 553h-455v-456h455v456z" />
    <glyph glyph-name="arrow-right-bold" unicode="&#xfc32;" arabic-form="isolated" 
d="M0 214v222h297v179l290 -290l-290 -290v179h-297z" />
    <glyph glyph-name="arrow-right-bold-box" unicode="&#xfc33;" arabic-form="isolated" 
d="M0 97v456q0 27 19 46t47 19h455q28 0 47 -19t19 -46v-456q0 -27 -19 -46t-47 -19h-455q-28 0 -47 19t-19 46zM457 325l-163 164v-98h-130v-132h130v-98z" />
    <glyph glyph-name="arrow-right-bold-box-outline" unicode="&#xfc34;" arabic-form="isolated" 
d="M457 325l-163 -164v98h-130v132h130v98zM0 97v456q0 27 19 46t47 19h455q28 0 47 -19t19 -46v-456q0 -27 -19 -46t-47 -19h-455q-28 0 -47 19t-19 46zM66 97h455v456h-455v-456z" />
    <glyph glyph-name="arrow-up-bold" unicode="&#xfc35;" arabic-form="isolated" 
d="M406 28h-225v301h-181l294 293l293 -293h-181v-301z" />
    <glyph glyph-name="arrow-up-bold-box" unicode="&#xfc36;" arabic-form="isolated" 
d="M521 32h-455q-28 0 -47 19t-19 46v456q0 27 19 46t47 19h455q28 0 47 -19t19 -46v-456q0 -27 -19 -46t-47 -19zM294 489l-164 -164h98v-130h131v130h98z" />
    <glyph glyph-name="arrow-up-bold-box-outline" unicode="&#xfc37;" arabic-form="isolated" 
d="M294 489l163 -164h-98v-130h-131v130h-98zM521 32h-455q-28 0 -47 19t-19 46v456q0 27 19 46t47 19h455q28 0 47 -19t19 -46v-456q0 -27 -19 -46t-47 -19zM521 97v456h-455v-456h455z" />
    <glyph glyph-name="cancel" unicode="&#xfc38;" arabic-form="isolated" 
d="M294 618q125 -2 207.5 -85t85.5 -208q-3 -125 -85.5 -208t-207.5 -85q-126 2 -208.5 85t-85.5 208q3 125 85.5 208t208.5 85zM294 561q-101 -3 -167 -69t-69 -167q0 -41 13 -77.5t36 -67.5l331 331q-30 23 -66.5 36.5t-77.5 13.5zM294 89q100 3 166 69t69 167
q0 41 -13 77.5t-36 67.5l-331 -331q30 -23 66.5 -36.5t78.5 -13.5z" />
    <glyph glyph-name="file-account" unicode="&#xfc39;" arabic-form="isolated" 
d="M330 435h202l-202 201v-201zM74 691h293l220 -220v-439q-2 -31 -22.5 -52t-51.5 -21h-439q-31 0 -51.5 21t-22.5 52v586q2 31 22.5 52t51.5 21zM367 32v37q-5 36 -55.5 54t-91.5 18t-91 -18t-55 -54v-37h293zM220 325q-31 0 -51.5 -21.5t-20.5 -52.5t20.5 -51.5
t51.5 -20.5t52.5 20.5t21.5 51.5t-21.5 52.5t-52.5 21.5z" />
    <glyph glyph-name="gesture-double-tap" unicode="&#xfc3a;" arabic-form="isolated" 
d="M209 493q2 18 13.5 30t29.5 12t30 -12t12 -30v-187l51 -6l207 -92q35 -18 35 -57v-184q0 -25 -17.5 -43t-45.5 -20h-272q-25 0 -43 20l-205 175l31 34q12 12 30 12h10l134 -71v419zM252 661q71 -2 118.5 -49.5t49.5 -118.5q0 -47 -23 -85.5t-62 -59.5v51q41 37 43 94
q-2 54 -37.5 89.5t-89.5 35.5t-89.5 -35.5t-35.5 -89.5q2 -57 41 -94v-51q-37 21 -59.5 59.5t-24.5 85.5q2 71 49 118.5t120 49.5zM252 746q107 -2 177.5 -74t74.5 -179q-2 -53 -21.5 -100t-57.5 -81l-41 18q36 29 56.5 71.5t20.5 91.5q-2 89 -61 149t-148 62
q-90 -2 -149.5 -62t-61.5 -149q0 -65 34.5 -116t91.5 -77v-45q-74 28 -120.5 92t-46.5 146q2 107 73 179t179 74z" />
    <glyph glyph-name="gesture-swipe-down" unicode="&#xfc3b;" arabic-form="isolated" 
d="M294 456q1 13 10 22.5t23 9.5t23 -9.5t9 -22.5v-146l40 -4l160 -72q28 -14 28 -44v-142q0 -20 -14 -34t-35 -15h-211q-20 0 -33 15l-159 136l24 26q9 9 23 9h8l104 -55v326zM0 456l98 -98l98 98h-65v195h-65v-195h-66z" />
    <glyph glyph-name="gesture-swipe-left" unicode="&#xfc3c;" arabic-form="isolated" 
d="M256 435q2 16 12.5 26t26 10t26 -10t10.5 -26v-163l44 -6l181 -80q31 -16 31 -50v-160q0 -23 -15.5 -38.5t-39.5 -17.5h-238q-22 0 -38 18l-179 153l28 29q10 10 26 10h8l117 -61v366zM0 619l110 -110v72h221v75h-221v74z" />
    <glyph glyph-name="gesture-swipe-right" unicode="&#xfc3d;" arabic-form="isolated" 
d="M256 435q2 16 12.5 26t26 10t26 -10t10.5 -26v-163l44 -6l181 -80q31 -16 31 -50v-160q0 -23 -15.5 -38.5t-39.5 -17.5h-238q-22 0 -38 18l-179 153l28 29q10 10 26 10h8l117 -61v366zM331 619l-111 111v-74h-220v-75h220v-72z" />
    <glyph glyph-name="gesture-swipe-up" unicode="&#xfc3e;" arabic-form="isolated" 
d="M294 456q1 13 10 22.5t23 9.5t23 -9.5t9 -22.5v-146l40 -4l160 -72q28 -14 28 -44v-142q0 -20 -14 -34t-35 -15h-211q-20 0 -33 15l-159 136l24 26q9 9 23 9h8l104 -55v326zM196 554l-98 97l-98 -97h66v-196h65v196h65z" />
    <glyph glyph-name="gesture-tap" unicode="&#xfc3f;" arabic-form="isolated" 
d="M206 537q2 18 14 30t30 12t30 -12t12 -30v-188l51 -6l208 -93q36 -18 36 -58v-184q0 -26 -18 -44t-45 -20h-274q-26 0 -44 20l-206 177l32 33q12 12 29 12h10l135 -71v422zM250 706q71 -2 118.5 -49.5t49.5 -119.5q0 -47 -22.5 -86t-62.5 -61v52q42 38 44 95
q-2 54 -38 89.5t-90.5 35.5t-90 -35.5t-35.5 -89.5q2 -57 42 -95v-52q-38 22 -61 61t-25 86q2 72 49.5 119.5t121.5 49.5z" />
    <glyph glyph-name="gesture-two-double-tap" unicode="&#xfc40;" arabic-form="isolated" 
d="M587 193v-268q0 -25 -17.5 -43t-45.5 -20h-272q-25 0 -43 20l-205 175l31 34q12 11 30 11h10l134 -70v419q2 18 13.5 29.5t29.5 11.5t30 -11.5t12 -29.5v85q0 17 11.5 29t29.5 12t29.5 -12t13.5 -29v-211l174 -77q15 -8 25 -22.5t10 -32.5zM335 703q73 -2 120 -49
t49 -118q-2 -49 -24.5 -86.5t-59.5 -59.5v51q39 36 41 95q0 53 -35.5 88.5t-90.5 37.5q-43 -2 -75.5 -26.5t-44.5 -64.5q-40 -12 -64.5 -44.5t-24.5 -75.5q2 -57 41 -94v-52q-37 22 -59.5 60.5t-22.5 87.5t26.5 89.5t69.5 62.5q22 43 62.5 70.5t91.5 27.5zM335 788
q108 -4 179 -75t73 -177q0 -67 -29.5 -121.5t-80.5 -87.5l-46 22q52 25 83.5 74.5t31.5 112.5q-2 88 -61.5 147.5t-149.5 61.5q-59 0 -107.5 -30t-75.5 -79q-52 -27 -81.5 -75.5t-29.5 -109.5q0 -65 34.5 -116t91.5 -77v-45q-74 27 -120.5 91t-46.5 147q0 69 32.5 125
t87.5 90q34 55 90 87.5t125 34.5z" />
    <glyph glyph-name="gesture-two-tap" unicode="&#xfc41;" arabic-form="isolated" 
d="M587 235v-270q0 -26 -18 -43.5t-45 -19.5h-274q-26 0 -44 19l-206 177l32 34q12 12 29 12h10l135 -72v423q2 17 14 29t30 12t30 -12t12 -29v85q0 18 11.5 29.5t29.5 11.5t30 -11.5t14 -29.5v-212l174 -78q16 -8 26 -22.5t10 -32.5zM418 433v52q14 14 24 29q18 28 18 66
q0 53 -35.5 89t-88 36t-88.5 -34l-6 -6q-10 -8 -16 -18t-10 -22l-4 -9q-39 -12 -64 -45t-25 -77.5t26 -76.5q8 -10 16 -18v-51q-38 22 -61 60.5t-23 88t27 90t70 62.5q22 44 63 71.5t92 27.5q74 -2 121.5 -49.5t49.5 -118.5q-2 -50 -25 -87.5t-61 -59.5v0z" />
    <glyph glyph-name="humble-bundle" unicode="&#xfc42;" arabic-form="isolated" 
d="M438 144q-52 31 -8.5 236t52.5 236h-85q-2 -4 -20.5 -71.5t-37.5 -163.5h-73q3 39 1 76q-8 145 -68 153t-105 -34q-40 -35 -66.5 -88.5t-27.5 -103.5h39q0 7 24 60t86 62q51 -31 8 -236t-54 -236h86q3 4 25.5 81.5t40.5 186.5h70q-5 -57 -4 -115q8 -143 68 -148.5
t106 37.5q41 37 66.5 95t25.5 95h-40q1 -10 -23.5 -61.5t-85.5 -60.5z" />
    <glyph glyph-name="kickstarter" unicode="&#xfc43;" arabic-form="isolated" 
d="M225 435l126 183q36 53 94 53q47 0 80 -33.5t33 -78.5q0 -34 -18 -59l-113 -168l138 -176q22 -27 22 -61q0 -49 -33.5 -82.5t-79.5 -33.5q-51 0 -78 34l-171 213v-117q0 -50 -18 -79q-32 -51 -94 -51q-54 0 -83.5 36t-29.5 92v438q0 54 29.5 90t82 36t86.5 -36
q18 -22 23 -44q4 -12 4 -46v-110z" />
    <glyph glyph-name="netflix" unicode="&#xfc44;" arabic-form="isolated" 
d="M12 837h204l152 -452l2 452h204v-1024q-96 17 -209 22l-149 440l-2 -443q-111 -5 -202 -19v1024z" />
    <glyph glyph-name="onenote" unicode="&#xfc45;" arabic-form="isolated" 
d="M0 538l353 50v-57h205q13 0 21 -8t8 -21v-117q0 -12 -8 -20t-21 -10h-29v-233h-176v-60l-353 53v423zM265 188v248l-59 -7v-125l-59 117l-58 -7v-204l44 -9v162l73 -169zM353 267h117v31h-117v-31zM353 355h117v30h-117v-30zM353 443h117v30h-117v-30zM353 210v-31h117
v31h-117z" />
    <glyph glyph-name="periscope" unicode="&#xfc46;" arabic-form="isolated" 
d="M294 509q0 -31 -21.5 -52.5t-52.5 -21.5t-51.5 21.5t-20.5 52.5q-36 -48 -38 -110q2 -79 54 -130.5t130 -53.5q77 2 129 53.5t54 130.5q-2 77 -54 128.5t-129 53.5q-25 0 -45 -5q20 -9 32.5 -27t12.5 -40zM294 691q125 -2 207.5 -85.5t85.5 -206.5q0 -59 -21 -108
q-49 -127 -135 -226.5t-137 -105.5q-52 6 -138 105.5t-135 226.5q-21 49 -21 108q3 123 85.5 206.5t208.5 85.5z" />
    <glyph glyph-name="uber" unicode="&#xfc47;" arabic-form="isolated" 
d="M294 618q125 -2 207.5 -85t85.5 -208q-3 -125 -85.5 -208t-207.5 -85q-122 2 -204 80.5t-90 197.5h205v-58q2 -14 15 -15h147q13 1 15 15v146q-2 14 -15 15h-147q-13 -1 -15 -15v-58h-205q8 119 90 197.5t204 80.5z" />
    <glyph glyph-name="vector-radius" unicode="&#xfc48;" arabic-form="isolated" 
d="M0 561h58v57h176v-57q126 -5 208.5 -87.5t86.5 -207.5h58v-177h-58v-57h-59v57h-59v177h59q-3 100 -69 166.5t-167 68.5v-59h-176v59h-58v60zM470 208v-59h59v59h-59zM117 561v-60h59v60h-59z" />
    <glyph glyph-name="xbox-controller-battery-alert" unicode="&#xfc49;" arabic-form="isolated" 
d="M533 139v320h-159v-320h159zM551 511q15 0 25 -10t11 -25v-356q-1 -15 -11 -25t-25 -10h-195q-15 0 -25 10t-11 25v79h-140q-37 -4 -62.5 -34t-63.5 -53q-44 -2 -53 68t67 239h6l11 21q4 4 42.5 18t68.5 -6h124v24q1 15 11 25t25 10h44v54h107v-54h44zM267 431
q-11 0 -18.5 -7.5t-7.5 -18.5t7.5 -18.5t19 -7.5t19 7.5t7.5 18.5t-7.5 18.5t-19.5 7.5zM427 405h53v-134h-53v134zM427 245h53v-54h-53v54z" />
    <glyph glyph-name="xbox-controller-battery-empty" unicode="&#xfc4a;" arabic-form="isolated" 
d="M533 139v320h-159v-320h159zM551 511q15 0 25 -10t11 -25v-356q-1 -15 -11 -25t-25 -10h-195q-15 0 -25 10t-11 25v79h-140q-37 -4 -62.5 -34t-63.5 -53q-44 -2 -53 68t67 239h6l11 21q4 4 42.5 18t68.5 -6h124v24q1 15 11 25t25 10h44v54h107v-54h44zM267 431
q-11 0 -18.5 -7.5t-7.5 -18.5t7.5 -18.5t19 -7.5t19 7.5t7.5 18.5t-7.5 18.5t-19.5 7.5z" />
    <glyph glyph-name="xbox-controller-battery-full" unicode="&#xfc4b;" arabic-form="isolated" 
d="M551 511q15 0 25 -10t11 -25v-356q-1 -15 -11 -25t-25 -10h-195q-15 0 -25 10t-11 25v79h-140q-37 -4 -62.5 -34t-63.5 -53q-44 -2 -53 68t67 239h6l11 21q4 4 42.5 18t68.5 -6h124v24q1 15 11 25t25 10h44v54h107v-54h44zM267 431q-11 0 -18.5 -7.5t-7.5 -18.5
t7.5 -18.5t19 -7.5t19 7.5t7.5 18.5t-7.5 18.5t-19.5 7.5z" />
    <glyph glyph-name="xbox-controller-battery-low" unicode="&#xfc4c;" arabic-form="isolated" 
d="M533 219v240h-159v-240h159zM551 511q15 0 25 -10t11 -25v-356q-1 -15 -11 -25t-25 -10h-195q-15 0 -25 10t-11 25v79h-140q-37 -4 -62.5 -34t-63.5 -53q-44 -2 -53 68t67 239h6l11 21q4 4 42.5 18t68.5 -6h124v24q1 15 11 25t25 10h44v54h107v-54h44zM267 431
q-11 0 -18.5 -7.5t-7.5 -18.5t7.5 -18.5t19 -7.5t19 7.5t7.5 18.5t-7.5 18.5t-19.5 7.5z" />
    <glyph glyph-name="xbox-controller-battery-medium" unicode="&#xfc4d;" arabic-form="isolated" 
d="M533 325v134h-159v-134h159zM551 511q15 0 25 -10t11 -25v-356q-1 -15 -11 -25t-25 -10h-195q-15 0 -25 10t-11 25v79h-140q-37 -4 -62.5 -34t-63.5 -53q-44 -2 -53 68t67 239h6l11 21q4 4 42.5 18t68.5 -6h124v24q1 15 11 25t25 10h44v54h107v-54h44zM267 431
q-11 0 -18.5 -7.5t-7.5 -18.5t7.5 -18.5t19 -7.5t19 7.5t7.5 18.5t-7.5 18.5t-19.5 7.5z" />
    <glyph glyph-name="xbox-controller-battery-unknown" unicode="&#xfc4e;" arabic-form="isolated" 
d="M551 511q15 0 25 -10t11 -25v-356q-1 -15 -11 -25t-25 -10h-195q-15 0 -25 10t-11 25v79h-140q-37 -4 -62.5 -34t-63.5 -53q-44 -2 -53 68t67 239h6l11 21q4 4 42.5 18t68.5 -6h124v24q1 15 11 25t25 10h44v54h107v-54h44zM267 431q-11 0 -18.5 -7.5t-7.5 -18.5
t7.5 -18.5t19 -7.5t19 7.5t7.5 18.5t-7.5 18.5t-19.5 7.5zM458 431q-34 0 -55.5 -15.5t-20.5 -46.5v-2h51q0 13 7.5 19t19 6t19 -7.5t7.5 -20t-6.5 -21.5t-16.5 -16q-21 -13 -28.5 -23.5t-7.5 -32.5h53q0 13 3.5 20.5t13.5 13.5q18 10 29.5 25t11.5 35q0 30 -21 48t-59 18z
M427 245v-54h53v54h-53z" />
    <glyph glyph-name="clipboard-plus" unicode="&#xfc4f;" arabic-form="isolated" 
d="M196 554q1 42 28.5 69.5t69 27.5t69 -27.5t28.5 -69.5h130q28 -1 47 -19.5t19 -45.5v-424q0 -27 -19 -46.5t-47 -19.5h-455q-28 0 -47 19.5t-19 46.5v424q0 27 19 45.5t47 19.5h130zM294 586q-14 0 -23.5 -9t-9.5 -22.5t9.5 -23t23 -9.5t23 9.5t9.5 23t-9.5 22.5t-22.5 9
zM326 293v98h-65v-98h-97v-66h97v-98h65v98h97v66h-97z" />
    <glyph glyph-name="file-plus" unicode="&#xfc50;" arabic-form="isolated" 
d="M330 435h202l-202 201v-201zM74 691h293l220 -220v-439q-2 -31 -22.5 -52t-51.5 -21h-439q-31 0 -51.5 21t-22.5 52v586q2 31 22.5 52t51.5 21zM257 215v110h-73v-110h-110v-74h110v-109h73v109h110v74h-110z" />
    <glyph glyph-name="format-align-bottom" unicode="&#xfc51;" arabic-form="isolated" 
d="M326 423l82 81l46 -46l-160 -161l-161 161l46 46l82 -81v195h65v-195zM0 227h587v-66h-587v66zM0 97h326v-65h-326v65z" />
    <glyph glyph-name="format-align-middle" unicode="&#xfc52;" arabic-form="isolated" 
d="M326 521l65 65l46 -47l-143 -144l-144 144l46 47l65 -65v130h65v-130zM0 357h587v-64h-587v64zM326 129v-130h-65v130l-65 -65l-46 47l144 144l143 -144l-46 -47z" />
    <glyph glyph-name="format-align-top" unicode="&#xfc53;" arabic-form="isolated" 
d="M326 227l82 -81l46 46l-160 161l-161 -161l46 -46l82 81v-195h65v195zM0 618h587v-65h-587v65zM0 489h326v-66h-326v66z" />
    <glyph glyph-name="format-list-checks" unicode="&#xfc54;" arabic-form="isolated" 
d="M45 551h181v-181h-181v181zM106 492v-61h59v61h-59zM286 492h301v-61h-301v61zM286 250h301v-60h-301v60zM106 99l-106 106l42 42l64 -62l138 137l42 -42z" />
    <glyph glyph-name="format-quote-open" unicode="&#xfc55;" arabic-form="isolated" 
d="M209 536l-83 -170h126v-252h-252v252l83 170h126zM546 536l-85 -170h126v-252h-252v252l85 170h126z" />
    <glyph glyph-name="grid-large" unicode="&#xfc56;" arabic-form="isolated" 
d="M58 618h471q25 0 41.5 -16.5t16.5 -40.5v-472q0 -24 -16.5 -40.5t-41.5 -16.5h-471q-24 0 -41 16.5t-17 40.5v472q0 24 16.5 40.5t41.5 16.5zM58 561v-207h207v207h-207zM58 89h207v207h-207v-207zM529 89v207h-207v-207h207zM529 561h-207v-207h207v207z" />
    <glyph glyph-name="heart-off" unicode="&#xfc57;" arabic-form="isolated" 
d="M0 555l37 35l495 -495l-35 -35l-100 99l-89 -81l-41 37q-108 95 -172.5 170t-65.5 152q0 39 17 72zM182 590q37 0 69.5 -15.5t56.5 -41.5q23 26 56 41.5t70 15.5q65 -1 108.5 -44t44.5 -109q0 -54 -31 -104.5t-86 -105.5l-351 350q29 13 63 13z" />
    <glyph glyph-name="music" unicode="&#xfc58;" arabic-form="isolated" 
d="M587 603v-387q-1 -45 -31.5 -76.5t-76.5 -31.5t-77 31.5t-31 77t31 76t76 31.5q26 0 47 -10v181l-309 -65v-275q-1 -47 -31.5 -77.5t-76.5 -30.5t-77 30.5t-31 76.5t31 77t76 31q26 0 47 -10v258z" />
    <glyph glyph-name="music-off" unicode="&#xfc59;" arabic-form="isolated" 
d="M0 549l39 39l518 -517l-40 -39l-301 300v-161q-1 -47 -31.5 -77.5t-76.5 -30.5t-77 30.5t-31 76.5t31 77t76 31q26 0 47 -10v126zM587 618v-386q-1 -48 -35 -79l-152 152q30 34 78 35q26 0 47 -10v181l-273 -58l-78 77z" />
    <glyph glyph-name="tab-plus" unicode="&#xfc5a;" arabic-form="isolated" 
d="M521 97v326h-227v130h-228v-456h455zM521 618q28 0 47 -19t19 -46v-456q0 -27 -19 -46t-47 -19h-455q-28 0 -47 19t-19 46v456q0 29 19 47t47 18h455zM130 293h98v98h66v-98h97v-66h-97v-98h-66v98h-98v66z" />
    <glyph glyph-name="volume-plus" unicode="&#xfc5b;" arabic-form="isolated" 
d="M0 418h123l155 155v-496l-155 155h-123v186zM341 355h92v93h61v-93h93v-60h-93v-93h-61v93h-92v60z" />
    <glyph glyph-name="volume-minus" unicode="&#xfc5c;" arabic-form="isolated" 
d="M0 418h123l155 155v-496l-155 155h-123v186zM341 355h246v-60h-246v60z" />
    <glyph glyph-name="volume-mute" unicode="&#xfc5d;" arabic-form="isolated" 
d="M0 418h123l155 155v-496l-155 155h-123v186zM420 325l-79 80l43 43l80 -80l80 80l43 -43l-80 -80l80 -80l-43 -43l-80 80l-80 -80l-43 43z" />
    <glyph glyph-name="unfold-less-vertical" unicode="&#xfc5e;" arabic-form="isolated" 
d="M51 493l169 -168l-169 -168l-51 51l117 117l-117 117zM536 157l-169 168l169 168l51 -51l-117 -117l117 -117z" />
    <glyph glyph-name="unfold-more-vertical" unicode="&#xfc5f;" arabic-form="isolated" 
d="M495 325l-104 104l46 46l150 -150l-150 -150l-46 46zM92 325l104 -104l-46 -46l-150 150l150 150l46 -46z" />
    <glyph glyph-name="taco" unicode="&#xfc60;" arabic-form="isolated" 
d="M480 165h-373q-46 1 -76 31t-31 75q2 91 62 151t152 63q42 0 80 -15q37 15 79 15q92 -3 152 -63t62 -151q-1 -45 -31 -75t-76 -31zM54 271q0 -22 15.5 -37t38 -15t37.5 15t15 37q1 49 20 89.5t51 69.5l-17 1q-68 -1 -113.5 -46t-46.5 -114zM480 219q22 0 37.5 15t15.5 37
q-1 69 -46.5 114t-113.5 46q-67 -1 -112.5 -46t-46.5 -114q0 -28 -15 -52h281z" />
    <glyph glyph-name="square-outline" unicode="&#xfc61;" arabic-form="isolated" 
d="M0 618h587v-586h-587v586zM66 553v-456h455v456h-455z" />
    <glyph glyph-name="square" unicode="&#xfc62;" arabic-form="isolated" 
d="M0 618v-586h587v586h-587z" />
    <glyph glyph-name="circle" unicode="&#xfc63;" arabic-form="isolated" 
d="M294 618q-126 -2 -208.5 -85t-85.5 -208q3 -125 85.5 -208t208.5 -85q125 2 207.5 85t85.5 208q-3 125 -85.5 208t-207.5 85z" />
    <glyph glyph-name="circle-outline" unicode="&#xfc64;" arabic-form="final" 
d="M294 89q-101 3 -167 69t-69 167q3 101 69 167t167 69q100 -3 166 -69t69 -167q-3 -101 -69 -167t-166 -69zM294 618q-126 -2 -208.5 -85t-85.5 -208q3 -125 85.5 -208t208.5 -85q125 2 207.5 85t85.5 208q-3 125 -85.5 208t-207.5 85z" />
    <glyph glyph-name="alert-octagram" unicode="&#xfc65;" arabic-form="final" 
d="M0 203l51 122l-51 122l122 49l49 122l123 -50l122 50l49 -122l122 -49l-51 -122l51 -122l-122 -49l-49 -122l-122 50l-123 -50l-49 122zM323 175v60h-59v-60h59zM323 296v179h-59v-179h59z" />
    <glyph glyph-name="atom" unicode="&#xfc66;" arabic-form="final" 
d="M294 359q14 0 23.5 -10t9.5 -24.5t-9.5 -24t-24 -9.5t-24 9.5t-9.5 24t9.5 24.5t24.5 10zM26 592q39 36 110.5 23t157.5 -69q85 56 156.5 69t109 -24t24.5 -109t-70 -157q57 -85 70 -157t-24.5 -109t-109 -24t-156.5 69q-86 -56 -157.5 -69t-108.5 24t-24.5 109t69.5 157
q-57 85 -69.5 157t22.5 110zM416 447q31 -32 58 -66q36 57 46 99.5t-9 62t-62 9t-99 -46.5q34 -27 66 -58zM171 202q-31 33 -58 67q-35 -57 -45.5 -99.5t8.5 -62t62 -9t99 45.5q-34 28 -66 58zM74 544q-17 -21 -6.5 -63.5t45.5 -99.5q27 34 58.5 65.5t65.5 58.5
q-56 36 -99 46.5t-64 -7.5zM221 252q35 -37 73 -66q37 29 73 65.5t65 73.5q-29 37 -65 73.5t-73 65.5q-38 -29 -74 -65.5t-65 -73.5q29 -37 66 -73zM513 106q17 21 7 63.5t-46 99.5q-27 -34 -58.5 -65.5t-65.5 -59.5q56 -35 99 -45.5t64 7.5z" />
    <glyph glyph-name="ceiling-light" unicode="&#xfc67;" arabic-form="final" 
d="M148 434h109v184h73v-184h109l148 -294h-587zM367 104q-1 -30 -22 -51t-51.5 -21t-51.5 21t-22 51h147z" />
    <glyph glyph-name="chart-bar-stacked" unicode="&#xfc68;" arabic-form="final" 
d="M587 60h-587v530h58v-470h59v58h117v-58h60v88h117v-88h59v58h117v-118zM470 266h117v-58h-117v58zM294 501h117v-88h-117v88zM411 237h-117v147h117v-147zM117 384h117v-59h-117v59zM234 208h-117v88h117v-88z" />
    <glyph glyph-name="chart-line-stacked" unicode="&#xfc69;" arabic-form="final" 
d="M453 231l134 247v-418h-587v530h58v-470h76l129 222zM587 590v-14l-146 -222l-207 147l-117 -176v265h470z" />
    <glyph glyph-name="decagram" unicode="&#xfc6a;" arabic-form="final" 
d="M587 325l-65 74l9 98l-96 22l-50 85l-91 -39l-92 39l-50 -85l-96 -22l9 -97l-65 -75l65 -74l-9 -98l96 -23l50 -84l92 39l91 -39l50 85l96 22l-9 98z" />
    <glyph glyph-name="decagram-outline" unicode="&#xfc6b;" arabic-form="final" 
d="M587 325l-65 -74l9 -98l-96 -22l-50 -85l-91 39l-92 -39l-50 84l-96 23l9 98l-65 74l65 75l-9 97l96 22l50 85l92 -39l91 39l50 -85l96 -22l-9 -98zM516 325l-49 56l6 75l-73 15l-38 65l-68 -30l-69 30l-38 -65l-73 -15l6 -75l-49 -56l49 -56l-6 -75l73 -15l38 -65l69 30
l68 -30l38 65l73 16l-6 74z" />
    <glyph glyph-name="dice-multiple" unicode="&#xfc6c;" arabic-form="final" 
d="M547 618h-279q-17 0 -28 -11t-12 -28v-124h195v-196h124q17 2 28.5 12.5t11.5 27.5v280q0 17 -11.5 28t-28.5 11zM307 499q-17 0 -28 11.5t-11 28.5t11 28.5t29 11.5t28.5 -11.5t10.5 -28.5t-10.5 -28.5t-29.5 -11.5zM508 299q-17 0 -28.5 11.5t-11.5 29t10.5 28.5
t28 11.5t29 -11t11.5 -29t-11.5 -28t-27.5 -12.5zM508 499q-17 0 -28.5 11.5t-11.5 28.5t10.5 28.5t28 11.5t29 -11.5t11.5 -28.5t-11.5 -28.5t-27.5 -11.5zM40 391h279q17 -2 28 -12.5t12 -27.5v-280q-1 -17 -12 -28t-28 -11h-279q-17 0 -28.5 11t-11.5 28v280
q0 17 11.5 27.5t28.5 12.5zM179 250q-17 0 -27.5 -11.5t-10.5 -28t10.5 -27.5t27.5 -11t28.5 11t11.5 27.5t-11.5 28t-28.5 11.5zM79 351q-16 -2 -27.5 -12.5t-11.5 -27.5t11.5 -28.5t28 -11.5t28 11.5t11.5 28.5t-11.5 27.5t-28.5 12.5zM278 151q-17 0 -27.5 -11.5
t-10.5 -28.5t10.5 -27.5t27.5 -10.5t28.5 10.5t11.5 27.5t-10.5 28.5t-27.5 11.5h-2z" />
    <glyph glyph-name="dice-d10" unicode="&#xfc6d;" arabic-form="final" 
d="M575 361q12 -17 12 -36t-12 -36l-244 -244q-17 -15 -36 -15t-36 15l-244 244q-15 17 -15 36t15 36l244 244q17 15 36 15t36 -15zM539 325l-244 244l-244 -244l244 -244zM247 213h-44v171l-53 -16v36l93 33h4v-224zM351 442q32 0 53.5 -21.5t22.5 -52.5v-79
q-1 -32 -22.5 -53t-53 -21t-53 21t-22.5 53v79q1 31 22.5 52.5t52.5 21.5zM351 401q-13 -2 -21.5 -10t-9.5 -22v-81q1 -14 9.5 -22.5t22 -8.5t22.5 8.5t9 22.5v81q0 14 -9 22t-23 10z" />
    <glyph glyph-name="folder-open" unicode="&#xfc6e;" arabic-form="final" 
d="M470 103h-415q-24 1 -39.5 16.5t-15.5 39.5v332q0 24 15.5 39.5t39.5 16.5h166l56 -56h193q23 0 39.5 -16t16.5 -40h-471v-276l59 222h473l-62 -237q-6 -18 -20.5 -29t-34.5 -12z" />
    <glyph glyph-name="guitar-acoustic" unicode="&#xfc6f;" arabic-form="final" 
d="M513 603h74v-62h-49l-131 -130q-17 26 -43 43zM278 448q52 -1 87 -36t36 -87q0 -43 -25 -76t-67 -44v-3q-2 -67 -45.5 -110.5t-108.5 -44.5q-67 1 -110.5 44.5t-44.5 110.5q1 65 44.5 108.5t110.5 44.5h3q12 42 44.5 67.5t75.5 25.5zM278 371q-20 0 -33 -13t-13 -33
t13 -33t33.5 -13t33.5 13t13 33t-13 33t-34 13zM122 255l-22 -21l87 -87l22 21z" />
    <glyph glyph-name="loading" unicode="&#xfc70;" arabic-form="final" 
d="M587 503v115q-251 -5 -416 -170.5t-171 -415.5h116q5 201 137.5 333t333.5 138z" />
    <glyph glyph-name="lock-reset" unicode="&#xfc71;" arabic-form="final" 
d="M327 584q111 -3 184.5 -76.5t75.5 -182.5q-2 -109 -75.5 -182.5t-184.5 -76.5q-68 0 -124.5 32.5t-91.5 85.5l41 33q28 -45 73.5 -72t102.5 -28q88 3 146 61t61 147q-3 89 -61 147t-146 61q-81 -3 -137.5 -53t-68.5 -129h71l-96 -96l-97 96h69q12 100 84 165t174 68z
M405 371q9 -1 16 -7.5t7 -16.5v-119q0 -11 -7 -18t-18 -7h-143q-10 0 -16.5 7t-6.5 18v119q0 10 6.5 16.5t16.5 7.5v26q1 30 21 50.5t50.5 20.5t51 -20.5t22.5 -50.5v-26zM332 432q-15 0 -25 -9.5t-10 -25.5v-26h71v26q-1 16 -10.5 25.5t-25.5 9.5z" />
    <glyph glyph-name="ninja" unicode="&#xfc72;" arabic-form="final" 
d="M168 296q0 15 13 26q33 -7 62 -26q-2 -16 -12.5 -26t-25.5 -10.5t-25.5 10t-11.5 26.5zM344 296q29 19 62 26q13 -11 12.5 -26.5t-11 -26t-25.5 -10.5t-25.5 10.5t-12.5 26.5zM294 413q-125 2 -233 -59l-3 -29q0 -55 25 -105q104 17 210.5 17t210.5 -17q25 50 25 105
l-3 29q-108 61 -232 59zM294 618q125 -2 207.5 -85t85.5 -208q-3 -125 -85.5 -208t-207.5 -85q-126 2 -208.5 85t-85.5 208q3 125 85.5 208t208.5 85z" />
    <glyph glyph-name="octagram-outline" unicode="&#xfc73;" arabic-form="final" 
d="M0 203l51 122l-51 122l122 49l49 122l123 -50l122 50l49 -122l122 -49l-51 -122l51 -122l-122 -49l-49 -122l-122 50l-123 -50l-49 122zM79 415l36 -90l-36 -90l88 -36l37 -89l90 37l89 -37l37 89l88 36l-36 90l36 90l-88 36l-37 89l-89 -37l-90 37l-37 -89z" />
    <glyph glyph-name="pencil-circle-outline" unicode="&#xfc74;" arabic-form="final" 
d="M146 238l179 179l61 -60l-179 -179h-61v60zM294 89q100 3 166 69t69 167q-3 101 -69 167t-166 69q-101 -3 -167 -69t-69 -167q3 -101 69 -167t167 -69zM431 404l-29 -31l-60 61l30 29q11 9 22 0l37 -37q10 -11 0 -22zM294 618q125 -2 207.5 -85t85.5 -208
q-3 -125 -85.5 -208t-207.5 -85q-126 2 -208.5 85t-85.5 208q3 125 85.5 208t208.5 85z" />
    <glyph glyph-name="selection-off" unicode="&#xfc75;" arabic-form="final" 
d="M0 571l35 35l539 -540l-34 -34l-41 41h-48v47l-363 363h-47v47zM95 618h82v-53h-32l-54 53h4zM587 565v-82h-54v82h-82v53h82q23 0 38.5 -15t15.5 -38zM533 208h54v-86l-54 54v32zM41 126v82h54v-82h82v-53h-82q-23 0 -38.5 15t-15.5 38zM259 618h110v-53h-110v53z
M259 126h110v-53h-110v53zM533 401h54v-111h-54v111zM41 401h54v-111h-54v111z" />
    <glyph glyph-name="set-all" unicode="&#xfc76;" arabic-form="final" 
d="M205 530q47 0 89 -19q41 19 88 19q88 -1 146 -59t59 -146q-1 -88 -59 -146t-146 -59q-47 0 -88 19q-42 -19 -89 -19q-88 1 -146 59t-59 146q1 88 59 146t146 59zM190 325q2 -41 17.5 -77t43.5 -62l30 12q-29 24 -45 56t-16 71t16 71t45 56l-30 12q-28 -26 -43.5 -62
t-17.5 -77zM397 325q-2 41 -17.5 77t-43.5 62l-30 -12q29 -24 45 -56t16 -71t-16 -71t-45 -56l30 -12q28 26 43.5 62t17.5 77z" />
    <glyph glyph-name="set-center" unicode="&#xfc77;" arabic-form="final" 
d="M205 530q-88 -1 -146 -59t-59 -146q1 -88 59 -146t146 -59q47 0 89 19q41 -19 88 -19q88 1 146 59t59 146q-1 88 -59 146t-146 59q-47 0 -88 -19q-42 19 -89 19zM205 472q15 0 29 -2q-27 -31 -42.5 -67.5t-15.5 -77.5t15.5 -77.5t42.5 -65.5q-14 -4 -29 -4q-62 1 -104 43
t-43 104q1 62 43 104t104 43zM382 472q62 -1 104 -43t43 -104q-1 -62 -43 -104t-104 -43q-15 0 -29 2q27 31 42.5 67.5t15.5 77.5t-15.5 77.5t-42.5 65.5q14 4 29 4z" />
    <glyph glyph-name="set-center-right" unicode="&#xfc78;" arabic-form="final" 
d="M382 120q-47 0 -88 19q-42 -19 -89 -19q-88 1 -146 59t-59 146q1 88 59 146t146 59q47 0 89 -19q41 19 88 19q88 -1 146 -59t59 -146q-1 -88 -59 -146t-146 -59zM205 178l29 4q-27 29 -42.5 65.5t-15.5 77.5t15.5 77.5t42.5 67.5l-29 2q-62 -1 -104 -43t-43 -104
q1 -62 43 -104t104 -43zM397 325q-2 41 -17.5 77t-43.5 62l-30 -12q29 -24 45 -56t16 -71t-16 -71t-45 -56l30 -12q28 26 43.5 62t17.5 77z" />
    <glyph glyph-name="set-left" unicode="&#xfc79;" arabic-form="final" 
d="M205 530q-88 -1 -146 -59t-59 -146q1 -88 59 -146t146 -59q47 0 89 19q41 -19 88 -19q88 1 146 59t59 146q-1 88 -59 146t-146 59q-47 0 -88 -19q-42 19 -89 19zM382 472q62 -1 104 -43t43 -104q-1 -62 -43 -104t-104 -43q-15 0 -29 2q27 31 42.5 67.5t15.5 77.5
t-15.5 77.5t-42.5 65.5q14 4 29 4zM294 442q27 -21 43 -52t16 -65t-16 -65t-43 -52q-28 21 -44 52t-16 65t16 65t44 52z" />
    <glyph glyph-name="set-left-center" unicode="&#xfc7a;" arabic-form="final" 
d="M205 530q47 0 89 -19q41 19 88 19q88 -1 146 -59t59 -146q-1 -88 -59 -146t-146 -59q-47 0 -88 19q-42 -19 -89 -19q-88 1 -146 59t-59 146q1 88 59 146t146 59zM382 472l-29 -4q27 -29 42.5 -65.5t15.5 -77.5t-15.5 -77.5t-42.5 -67.5l29 -2q62 1 104 43t43 104
q-1 62 -43 104t-104 43zM190 325q2 -41 17.5 -77t43.5 -62l30 12q-29 24 -45 56t-16 71t16 71t45 56l-30 12q-28 -26 -43.5 -62t-17.5 -77z" />
    <glyph glyph-name="set-left-right" unicode="&#xfc7b;" arabic-form="final" 
d="M205 530q47 0 89 -19q41 19 88 19q88 -1 146 -59t59 -146q-1 -88 -59 -146t-146 -59q-47 0 -88 19q-42 -19 -89 -19q-88 1 -146 59t-59 146q1 88 59 146t146 59zM205 325q0 -50 24.5 -90t64.5 -63q39 23 63.5 63t24.5 90t-24.5 90t-63.5 63q-40 -23 -64.5 -63t-24.5 -90z
" />
    <glyph glyph-name="set-none" unicode="&#xfc7c;" arabic-form="final" 
d="M205 530q-88 -1 -146 -59t-59 -146q1 -88 59 -146t146 -59q47 0 89 19q41 -19 88 -19q88 1 146 59t59 146q-1 88 -59 146t-146 59q-47 0 -88 -19q-42 19 -89 19zM205 472q15 0 29 -2q-27 -31 -42.5 -67.5t-15.5 -77.5t15.5 -77.5t42.5 -65.5q-14 -4 -29 -4q-62 1 -104 43
t-43 104q1 62 43 104t104 43zM382 472q62 -1 104 -43t43 -104q-1 -62 -43 -104t-104 -43q-15 0 -29 2q27 31 42.5 67.5t15.5 77.5t-15.5 77.5t-42.5 65.5q14 4 29 4zM294 442q27 -21 43 -52t16 -65t-16 -65t-43 -52q-28 21 -44 52t-16 65t16 65t44 52z" />
    <glyph glyph-name="set-right" unicode="&#xfc7d;" arabic-form="final" 
d="M382 120q-47 0 -88 19q-42 -19 -89 -19q-88 1 -146 59t-59 146q1 88 59 146t146 59q47 0 89 -19q41 19 88 19q88 -1 146 -59t59 -146q-1 -88 -59 -146t-146 -59zM205 178l29 4q-27 29 -42.5 65.5t-15.5 77.5t15.5 77.5t42.5 67.5l-29 2q-62 -1 -104 -43t-43 -104
q1 -62 43 -104t104 -43zM294 208q27 21 43 52t16 65t-16 65t-43 52q-28 -21 -44 -52t-16 -65t16 -65t44 -52z" />
    <glyph glyph-name="shield-half-full" unicode="&#xfc7e;" arabic-form="final" 
d="M587 357q-3 -139 -84 -247.5t-209 -143.5q-129 35 -210 143.5t-84 247.5v196l294 131l293 -131v-196zM294 32q94 27 160 118t67 201v160l-227 101v-580z" />
    <glyph glyph-name="sign-direction" unicode="&#xfc7f;" arabic-form="final" 
d="M259 325h-259l86 86l-86 88h259v137l35 34l34 -34v-137h173l86 -88l-86 -86h-173v-277q29 0 49 -19.5t20 -48.5h-207q0 29 20 48.5t49 19.5v277z" />
    <glyph glyph-name="sign-text" unicode="&#xfc80;" arabic-form="final" 
d="M261 618l33 33l32 -33v-65h229q14 0 23 -9.5t9 -22.5v-326q0 -14 -9 -23t-23 -11h-229v-97q27 0 46 -18.5t19 -46.5h-195q0 28 19 46.5t46 18.5v97h-229q-14 2 -23 11t-9 23v326q0 13 9 22.5t23 9.5h229v65zM98 455v-64h391v64h-391zM98 325v-66h228v66h-228z" />
    <glyph glyph-name="signal-off" unicode="&#xfc81;" arabic-form="final" 
d="M489 651v-429l98 -98v527h-98zM41 586l-41 -42l252 -252h-88v-228h97v220l65 -65v-155h97v57l123 -122l41 42zM326 456v-72l97 -98v170h-97zM0 162v-98h98v98h-98z" />
    <glyph glyph-name="square-root" unicode="&#xfc82;" arabic-form="final" 
d="M287 198l82 82l-82 84l41 42l83 -84l84 84l41 -42l-84 -84l84 -82l-41 -42l-84 83l-83 -83zM0 368h88l68 -158l78 306h353v-59h-307l-84 -323h-72l-74 177h-50v57z" />
    <glyph glyph-name="sticker-emoji" unicode="&#xfc83;" arabic-form="final" 
d="M102 618q-43 0 -72.5 -29.5t-29.5 -71.5v-384q0 -42 29.5 -71.5t72.5 -29.5h309l176 176v309q0 42 -29.5 71.5t-72.5 29.5h-383zM110 561h367q22 -2 36.5 -16.5t15.5 -36.5v-271h-44q-44 -2 -73 -30.5t-30 -73.5v-44h-272q-22 2 -36.5 16.5t-15.5 36.5v366
q1 22 15.5 36.5t36.5 16.5zM365 479q-7 0 -14 -2q-20 -6 -30.5 -24t-4.5 -40q1 -7 5 -12l95 25q0 8 -1 15q-6 16 -19 26.5t-31 11.5zM181 428q-7 0 -14 -1q-21 -7 -31.5 -25t-4.5 -38q1 -7 7 -14l93 26q0 7 -1 14q-4 18 -18 28t-31 10zM433 347l-269 -74q30 -33 71.5 -46.5
t85.5 -1.5t73.5 44.5t38.5 77.5z" />
    <glyph glyph-name="summit" unicode="&#xfc84;" arabic-form="final" 
d="M382 590h59l146 -60l-146 -58v-93l146 -319h-587l176 236l102 -139l104 222v211z" />
    <glyph glyph-name="sword-cross" unicode="&#xfc85;" arabic-form="final" 
d="M133 591l329 -329l58 58l39 -38l-68 -68l88 -87q8 -10 8 -20.5t-8 -18.5l-20 -21q-8 -8 -19 -8t-20 8l-88 88l-67 -69l-39 39l58 60l-328 328v78h77zM401 383l130 130v78h-77l-131 -131zM264 244l-78 79l-61 -61l-58 58l-39 -38l68 -68l-88 -89q-8 -8 -8 -18.5t8 -20.5
l20 -19q8 -8 19 -8t20 8l88 88l67 -69l39 39l-58 60z" />
    <glyph glyph-name="truck-fast" unicode="&#xfc86;" arabic-form="final" 
d="M68 287l-18 37h129l-15 37h-120l-19 38h193l-15 37h-181l-22 37h93q1 20 15 34t34 15h297v-99h74l74 -99v-123h-50q0 -32 -20.5 -52.5t-52.5 -20.5t-53 20.5t-22 52.5h-98q-2 -32 -22.5 -52.5t-52 -20.5t-52 20.5t-22.5 52.5h-49v86h-25zM463 163q16 2 26.5 12t10.5 26
t-10.5 26.5t-26 10.5t-26 -10.5t-10.5 -26.5t10.5 -26t25.5 -12zM500 386h-61v-62h110zM217 163q16 2 26.5 12t10.5 26t-10.5 26.5t-27 10.5t-27 -10.5t-10.5 -26.5t10.5 -26t27.5 -12z" />
    <glyph glyph-name="yammer" unicode="&#xfc87;" arabic-form="final" 
d="M326 529l-145 -370q0 -8 -28.5 -44t-102.5 -40q-14 0 -24 9t-10 23t10 23.5t24 9.5q38 3 53.5 20t15.5 22l12 33l-129 314q-5 14 0.5 26.5t19 17.5t26 0t16.5 -19l103 -249l97 249q6 14 17.5 19t25 0t19 -17.5t0.5 -26.5zM491 515q-9 0 -17.5 -6t-68.5 -51t-63 -59
q14 -4 82.5 26.5t77.5 35.5q17 6 17 26q0 11 -8 19.5t-20 8.5zM516 168q-5 8 -14 12.5t-78.5 34t-81.5 26.5q3 -14 63 -59t69 -50q14 -12 31 -3q11 6 14 17t-3 22zM572 347q-8 6 -19 4.5t-85 -10.5t-84 -20q10 -10 85 -17.5t86 -7.5q17 -3 28 14q6 9 3 20t-14 17z" />
    <glyph glyph-name="cast-off" unicode="&#xfc88;" arabic-form="final" 
d="M34 594l-34 -38l29 -26q-9 -12 -10 -30v-75h50v69l381 -344h-105v-50h160l48 -44l34 38zM157 550l55 -50h308v-278l51 -46v324q-2 22 -16 36t-35 14h-363zM19 375v-50q96 -2 159.5 -65.5t65.5 -159.5h51q-4 117 -81.5 194.5t-194.5 80.5zM19 275v-50q54 -1 89 -37t36 -88
h51q-2 75 -51.5 124t-124.5 51zM19 175v-75h75q0 31 -21 52.5t-54 22.5z" />
    <glyph glyph-name="help-box" unicode="&#xfc89;" arabic-form="final" 
d="M261 129h65v66h-65v-66zM294 521q-56 -2 -92.5 -38.5t-37.5 -91.5h64q1 27 19.5 45.5t46 18.5t46 -18.5t19.5 -45.5q-6 -43 -48.5 -66.5t-49.5 -97.5h65q6 51 48.5 79t48.5 85q-1 55 -37.5 91.5t-91.5 38.5zM66 618h455q28 0 47 -19t19 -46v-456q0 -27 -19 -46t-47 -19
h-455q-28 0 -47 19t-19 46v456q0 27 19 46t47 19z" />
    <glyph glyph-name="timer-sand-full" unicode="&#xfc8a;" arabic-form="final" 
d="M0 813v-293l195 -195l-195 -195v-293h587v293l-195 195l195 195v293h-587z" />
    <glyph glyph-name="waves" unicode="&#xfc8b;" arabic-form="final" 
d="M0 163q48 24 97 41t99 18q48 -4 97.5 -29.5t97.5 -29.5q50 4 99 29.5t97 29.5v-88q-48 -4 -97 -29.5t-99 -29.5q-48 4 -97.5 29.5t-97.5 29.5q-50 -1 -99 -18.5t-97 -40.5v88zM0 339q48 24 97 41t99 19q48 -4 97.5 -29.5t97.5 -30.5q50 5 99 30.5t97 29.5v-88
q-48 -5 -97 -30.5t-99 -29.5q-48 4 -97.5 29.5t-97.5 30.5q-50 -2 -99 -19t-97 -41v88zM0 516q48 23 97 40.5t99 18.5q48 -4 97.5 -29.5t97.5 -29.5q50 4 99 29.5t97 29.5v-88q-48 -4 -97 -29.5t-99 -29.5q-48 4 -97.5 29.5t-97.5 29.5q-50 -1 -99 -18.5t-97 -40.5v88z" />
    <glyph glyph-name="alarm-bell" unicode="&#xfc8c;" arabic-form="final" 
d="M382 129v-97h-294v97q69 -40 147 -40t147 40zM587 561q0 24 -16.5 40.5t-41.5 16.5q-14 0 -27 -6t-21 -18q-14 -21 -10.5 -43.5t24.5 -38.5q15 -11 34 -11h7q37 -100 11.5 -198.5t-106.5 -169.5q-15 -11 -30 -20v-53h30v38q69 51 107.5 125t38.5 161q0 66 -23 128
q23 18 23 49zM470 384q-3 -100 -69 -166.5t-167 -68.5q-99 2 -166 68.5t-68 166.5q1 99 68 166t166 68q101 -1 167 -68t69 -166z" />
    <glyph glyph-name="alarm-light" unicode="&#xfc8d;" arabic-form="final" 
d="M126 453l-59 59l39 40l59 -59zM321 618v-83h-55v83h55zM520 512l-59 -59l-39 40l59 59zM84 353v-57h-84v57h84zM503 353h84v-57h-84v57zM126 87h335q24 0 39.5 -16t17.5 -39h-449q2 23 17.5 39t39.5 16zM294 506q70 -1 118 -48.5t49 -119.5v-223h-335v223q1 72 49 119.5
t119 48.5z" />
    <glyph glyph-name="android-head" unicode="&#xfc8e;" arabic-form="final" 
d="M176 317q-16 -1 -26.5 -11.5t-10.5 -25.5t10.5 -25.5t26.5 -10.5t26 10.5t10 25.5t-10 25.5t-26 11.5zM411 317q-16 -1 -26 -11.5t-10 -25.5t10 -25.5t26 -10.5t26.5 10.5t10.5 25.5t-10.5 25.5t-26.5 11.5zM294 450q66 -2 122 -28l64 64q9 9 21 9t21 -9t9 -20.5
t-10 -21.5l-53 -52q56 -42 87.5 -103t31.5 -134h-587q0 73 31.5 134t87.5 103l-53 52q-10 10 -10 21.5t9 20.5t21 9t21 -9l64 -64q56 26 123 28z" />
    <glyph glyph-name="approval" unicode="&#xfc8f;" arabic-form="final" 
d="M587 325l-65 74l9 98l-96 22l-50 85l-91 -39l-92 39l-50 -85l-96 -22l9 -97l-65 -75l65 -74l-9 -98l96 -23l50 -84l92 39l91 -39l50 85l96 22l-9 98zM240 191l-106 108l37 37l69 -68l176 174l37 -37z" />
    <glyph glyph-name="arrow-collapse-down" unicode="&#xfc90;" arabic-form="final" 
d="M526 322l-232 -233l-233 233l41 42l163 -162v416h57v-416l163 163zM294 89h-294v-57h587v57h-293z" />
    <glyph glyph-name="arrow-collapse-left" unicode="&#xfc91;" arabic-form="final" 
d="M291 92l-233 233l233 233l41 -41l-161 -163h416v-58h-416l162 -163zM58 325v293h-58v-586h58v293z" />
    <glyph glyph-name="arrow-collapse-right" unicode="&#xfc92;" arabic-form="final" 
d="M296 558l233 -233l-233 -233l-41 41l161 163h-416v58h416l-161 163zM529 325v-293h58v586h-58v-293z" />
    <glyph glyph-name="arrow-collapse-up" unicode="&#xfc93;" arabic-form="final" 
d="M61 328l233 233l232 -233l-41 -42l-163 162v-416h-57v416l-163 -162zM294 561h293v57h-587v-57h294z" />
    <glyph glyph-name="arrow-expand-down" unicode="&#xfc94;" arabic-form="final" 
d="M587 561v57h-587v-57h265v-418l-163 163l-41 -42l233 -232l232 232l-41 42l-163 -163v418h265z" />
    <glyph glyph-name="arrow-expand-left" unicode="&#xfc95;" arabic-form="final" 
d="M529 32h58v586h-58v-264h-417l162 163l-41 41l-233 -233l233 -233l41 41l-162 163h417v-264z" />
    <glyph glyph-name="arrow-expand-right" unicode="&#xfc96;" arabic-form="final" 
d="M58 618h-58v-586h58v264h417l-162 -163l41 -41l233 233l-233 233l-41 -41l162 -163h-417v264z" />
    <glyph glyph-name="arrow-expand-up" unicode="&#xfc97;" arabic-form="initial" 
d="M0 89v-57h587v57h-265v418l163 -163l41 42l-232 232l-233 -232l41 -42l163 163v-418h-265z" />
    <glyph glyph-name="book-secure" unicode="&#xfc98;" arabic-form="initial" 
d="M513 691h-219v-256l-91 55l-93 -55v256h-36q-31 0 -51.5 -21t-22.5 -52v-586q2 -31 22.5 -52t51.5 -21h439q31 0 51.5 21t22.5 52v586q-2 31 -22.5 52t-51.5 21zM513 32h-293v147h37v36q0 46 31 77t78.5 31t78 -31t32.5 -77v-36h36v-147zM403 215v-36h-73v36
q1 16 11.5 26t26 10t25.5 -10t10 -26z" />
    <glyph glyph-name="book-unsecure" unicode="&#xfc99;" arabic-form="initial" 
d="M513 691h-219v-256l-91 55l-93 -55v256h-36q-31 0 -51.5 -21t-22.5 -52v-586q2 -31 22.5 -52t51.5 -21h439q31 0 51.5 21t22.5 52v586q-2 31 -22.5 52t-51.5 21zM513 32h-293v147h37v72q0 48 31 79t78.5 31t78 -31t32.5 -79h-74q0 16 -10 26t-25.5 10t-26 -10t-11.5 -26
v-72h183v-147z" />
    <glyph glyph-name="bus-articulated-end" unicode="&#xfc9a;" arabic-form="initial" 
d="M587 509l-46 -46l46 -46l-46 -46l46 -47l-46 -46l46 -46h-278q-1 -39 -27 -65t-66 -26t-66 26t-26 65h-124v215q1 28 18.5 45t43.5 17h525zM494 463h-108v-77h108v77zM340 463h-123v-77h123v77zM171 463h-125v-77h125v77zM217 278q-20 0 -33 -13t-13 -33t13 -33.5
t32.5 -13.5t32.5 13.5t13 33.5t-13 33t-32 13z" />
    <glyph glyph-name="bus-articulated-front" unicode="&#xfc9b;" arabic-form="initial" 
d="M0 484l40 -40l-40 -40l40 -40l-40 -40l40 -40l-40 -40h54q1 -33 23.5 -55.5t56 -22.5t56 22.5t24.5 55.5h159q2 -33 24.5 -55.5t56 -22.5t56 22.5t23.5 55.5h54v187q-1 23 -16 38t-38 15h-533zM80 444h67v-66h-67v66zM187 444h107v-66h-107v66zM333 444h107v-66h-107v66z
M480 444h67v-146l-67 53v93zM134 284q17 0 28.5 -11t11.5 -28.5t-11.5 -29t-29 -11.5t-28.5 11.5t-11 29t11 28.5t29 11zM453 284q18 0 29 -11t11 -28.5t-11 -29t-28.5 -11.5t-29 11.5t-11.5 29t11.5 28.5t28.5 11z" />
    <glyph glyph-name="bus-double-decker" unicode="&#xfc9c;" arabic-form="initial" 
d="M54 538q-23 -1 -38 -16t-16 -38v-293h54q1 -34 23.5 -56.5t56 -22.5t56 22.5t24.5 56.5h159q2 -34 24.5 -56.5t56 -22.5t56 22.5t23.5 56.5h54v80q-1 23 -16 38t-38 15h-53v67h107v93q-1 23 -16 38t-38 16h-479zM40 498h107v-67h-107v67zM187 498h107v-67h-107v67z
M333 498h107v-67h-107v67zM480 498h67v-67h-67v67zM333 391h107v-67h-107v67zM40 391h107v-67h-107v67zM187 391h107v-67h-107v67zM134 231q17 0 28.5 -11.5t11.5 -28t-11.5 -28t-29 -11.5t-28.5 11.5t-11 28t11 28t29 11.5zM453 231q18 0 29 -11.5t11 -28t-11 -28
t-28.5 -11.5t-29 11.5t-11.5 28t11.5 28t28.5 11.5z" />
    <glyph glyph-name="bus-school" unicode="&#xfc9d;" arabic-form="initial" 
d="M54 484q-23 0 -38 -15t-16 -38v-187h54q1 -33 23.5 -55.5t56 -22.5t56 22.5t24.5 55.5h159q2 -33 24.5 -55.5t56 -22.5t56 22.5t23.5 55.5h54v80q-1 23 -16 38t-38 16h-53v53q0 23 -15 38t-38 15h-373zM333 444h107v-66h-107v66zM40 444h107v-66h-107v66zM187 444h107
v-66h-107v66zM134 284q17 0 28.5 -11t11.5 -28.5t-11.5 -29t-29 -11.5t-28.5 11.5t-11 29t11 28.5t29 11zM453 284q18 0 29 -11t11 -28.5t-11 -29t-28.5 -11.5t-29 11.5t-11.5 29t11.5 28.5t28.5 11z" />
    <glyph glyph-name="bus-side" unicode="&#xfc9e;" arabic-form="initial" 
d="M54 484q-23 0 -38 -15t-16 -38v-187h54q1 -33 23.5 -55.5t56 -22.5t56 22.5t24.5 55.5h159q2 -33 24.5 -55.5t56 -22.5t56 22.5t23.5 55.5h54v187q-1 23 -16 38t-38 15h-479zM40 444h107v-66h-107v66zM187 444h107v-66h-107v66zM333 444h107v-66h-107v66zM480 444h67
v-146l-67 53v93zM134 284q17 0 28.5 -11t11.5 -28.5t-11.5 -29t-29 -11.5t-28.5 11.5t-11 29t11 28.5t29 11zM453 284q18 0 29 -11t11 -28.5t-11 -29t-28.5 -11.5t-29 11.5t-11.5 29t11.5 28.5t28.5 11z" />
    <glyph glyph-name="camera-gopro" unicode="&#xfc9f;" arabic-form="initial" 
d="M529 530h-147q-25 0 -41.5 -16.5t-18.5 -41.5v-147q2 -25 18.5 -41.5t41.5 -17.5h147q25 1 41.5 17.5t16.5 41.5v147q0 25 -16.5 41.5t-41.5 16.5zM455 310q-37 1 -62 26t-25 63t25 62.5t62.5 24.5t62.5 -24.5t25 -62.5t-25 -63t-63 -26zM455 354q-18 1 -30.5 13.5
t-12.5 31t12.5 31t31 12.5t31 -12.5t12.5 -31t-12.5 -31t-31.5 -13.5zM294 237v293h-236q-25 0 -41.5 -16.5t-16.5 -41.5v-294q0 -25 16.5 -41.5t41.5 -16.5h471q25 0 41.5 16.5t16.5 41.5v59h-293zM234 325h-176v147h176v-147z" />
    <glyph glyph-name="camera-metering-center" unicode="&#xfca0;" arabic-form="initial" 
d="M58 561h471q25 -2 41.5 -18.5t16.5 -41.5v-352q0 -25 -16.5 -41.5t-41.5 -18.5h-471q-25 2 -41.5 18.5t-16.5 41.5v352q0 25 16.5 41.5t41.5 18.5zM58 501v-352h471v352h-471zM294 369q19 0 31.5 -12.5t12.5 -31.5t-12.5 -31.5t-32 -12.5t-32 12.5t-12.5 31.5t12.5 31.5
t32.5 12.5zM294 457q48 -1 83 -29.5t46 -73.5h-47q-9 26 -31.5 42.5t-51 16.5t-51 -16.5t-31.5 -42.5h-47q11 45 46 73.5t84 29.5zM294 193q-49 1 -84 29.5t-46 73.5h47q9 -26 31.5 -42.5t51 -16.5t51 16.5t31.5 42.5h47q-11 -45 -46 -73.5t-83 -29.5z" />
    <glyph glyph-name="camera-metering-matrix" unicode="&#xfca1;" arabic-form="initial" 
d="M58 561h471q25 -2 41.5 -18.5t16.5 -41.5v-352q0 -25 -16.5 -41.5t-41.5 -18.5h-471q-25 2 -41.5 18.5t-16.5 41.5v352q0 25 16.5 41.5t41.5 18.5zM58 501v-352h471v352h-471zM102 457h163v-49q-20 -7 -33.5 -21t-20.5 -33h-109v103zM485 457v-103h-109q-7 19 -20.5 33
t-33.5 21v49h163zM485 193h-163v49q20 7 33.5 21t20.5 33h109v-103zM102 193v103h109q7 -19 20.5 -33t33.5 -21v-49h-163zM294 369q19 0 31.5 -12.5t12.5 -31.5t-12.5 -31.5t-32 -12.5t-32 12.5t-12.5 31.5t12.5 31.5t32.5 12.5z" />
    <glyph glyph-name="camera-metering-partial" unicode="&#xfca2;" arabic-form="initial" 
d="M58 561h471q25 -2 41.5 -18.5t16.5 -41.5v-352q0 -25 -16.5 -41.5t-41.5 -18.5h-471q-25 2 -41.5 18.5t-16.5 41.5v352q0 25 16.5 41.5t41.5 18.5zM58 501v-352h471v352h-471zM294 457q48 -1 83 -29.5t46 -73.5h-47q-9 26 -31.5 42.5t-51 16.5t-51 -16.5t-31.5 -42.5h-47
q11 45 46 73.5t84 29.5zM294 193q-49 1 -84 29.5t-46 73.5h47q9 -26 31.5 -42.5t51 -16.5t51 16.5t31.5 42.5h47q-11 -45 -46 -73.5t-83 -29.5z" />
    <glyph glyph-name="camera-metering-spot" unicode="&#xfca3;" arabic-form="initial" 
d="M58 561h471q25 -2 41.5 -18.5t16.5 -41.5v-352q0 -25 -16.5 -41.5t-41.5 -18.5h-471q-25 2 -41.5 18.5t-16.5 41.5v352q0 25 16.5 41.5t41.5 18.5zM58 501v-352h471v352h-471zM294 369q19 0 31.5 -12.5t12.5 -31.5t-12.5 -31.5t-32 -12.5t-32 12.5t-12.5 31.5t12.5 31.5
t32.5 12.5z" />
    <glyph glyph-name="cannabis" unicode="&#xfca4;" arabic-form="initial" 
d="M275 -41v170q-12 -22 -42 -46t-85 -45q0 4 16 37.5t54 67.5q-36 -9 -90 -3t-128 39q3 4 59 24.5t135 13.5q-45 24 -94.5 83t-92.5 167q7 2 92 -39t155 -144q-46 142 -8.5 270t48.5 137q63 -150 64 -251t-23 -154q68 101 153 142t92 39q-43 -108 -92.5 -167t-94.5 -83
q79 7 135 -13.5t59 -24.5q-74 -33 -128 -39t-90 3q38 -34 54 -67.5t16 -37.5q-55 21 -85 45t-42 46v-170h-37z" />
    <glyph glyph-name="car-convertible" unicode="&#xfca5;" arabic-form="initial" 
d="M400 484l-27 -20l67 -86h-107v40h-39v-40h-240q-23 -1 -38 -16t-16 -38v-80h54q1 -33 23.5 -55.5t56 -22.5t56 22.5t24.5 55.5h159q2 -33 24.5 -55.5t56 -22.5t56 22.5t23.5 55.5h54v80q-1 23 -16 38t-38 16h-53zM134 284q17 0 28.5 -11t11.5 -28.5t-11.5 -29t-29 -11.5
t-28.5 11.5t-11 29t11 28.5t29 11zM453 284q18 0 29 -11t11 -28.5t-11 -29t-28.5 -11.5t-29 11.5t-11.5 29t11.5 28.5t28.5 11z" />
    <glyph glyph-name="car-estate" unicode="&#xfca6;" arabic-form="initial" 
d="M54 484h346l80 -106h53q23 -1 38 -16t16 -38v-80h-54q-1 -33 -23.5 -55.5t-56 -22.5t-56 22.5t-24.5 55.5h-159q-2 -33 -24.5 -55.5t-56 -22.5t-56 22.5t-23.5 55.5h-54v187q1 23 16 38t38 15zM40 444v-66h214v66h-214zM294 444v-66h137l-51 66h-86zM134 284
q-18 0 -29 -11t-11 -28.5t11 -29t28.5 -11.5t29 11.5t11.5 29t-11.5 28.5t-28.5 11zM453 284q-17 0 -28.5 -11t-11.5 -28.5t11.5 -29t29 -11.5t28.5 11.5t11 29t-11 28.5t-29 11z" />
    <glyph glyph-name="car-hatchback" unicode="&#xfca7;" arabic-form="initial" 
d="M400 484h-266l-134 -160v-80h54q1 -33 23.5 -55.5t56 -22.5t56 22.5t24.5 55.5h159q2 -33 24.5 -55.5t56 -22.5t56 22.5t23.5 55.5h54v80q-1 23 -16 38t-38 16h-53zM147 444h107v-66h-160zM294 444h93l51 -66h-144v66zM134 284q17 0 28.5 -11t11.5 -28.5t-11.5 -29
t-29 -11.5t-28.5 11.5t-11 29t11 28.5t29 11zM453 284q18 0 29 -11t11 -28.5t-11 -29t-28.5 -11.5t-29 11.5t-11.5 29t11.5 28.5t28.5 11z" />
    <glyph glyph-name="car-pickup" unicode="&#xfca8;" arabic-form="initial" 
d="M400 484h-146v-106h-254v-134h54q1 -33 23.5 -55.5t56 -22.5t56 22.5t24.5 55.5h159q2 -33 24.5 -55.5t56 -22.5t56 22.5t23.5 55.5h54v80q-1 23 -16 38t-38 16h-53zM294 444h93l51 -66h-144v66zM134 284q17 0 28.5 -11t11.5 -28.5t-11.5 -29t-29 -11.5t-28.5 11.5
t-11 29t11 28.5t29 11zM453 284q18 0 29 -11t11 -28.5t-11 -29t-28.5 -11.5t-29 11.5t-11.5 29t11.5 28.5t28.5 11z" />
    <glyph glyph-name="car-side" unicode="&#xfca9;" arabic-form="initial" 
d="M400 484l80 -106h53q23 -1 38 -16t16 -38v-80h-54q-1 -33 -23.5 -55.5t-56 -22.5t-56 22.5t-24.5 55.5h-159q-2 -33 -24.5 -55.5t-56 -22.5t-56 22.5t-23.5 55.5h-54v80q1 23 16 38t38 16l80 106h266zM254 444h-100l-50 -66h150v66zM294 444v-66h137l-51 66h-86zM134 284
q-18 0 -29 -11t-11 -28.5t11 -29t28.5 -11.5t29 11.5t11.5 29t-11.5 28.5t-28.5 11zM453 284q-17 0 -28.5 -11t-11.5 -28.5t11.5 -29t29 -11.5t28.5 11.5t11 29t-11 28.5t-29 11z" />
    <glyph glyph-name="car-sports" unicode="&#xfcaa;" arabic-form="initial" 
d="M294 452h-134l-80 -68h-26q-23 0 -38 -15t-16 -37v-80h59q8 -25 28 -39.5t46.5 -14.5t46.5 14.5t29 39.5h169q9 -25 29 -39.5t46.5 -14.5t46.5 14.5t28 39.5h59v26q-1 21 -17.5 32.5t-36.5 21.5zM114 358l60 54h106l107 -54h-273zM134 318q17 0 28.5 -11t11.5 -28.5
t-11.5 -29t-29 -11.5t-28.5 11.5t-11 29t11 28.5t29 11zM453 318q18 0 29 -11t11 -28.5t-11 -29t-28.5 -11.5t-29 11.5t-11.5 29t11.5 28.5t28.5 11z" />
    <glyph glyph-name="caravan" unicode="&#xfcab;" arabic-form="initial" 
d="M58 560q-25 -1 -41.5 -18t-16.5 -41v-324h58q1 -37 26 -62t63 -25t62.5 25t24.5 62h353v59h-88v265q0 24 -16.5 41t-41.5 18h-383zM88 412h117v-88h-117v88zM294 412h117v-176h-117v176zM146 207q12 -1 20.5 -9.5t8.5 -21t-8.5 -20.5t-20.5 -8t-20.5 8t-8.5 20.5t8.5 21
t20.5 9.5z" />
    <glyph glyph-name="cctv" unicode="&#xfcac;" arabic-form="initial" 
d="M474 547q-17 1 -33 -9l-255 -147q-21 -12 -27 -35t6 -45l44 -76q13 -22 35.5 -28t44.5 6l53 31q12 -21 34 -31v-52q0 -25 16.5 -41t42.5 -17h152v58h-152v52q20 10 31.5 28t12.5 38.5t-11 37.5l75 44q22 12 28 35t-6 45l-44 75q-17 28 -47 31zM124 304l-124 -20l102 -178
l80 96z" />
    <glyph glyph-name="chart-donut" unicode="&#xfcad;" arabic-form="initial" 
d="M322 618v-88q78 -13 126.5 -68.5t50.5 -135.5q0 -40 -14 -75l77 -45q25 55 25 120q-3 117 -76.5 197.5t-188.5 94.5zM294 120q-89 2 -146.5 60t-59.5 146q2 80 50.5 135.5t126.5 68.5v88q-115 -14 -188.5 -94.5t-76.5 -197.5q3 -126 85.5 -208.5t208.5 -85.5
q73 0 134 32.5t103 87.5l-78 46q-27 -38 -68.5 -58t-90.5 -20z" />
    <glyph glyph-name="chart-donut-variant" unicode="&#xfcae;" arabic-form="initial" 
d="M322 618q115 -14 188.5 -94.5t76.5 -197.5q0 -65 -25 -120l-77 45q14 35 14 75q-2 80 -50.5 135.5t-126.5 68.5v88zM294 120q49 0 90.5 20t68.5 58l78 -46q-42 -55 -103 -87.5t-134 -32.5q-126 3 -208.5 86.5t-85.5 207.5q3 117 76.5 197.5t188.5 94.5v-88
q-78 -13 -126.5 -68.5t-50.5 -135.5q2 -88 59.5 -146t146.5 -60zM294 502q74 -1 124 -51.5t52 -124.5q-2 -68 -42.5 -115.5t-105.5 -58.5v91q27 10 43.5 32t16.5 51q-2 37 -26.5 61.5t-61.5 26.5l-17 -2l-46 79q29 11 63 11zM117 326q0 41 17.5 75.5t47.5 60.5l44 -78
q-21 -25 -21 -58q0 -29 16.5 -51t43.5 -32v-91q-65 11 -105.5 58.5t-42.5 115.5z" />
    <glyph glyph-name="chart-line-variant" unicode="&#xfcaf;" arabic-form="initial" 
d="M44 133l176 177l118 -117l249 281l-41 43l-208 -236l-118 117l-220 -220z" />
    <glyph glyph-name="chili-hot" unicode="&#xfcb0;" arabic-form="initial" 
d="M505 431l43 27q17 -8 28 -25.5t11 -37.5v-431q-19 -7 -147 73t-146 320v38q0 19 9 36t27 26l53 -26l56 36zM367 687q43 0 73 -27.5t37 -69.5q28 -8 48.5 -27t32.5 -45l-53 -32l-66 36l-56 -36l-62 31q24 53 81 73q-11 23 -35 24v73zM220 395q7 -213 78 -299.5t141 -131.5
q-17 -7 -145.5 73t-145.5 320v38q0 19 9 36t25 26l50 -24q-12 -18 -12 -38zM237 486l-62 31q24 53 79 73q-9 23 -34 24v73q44 0 74 -28v-45q25 -1 34 -24q-28 -8 -50 -32t-41 -72zM74 395q5 -213 77 -299.5t143 -131.5q-19 -7 -147 73t-147 320v38q0 19 10.5 36t25.5 26
l48 -24q-10 -18 -10 -38zM89 486l-60 31q22 53 79 73q-8 23 -34 24v73q43 0 74 -28v-45q24 -1 34 -24q-28 -8 -50 -32t-43 -72z" />
    <glyph glyph-name="chili-medium" unicode="&#xfcb1;" arabic-form="initial" 
d="M477 466l60 37q22 -11 36 -34t14 -51v-575q-25 -9 -196 97.5t-196 427.5v50q0 25 13.5 48t34.5 35l71 -35l78 49zM294 808q57 0 97 -36.5t49 -91.5q37 -12 65.5 -37t42.5 -60l-71 -43l-85 48l-78 -48l-80 41q30 71 105 99q-11 29 -45 32v96zM99 418q6 -284 101.5 -400
t191.5 -175q-25 -9 -196 97.5t-196 427.5v50q0 25 12.5 48t35.5 35l64 -32q-13 -23 -13 -51zM119 540l-82 41q32 71 107 99q-13 29 -45 32v96q57 0 96 -37v-59q34 -3 46 -32q-35 -12 -66 -44t-56 -96z" />
    <glyph glyph-name="chili-mild" unicode="&#xfcb2;" arabic-form="initial" 
d="M383 475l63 39q24 -12 39 -36.5t15 -53.5v-610q-25 -10 -207 103t-207 453v54q0 27 13.5 51t35.5 36l78 -36l80 51zM188 837q61 0 105 -39t51 -97q39 -12 69.5 -39t47.5 -63l-78 -46l-90 51l-80 -51l-88 43q34 76 112 105q-12 31 -49 34v102z" />
    <glyph glyph-name="cloud-braces" unicode="&#xfcb3;" arabic-form="initial" 
d="M147 129q-62 2 -104 43.5t-43 103.5q1 58 38 98t93 47q24 45 66.5 72t96.5 28q67 -1 116.5 -41.5t62.5 -105.5q49 -4 81 -38.5t33 -83.5q-1 -52 -35.5 -87t-87.5 -36h-317zM453 325h-13q-10 0 -17 7t-7 17v25q-1 21 -14.5 34.5t-34.5 13.5h-37v-48h37v-25
q0 -21 14.5 -34.5t34.5 -13.5q-20 -1 -34.5 -15t-14.5 -34v-24h-37v-50h37q21 0 34.5 14.5t14.5 35.5v24q0 10 7 17t17 7h13v49zM134 325v-49h13q10 0 17 -7t7 -17v-24q1 -21 14.5 -35.5t34.5 -14.5h37v50h-37v24q0 20 -14.5 34t-34.5 15q20 0 34.5 13.5t14.5 34.5v25h37v48
h-37q-21 0 -34.5 -13.5t-14.5 -34.5v-25q0 -10 -7 -17t-17 -7h-13z" />
    <glyph glyph-name="cloud-tags" unicode="&#xfcb4;" arabic-form="initial" 
d="M147 129q-62 2 -104 43.5t-43 103.5q1 58 38 98t93 47q24 45 66.5 72t96.5 28q67 -1 116.5 -41.5t62.5 -105.5q49 -4 81 -38.5t33 -83.5q-1 -52 -35.5 -87t-87.5 -36h-317zM222 413l-112 -112l112 -112l35 34l-78 78l78 78zM365 413l-35 -34l78 -78l-78 -78l35 -34
l112 112z" />
    <glyph glyph-name="console-line" unicode="&#xfcb5;" arabic-form="initial" 
d="M333 135v95h254v-95h-254zM190 325l-190 190h134l157 -157q14 -15 14 -34.5t-14 -32.5l-156 -156h-135z" />
    <glyph glyph-name="corn" unicode="&#xfcb6;" arabic-form="initial" 
d="M265 325h-65q36 -22 65 -50v50zM146 354q8 116 48 189.5t100 74.5q59 -1 99.5 -76t47.5 -191q66 32 146 33q-112 -71 -141.5 -204t-151.5 -148q-118 15 -148 148t-146 204q80 -1 146 -30zM265 354v59h-82l-7 -59h89zM265 442v59h-58q-11 -26 -18 -59h76zM265 530v51
q-25 -15 -45 -51h45zM294 590v-60h28v-29h-28v-59h59v-29h-59v-59h88v-29h-88v-59h59v-29h-53q27 -32 42.5 -64.5t18.5 -59.5q23 37 36.5 93.5t13.5 125.5q-3 107 -36 181t-81 77z" />
    <glyph glyph-name="currency-chf" unicode="&#xfcb7;" arabic-form="initial" 
d="M89 732h498v-91h-407v-271h362v-90h-362v-135h91v-91h-91v-136h-91v136h-89v91h89v587z" />
    <glyph glyph-name="currency-cny" unicode="&#xfcb8;" arabic-form="initial" 
d="M247 -99v236h-236v93h236v16l-40 79h-196v95h150l-161 329h106l188 -386l187 386h106l-161 -329h150v-95h-196l-40 -79v-16h236v-93h-236v-236h-93z" />
    <glyph glyph-name="currency-eth" unicode="&#xfcb9;" arabic-form="initial" 
d="M294 808l-294 -494l294 -177l293 177zM0 254l294 -412l293 412l-293 -176z" />
    <glyph glyph-name="currency-jpy" unicode="&#xfcba;" arabic-form="initial" 
d="M247 -99v236h-236v93h236v16l-40 79h-196v95h150l-161 329h106l188 -386l187 386h106l-161 -329h150v-95h-196l-40 -79v-16h236v-93h-236v-236h-93z" />
    <glyph glyph-name="currency-krw" unicode="&#xfcbb;" arabic-form="initial" 
d="M0 590h58l40 -177h117l40 177h77l40 -177h117l40 177h58l-39 -177h39v-59h-52l-13 -58h65v-59h-79l-38 -177h-79l-38 177h-119l-38 -177h-79l-38 177h-79v59h65l-13 58h-52v59h39zM327 354h-67l-12 -58h91zM156 149l20 88h-40zM203 354h-93l14 -58h65zM431 149l20 88h-40
zM477 354h-93l14 -58h65zM294 501l-20 -88h39z" />
    <glyph glyph-name="currency-sign" unicode="&#xfcbc;" arabic-form="initial" 
d="M584 324q0 47 -15 91t-42 83l57 57l-60 63l-57 -59q-81 56 -173.5 56t-173.5 -57l-57 57l-63 -60l59 -57q-56 -81 -56 -174t57 -173l-57 -57l61 -62l59 58q79 -56 172.5 -56t172.5 56l59 -58l60 62l-57 57q27 38 40.5 82.5t13.5 90.5zM294 121q-88 1 -145.5 58.5
t-58.5 144.5q1 88 58.5 145t145.5 59q87 -2 144.5 -59t58.5 -145q-1 -87 -58.5 -144.5t-144.5 -58.5z" />
    <glyph glyph-name="currency-twd" unicode="&#xfcbd;" arabic-form="initial" 
d="M0 357h587v-64h-196v-196h196v-65h-196q-27 0 -45.5 19t-19.5 46v196h-86l-151 -261l-57 32l133 229h-165v64zM66 618h455v-65h-455v65z" />
    <glyph glyph-name="desktop-classic" unicode="&#xfcbe;" arabic-form="initial" 
d="M117 618q-25 0 -41.5 -16.5t-17.5 -40.5v-236q1 -25 17.5 -41.5t41.5 -17.5h353q25 1 41.5 17.5t17.5 41.5v236q-1 24 -17.5 40.5t-41.5 16.5h-353zM117 561h353v-236h-353v236zM58 237q-25 0 -41.5 -16.5t-16.5 -42.5v-89q0 -24 16.5 -40.5t41.5 -16.5h471
q25 0 41.5 16.5t16.5 40.5v89q0 26 -16.5 42.5t-41.5 16.5h-471zM176 178h353v-89h-353v89zM205 156v-45h117v45h-117zM382 156v-45h117v45h-117z" />
    <glyph glyph-name="dip-switch" unicode="&#xfcbf;" arabic-form="initial" 
d="M29 561h117q12 -2 20.5 -10t9.5 -21v-410q-1 -13 -9.5 -21t-20.5 -10h-117q-12 2 -20.5 10t-8.5 21v410q0 13 8.5 21t20.5 10zM234 561h119q12 -2 20.5 -10t8.5 -21v-410q0 -13 -8.5 -21t-20.5 -10h-119q-12 2 -20.5 10t-8.5 21v410q0 13 8.5 21t20.5 10zM441 561h117
q12 -2 20.5 -10t8.5 -21v-410q0 -13 -8.5 -21t-20.5 -10h-117q-12 2 -20.5 10t-9.5 21v410q1 13 9.5 21t20.5 10zM58 149h59v147h-59v-147zM265 354h57v147h-57v-147zM470 149h59v147h-59v-147z" />
    <glyph glyph-name="donkey" unicode="&#xfcc0;" arabic-form="initial" 
d="M580 383l-2 2l-100 101v30q-2 15 -16 16q-6 0 -12 -6l-112 -102h-198q-33 -1 -52 -29l-82 -82q-7 -10 -5.5 -22t12.5 -21q17 -11 35 0l31 29v-181h92v122h153v-122h92v158q1 26 19 43l43 43l62 -30q7 -4 14 -4q14 1 23.5 10.5t9.5 22.5t-7 22z" />
    <glyph glyph-name="dots-horizontal-circle" unicode="&#xfcc1;" arabic-form="initial" 
d="M294 618q125 -2 207.5 -85t85.5 -208q-3 -125 -85.5 -208t-207.5 -85q-126 2 -208.5 85t-85.5 208q3 125 85.5 208t208.5 85zM294 369q-20 0 -32.5 -12.5t-12.5 -31.5t12.5 -31.5t32 -12.5t32 12.5t12.5 31.5t-12.5 31.5t-31.5 12.5zM132 369q-19 0 -31.5 -12.5
t-12.5 -31.5t12.5 -31.5t31 -12.5t31 12.5t12.5 31.5t-12.5 31.5t-30.5 12.5zM455 369q-18 0 -30.5 -12.5t-12.5 -31.5t12.5 -31.5t31 -12.5t31 12.5t12.5 31.5t-12.5 31.5t-31.5 12.5z" />
    <glyph glyph-name="dots-vertical-circle" unicode="&#xfcc2;" arabic-form="initial" 
d="M0 325q3 125 85.5 208t208.5 85q125 -2 207.5 -85t85.5 -208q-3 -125 -85.5 -208t-207.5 -85q-126 2 -208.5 85t-85.5 208zM249 325q0 -19 12.5 -31.5t32 -12.5t32 12.5t12.5 31.5t-12.5 31.5t-32 12.5t-32 -12.5t-12.5 -31.5zM249 164q0 -20 12.5 -32t32 -12t32 12
t12.5 31t-12.5 31t-32 12t-32 -12t-12.5 -30zM249 486q0 -18 12.5 -30t32 -12t32 12t12.5 31t-12.5 31t-32 12t-32 -12t-12.5 -32z" />
    <glyph glyph-name="ear-hearing" unicode="&#xfcc3;" arabic-form="initial" 
d="M457 51q-15 0 -26 6q-17 7 -30 24t-26 53.5t-33.5 58t-43.5 38.5q-20 15 -39 33.5t-37 49.5q-26 48 -26 96q1 70 47 116t116.5 46t115.5 -46t46 -116h66q-2 98 -66 162t-162 66q-99 -2 -162.5 -66t-66.5 -162q1 -64 35 -127q23 -40 47.5 -63.5t45 -39t34.5 -30t21 -37.5
q16 -44 36.5 -71.5t54.5 -44.5q24 -11 53 -11q55 2 91.5 38.5t38.5 91.5h-66q0 -27 -18 -45.5t-46 -19.5zM151 618l-46 46q-48 -49 -76.5 -114t-28.5 -140t28.5 -140t76.5 -114l46 46q-41 40 -63 93.5t-22 114.5t23 114.5t62 93.5zM277 410q1 -35 24 -58t57.5 -23t57.5 23
t23 58t-23 58t-57.5 23t-57.5 -23t-24 -58z" />
    <glyph glyph-name="elephant" unicode="&#xfcc4;" arabic-form="initial" 
d="M514 222q-1 -13 -14.5 -13t-14.5 13v206q-3 43 -38 72.5t-80 29.5h-250q-49 -1 -82.5 -34t-34.5 -83v-293h117v117h148v-117h117v132q1 12 14 12t15 -12v-44q1 -39 26 -63.5t62.5 -24.5t62.5 24.5t25 63.5v58h-73v-44z" />
    <glyph glyph-name="eventbrite" unicode="&#xfcc5;" arabic-form="initial" 
d="M587 495q0 30 -17 53.5t-45 34.5q-45 8 -225.5 21t-215.5 15q-39 -4 -63 -35q-21 -26 -21 -59v-397q0 -23 9.5 -43.5t29.5 -34.5q24 -20 56 -19t196 15l204 16q37 3 64.5 28.5t27.5 62.5v342zM459 458q-3 -6 -6 -13q-7 -18 -26 -16h-83q-52 0 -71 1q-7 0 -8 -7
q-6 -30 -13 -62h113h10q12 -3 17 -8.5t3.5 -18.5t-9 -25.5t-22.5 -12.5h-120q-6 2 -7 -5l-14 -66v-4h157q18 1 25 -17q4 -15 -3 -29t-20 -22q-7 -1 -15 -3l-193 -2q-16 -2 -28 6q-14 13 -11 31q6 26 28 133t30 145q1 18 15 29t32 10l99 -2l94 -2q34 -2 26 -40z" />
    <glyph glyph-name="food-croissant" unicode="&#xfcc6;" arabic-form="initial" 
d="M587 134l-88 58l88 59v-117zM382 251l117 177l88 -117l-117 -89zM88 192l-88 -58v117zM205 251l-88 -29l-117 89l88 117zM353 516l117 -59l-148 -206h-57l-148 206l117 59h119z" />
    <glyph glyph-name="forklift" unicode="&#xfcc7;" arabic-form="initial" 
d="M117 560v-207h-59q-25 0 -41.5 -16.5t-16.5 -41.5v-118q0 -37 25 -62t62.5 -25t62.5 25t26 62h58q2 -37 26.5 -62t62.5 -25t63 25t25 62v118l-117 265h-177zM441 530v-411h146v44h-102v367h-44zM161 516h109l97 -221h-206v221zM88 221q18 0 30.5 -12.5t12.5 -31
t-12.5 -31t-31 -12.5t-31 12.5t-12.5 31t12.5 31t31.5 12.5zM322 221q20 0 32.5 -12.5t12.5 -31t-12.5 -31t-31 -12.5t-31 12.5t-12.5 31t12.5 31t29.5 12.5z" />
    <glyph glyph-name="fuel" unicode="&#xfcc8;" arabic-form="initial" 
d="M0 652h103q15 0 25 -9l73 -71l27 25q21 21 49 21h207q25 0 48 -21l34 -33q21 -23 21 -49v-448q-2 -29 -21 -49t-49 -20h-344q-29 0 -49.5 20t-20.5 49v378q0 28 22 49l25 27l-61 64h-89v67zM277 549v-68h207v68h-207zM289 342l-67 70h-49v-49l68 -70v-109l-68 -68v-49h49
l67 68h110l70 -68h48v49l-69 68v109l69 70v49h-48l-70 -70h-110zM310 274h70v-69h-70v69z" />
    <glyph glyph-name="gesture" unicode="&#xfcc9;" arabic-form="initial" 
d="M56 490q17 19 32 31t23 9q12 -6 6 -21.5t-16 -29t-48.5 -77t-43.5 -126.5q0 -63 44 -97q18 -13 40 -17t45 4q26 7 49.5 30.5t49.5 58.5q30 38 65.5 73t66.5 38q38 -2 47 -20t9 -38q-90 -19 -131.5 -74t-41 -99t29.5 -72t73 -29.5t91.5 42t61.5 156.5h79v81h-80
q-2 44 -31 88t-100 47q-54 -2 -96.5 -33.5t-62.5 -57.5q-15 -20 -41 -50l-33 -38q-6 -8 -16 -17.5t-20.5 -9.5t-15.5 17t4.5 45.5t28.5 61.5t31 51q19 28 30.5 51.5t11.5 55.5q-3 51 -30 72.5t-52 19.5q-32 -1 -56 -16.5t-32 -24.5q-16 -16 -27 -30zM356 113q-7 0 -14.5 6
t-9.5 18q0 17 21.5 45t71.5 44q-8 -65 -29 -89t-40 -24z" />
    <glyph glyph-name="google-analytics" unicode="&#xfcca;" arabic-form="initial" 
d="M521 618q28 0 47 -19t19 -46v-456q0 -27 -19 -46t-47 -19h-130v521q0 27 19.5 46t46.5 19h64zM66 32q-28 0 -47 19t-19 46v64q0 28 19 47t47 19h130v130q0 28 19 47t46 19h114v-391h-309z" />
    <glyph glyph-name="google-assistant" unicode="&#xfccb;" arabic-form="initial" 
d="M176 604q75 -1 124.5 -51.5t52.5 -124.5q-3 -75 -52.5 -125t-124.5 -52q-75 2 -125 52t-51 125q1 74 51 124.5t125 51.5zM558 457q12 0 20.5 -8.5t8.5 -21t-8.5 -20.5t-20.5 -8t-20.5 8t-8.5 20.5t8.5 21t20.5 8.5zM455 399q31 -2 52 -22.5t21 -51.5t-21 -51.5t-52 -20.5
t-51.5 20.5t-20.5 51.5t20.5 51.5t51.5 22.5zM455 222q38 -1 63 -26t25 -62.5t-25 -62.5t-62.5 -25t-62.5 25t-25 62.5t25 62.5t62 26z" />
    <glyph glyph-name="headphones-off" unicode="&#xfccc;" arabic-form="initial" 
d="M271 649q-116 -3 -192 -80t-79 -191v-212q0 -28 16 -49l165 165v35h-120v61q1 89 60.5 148t149.5 62q45 0 84 -17t68 -48l43 44q-38 38 -87.5 59t-107.5 23zM549 573l-533 -534l38 -38l74 75h53v52l180 181v-233h91q38 1 63 26.5t27 63.5v212q0 49 -17 94l62 63zM477 424
q4 -22 4 -46v-61h-111z" />
    <glyph glyph-name="high-definition" unicode="&#xfccd;" arabic-form="initial" 
d="M0 536h83v-170h84v170h85v-422h-85v170h-84v-170h-83v422zM335 536h126q55 -2 90.5 -37.5t35.5 -88.5v-170q0 -53 -35.5 -88.5t-90.5 -37.5h-126v422zM461 199q18 0 29.5 12t13.5 29v170q-2 17 -13.5 29t-29.5 12h-41v-252h41z" />
    <glyph glyph-name="home-assistant" unicode="&#xfcce;" arabic-form="initial" 
d="M565 289h-50v-223h-195v92l78 78l20 -3q25 0 41 16.5t16 41.5t-16 41t-41 16t-41 -16t-18 -41l3 -19l-42 -43v152q14 8 22.5 21.5t8.5 30.5q-1 25 -17 41t-41 16t-41 -16t-18 -41q0 -17 8.5 -30.5t23.5 -21.5v-152l-42 43l2 19q-1 25 -17 41t-41 16t-41 -16t-16 -41
t16 -41.5t41 -16.5l19 3l79 -78v-92h-196v223h-48q-9 0 -15.5 0.5t-6.5 5t6.5 12.5t16.5 17l243 242q6 8 13 13t13.5 5t14 -5t13.5 -13l112 -111v27h55v-83l78 -77l15 -17q7 -7 7 -11t-6.5 -4.5t-15.5 -0.5zM168 316q10 0 17.5 -7t7.5 -17.5t-7.5 -18t-18 -7.5t-17.5 7.5
t-7 18t7 17.5t18 7zM418 316q10 0 17.5 -7t7.5 -17.5t-7.5 -18t-18 -7.5t-17.5 7.5t-7 18t7 17.5t18 7zM293 458q10 0 17.5 -7.5t7.5 -18.5t-7.5 -17.5t-18 -6.5t-17.5 6.5t-7 17.5t7 18.5t18 7.5z" />
    <glyph glyph-name="home-automation" unicode="&#xfccf;" arabic-form="initial" 
d="M294 575l-294 -264h88v-236h411v236h88zM294 414q52 -2 96.5 -20.5t79.5 -51.5l-36 -36q-26 28 -62.5 43t-78 15t-78 -15t-62.5 -43l-36 36q35 33 79.5 51.5t97.5 20.5zM294 316q31 -1 58 -12t48 -32l-36 -34q-28 27 -70.5 27t-70.5 -27l-36 34q21 21 48 32t59 12z
M294 217q20 0 34.5 -14t14.5 -34.5t-14.5 -34.5t-35 -14t-35 14t-14.5 34.5t14.5 34.5t35.5 14z" />
    <glyph glyph-name="home-circle" unicode="&#xfcd0;" arabic-form="initial" 
d="M501 532q-42 43 -95.5 64.5t-112 21.5t-112 -21.5t-95.5 -63.5t-64 -95.5t-22 -112.5t22 -112.5t64 -95.5t95.5 -63.5t112 -21.5t112 21.5t95.5 63.5t64 95.5t22 112.5t-22 112.5t-64 94.5zM440 325v-176h-103v147h-87v-147h-103v176h-58l205 204l219 -204h-73z" />
    <glyph glyph-name="language-go" unicode="&#xfcd1;" arabic-form="initial" 
d="M343 630q13 0 22.5 -8.5t9.5 -22.5t-9.5 -23t-23 -9t-22 9t-8.5 23t8.5 22.5t22.5 8.5zM161 621q14 0 22.5 -9.5t8.5 -23t-8.5 -22t-22.5 -8.5t-23 8.5t-9 22t9 23t23 9.5zM504 685q22 0 37.5 -15.5t15.5 -38t-12 -37t-33 -19.5l-3 -5q26 -81 25 -153.5t-3 -77.5
q22 -14 41 -27.5t14 -27.5q-10 -12 -30.5 -7t-22.5 7q7 -187 -18 -238.5t-30 -45.5q3 -2 16 -25t3 -39q-17 -10 -39.5 7t-25.5 21q-4 -2 -58 -18.5t-107 -17.5q-50 1 -87.5 17.5t-39.5 18.5q-22 -21 -43.5 -30.5t-29.5 2.5q-4 16 10.5 39t16.5 25q-56 42 -53.5 159.5
t7.5 132.5q-9 -8 -27.5 -17.5t-27.5 9.5q-2 20 24.5 32t30.5 12q-10 100 -7.5 157.5t9.5 82.5q-19 4 -30 18.5t-11 36.5t15 37.5t38 15.5q13 0 25 -5q31 22 81.5 36t112.5 15q58 -1 106 -13t81 -33q12 9 29 9zM375 676q-31 0 -51.5 -21.5t-20.5 -52t20.5 -51t51.5 -20.5
t51.5 20.5t20.5 51t-20.5 52t-51.5 21.5zM192 668q-31 -2 -51.5 -22.5t-20.5 -51.5t20.5 -51.5t51.5 -20.5t52.5 20.5t21.5 51.5t-21.5 51.5t-52.5 22.5zM288 493q-17 0 -28.5 -5t-11.5 -14t18 -14v-22q0 -9 8 -9h28q8 0 10 9v22q17 5 17 14t-11 14t-30 5z" />
    <glyph glyph-name="language-r" unicode="&#xfcd2;" arabic-form="initial" 
d="M294 551q-125 -1 -208 -57t-86 -140q1 -73 68.5 -126t172.5 -67v-62h101v62q37 4 70 14l41 -76h113l-69 114q43 28 66.5 64t23.5 77q-3 84 -86 140t-207 57zM339 475q94 0 153 -33t61 -102q0 -38 -19 -64.5t-52 -42.5q-4 1 -7 4q-8 4 -18 7l-9 2q5 -1 43 15t44 79
q-6 64 -46 78t-45 12h-203v-211q-56 16 -90.5 48t-34.5 73q1 57 64.5 95.5t158.5 39.5zM343 358h61q1 0 13.5 -3.5t13.5 -23.5q-1 -21 -13.5 -26t-13.5 -3h-61v56zM342 229h27q7 0 12.5 -5.5t11.5 -14.5q-24 -4 -51 -4v24z" />
    <glyph glyph-name="lava-lamp" unicode="&#xfcd3;" arabic-form="initial" 
d="M178 837l-112 -739h454l-112 739h-230zM264 680q18 0 30 -12t12 -29.5t-12 -29.5t-29 -12t-29 12t-12 29.5t12 29.5t28 12zM322 525q24 -3 40 -19t16 -40t-16 -40t-40 -16t-40 16t-16 40t16 40t40 19zM264 325q37 0 61 -24t24 -61.5t-24 -61.5t-60 -24t-60 24t-24 61.5
t24 61.5t59 24zM66 40l112 -112l-112 -115h454l-112 115l112 112h-454z" />
    <glyph glyph-name="led-strip" unicode="&#xfcd4;" arabic-form="initial" 
d="M0 439l383 -385l24 22l45 -44l45 44l-45 45l45 45l45 -45l45 45l-45 45l23 24l-385 383zM90 439l90 90l295 -294l-92 -91zM135 439l45 -47l46 47l-46 45zM204 370l45 -45l45 45l-45 45zM271 303l45 -45l45 45l-45 44zM338 235l45 -45l45 45l-45 45z" />
    <glyph glyph-name="locker" unicode="&#xfcd5;" arabic-form="initial" 
d="M99 813h389q42 0 70.5 -27.5t28.5 -68.5v-784q0 -41 -28.5 -68.5t-70.5 -27.5h-389q-42 0 -70.5 27.5t-28.5 68.5v784q0 41 28.5 68.5t70.5 27.5zM99 717v-784h389v784h-389zM195 277h99v-197h-99v197zM195 618h197v-73h-197v73zM195 472h197v-74h-197v74z" />
    <glyph glyph-name="locker-multiple" unicode="&#xfcd6;" arabic-form="initial" 
d="M54 591h479q23 0 38 -15t16 -37v-428q-1 -22 -16 -37t-38 -15h-479q-23 0 -38 15t-16 37v428q1 22 16 37t38 15zM320 539v-428h213v428h-213zM54 539v-428h213v428h-213zM107 299h53v-108h-53v108zM107 485h107v-40h-107v40zM107 405h107v-40h-107v40zM373 299h54v-108
h-54v108zM373 485h107v-40h-107v40zM373 405h107v-40h-107v40z" />
    <glyph glyph-name="map-marker-outline" unicode="&#xfcd7;" arabic-form="initial" 
d="M294 555q45 0 74.5 -29.5t29.5 -74.5t-29.5 -74.5t-75 -29.5t-75 29.5t-29.5 74.5t29.5 74.5t75.5 29.5zM294 745q126 -2 208.5 -85t84.5 -209q-18 -179 -147 -355.5t-146 -190.5q-18 14 -147 190.5t-147 355.5q2 126 84.5 209t209.5 85zM294 662q-89 -2 -149 -62
t-62 -149q-6 -28 26.5 -114.5t184.5 -293.5q151 207 183.5 293.5t26.5 114.5q-2 89 -62 149t-148 62z" />
    <glyph glyph-name="metronome" unicode="&#xfcd8;" arabic-form="initial" 
d="M274 670l-117 -32l-154 -575q-3 -7 -3 -16q2 -29 21 -48t48 -19h409q29 0 48 19t21 48q0 9 -3 16l-47 174l-52 -53l6 -35h-130l98 98l-48 48l-145 -146h-130l120 445h115l51 -186l55 56l-47 174zM248 559v-333l51 51v282h-51zM539 464l-96 -97l-24 24l-48 -48l96 -96
l48 48l-24 24l96 97z" />
    <glyph glyph-name="metronome-tick" unicode="&#xfcd9;" arabic-form="initial" 
d="M294 696l-126 -35l-166 -623l-2 -12q2 -31 22.5 -51.5t51.5 -20.5h439q31 0 51.5 20.5t22.5 51.5l-2 12l-166 623zM232 613h123l129 -477h-154v184h-73v-184h-154zM257 576v-146h-37v-74h147v74h-37v146h-73z" />
    <glyph glyph-name="micro-sd" unicode="&#xfcda;" arabic-form="initial" 
d="M148 691q-31 0 -52.5 -21t-21.5 -52v-257l-74 -72v-257q2 -31 22.5 -52t51.5 -21h439q31 0 51.5 21t22.5 52v586q-2 31 -22.5 52t-51.5 21h-365zM184 618h73v-147h-73v147zM294 618h73v-147h-73v147zM403 618h74v-147h-74v147z" />
    <glyph glyph-name="mixer" unicode="&#xfcdb;" arabic-form="initial" 
d="M108 562l168 -228q6 -8 0 -18l-174 -232q-16 -18 -40.5 -19t-42 15.5t-19 39.5t12.5 44l121 162l-121 161q-14 20 -12.5 43t18.5 40l5 3q20 15 44 11.5t40 -22.5zM479 562q16 19 40 22.5t44 -11.5l5 -3q17 -17 18.5 -40t-12.5 -43l-121 -161l121 -162q14 -21 12.5 -44
t-19 -39.5t-42 -15.5t-40.5 19l-174 232q-6 10 0 18z" />
    <glyph glyph-name="movie-roll" unicode="&#xfcdc;" arabic-form="initial" 
d="M294 618q125 -2 207.5 -85t85.5 -208q-3 -125 -85.5 -208t-207.5 -85q-126 2 -208.5 85t-85.5 208q3 125 85.5 208t208.5 85zM294 561q-32 -2 -53 -22.5t-21 -51.5t21 -51.5t52.5 -20.5t52.5 20.5t21 51.5t-21 51.5t-52 22.5zM70 398q-9 -30 4.5 -56.5t43 -36t56 3.5
t36 43.5t-4 56t-43.5 35t-56 -3.5t-36 -42zM517 398q-10 29 -36 42t-56 4t-43.5 -35t-4 -55.5t36 -43.5t56 -4.5t43 36t4.5 56.5zM156 135q26 -18 55 -13t47 30.5t13.5 54t-30 46.5t-54.5 14t-47.5 -29.5t-13.5 -54.5t30 -48zM431 135q25 19 30 48t-13.5 54.5t-47.5 29.5
t-54 -14t-30 -46.5t13 -54t47.5 -30.5t54.5 13zM294 369q-20 0 -32.5 -12.5t-12.5 -31.5t12.5 -31.5t32 -12.5t32 12.5t12.5 31.5t-12.5 31.5t-31.5 12.5z" />
    <glyph glyph-name="mushroom" unicode="&#xfcdd;" arabic-form="initial" 
d="M294 618q125 -2 207.5 -85t85.5 -208q0 -25 -16.5 -41.5t-41.5 -17.5h-471q-25 1 -41.5 17.5t-16.5 41.5q3 125 85.5 208t208.5 85zM294 442q24 2 40.5 18.5t16.5 41t-16.5 41t-41 16.5t-41 -16.5t-16.5 -41t16.5 -41t41.5 -18.5zM441 325q25 0 41.5 17t16.5 42
t-16.5 41.5t-41.5 16.5t-42 -16.5t-17 -41.5t17 -42t42 -17zM146 325q25 0 42 17t17 42t-17 41.5t-42 16.5t-41.5 -16.5t-16.5 -41.5t16.5 -42t41.5 -17zM382 237l37 -131l3 -17q-2 -24 -18.5 -40.5t-41.5 -16.5h-137q-25 0 -41.5 16.5t-18.5 40.5l3 17l37 131h177z" />
    <glyph glyph-name="mushroom-outline" unicode="&#xfcde;" arabic-form="initial" 
d="M58 325h471q-1 84 -50 145.5t-126 81.5q-4 -22 -20.5 -36.5t-39 -14.5t-39 14.5t-20.5 36.5q-77 -20 -126 -81.5t-50 -145.5zM294 618q125 -2 207.5 -85t85.5 -208q0 -25 -16.5 -41.5t-41.5 -17.5h-471q-25 1 -41.5 17.5t-16.5 41.5q3 125 85.5 208t208.5 85zM338 178
h-89l-24 -89h137zM382 237l29 -104l8 -27l3 -17q-2 -24 -18.5 -40.5t-41.5 -16.5h-137l-14 1q-25 7 -36.5 27t-6.5 45l37 132h177zM411 472q24 -1 41.5 -17.5t17.5 -41.5t-17.5 -41.5t-42 -16.5t-41 16.5t-16.5 41.5t16.5 41.5t41.5 17.5zM176 472q25 -1 41.5 -17.5
t16.5 -41.5t-16.5 -41.5t-41 -16.5t-42 16.5t-17.5 41.5t17.5 41.5t41.5 17.5z" />
    <glyph glyph-name="nintendo-switch" unicode="&#xfcdf;" arabic-form="medial" 
d="M236 78h-86q-43 2 -72.5 31.5t-30.5 72.5v286q1 43 30.5 72.5t72.5 31.5h86v-494zM150 618q-65 -1 -107 -43t-43 -107v-286q1 -65 43 -107t107 -43h134v586h-134zM91 442q0 -23 16 -38.5t39 -15.5t39 15.5t16 39t-16 39t-39 15.5t-39 -15.5t-16 -39.5zM459 354
q25 0 41.5 -16.5t16.5 -42t-16.5 -42t-42 -16.5t-42 16.5t-16.5 42t16.5 42t42.5 16.5zM437 32q65 1 107 43t43 107v286q-1 65 -43 107t-107 43h-95v-586h95z" />
    <glyph glyph-name="null" unicode="&#xfce0;" arabic-form="medial" 
d="M294 682q50 0 94.5 -19t81.5 -55l60 78l57 -44l-72 -91q30 -47 47.5 -104t17.5 -122q-3 -151 -83.5 -252.5t-202.5 -104.5q-51 0 -95.5 19t-81.5 55l-60 -78l-57 44l72 91q-30 47 -47.5 104t-17.5 122q3 151 83.5 252.5t203.5 104.5zM294 612q-91 -4 -152 -84.5
t-63 -202.5q2 -94 40 -166l305 392q-55 59 -130 61zM294 38q90 4 151 84.5t63 202.5q-2 94 -40 166l-305 -392q55 -59 131 -61z" />
    <glyph glyph-name="passport" unicode="&#xfce1;" arabic-form="medial" 
d="M74 691q-31 0 -51.5 -21t-22.5 -52v-586q2 -31 22.5 -52t51.5 -21h439q31 0 51.5 21t22.5 52v586q-2 31 -22.5 52t-51.5 21h-439zM294 581q77 -2 129 -53.5t54 -128.5q-2 -79 -54 -130.5t-129 -53.5q-78 2 -130 53.5t-54 130.5q2 77 54 128.5t130 53.5zM294 545
q-23 -35 -35 -74h69q-10 39 -34 74zM245 536q-51 -17 -79 -65h54q10 34 25 65zM342 536q15 -31 25 -65h54q-28 46 -79 65zM151 435q-3 -17 -3 -36t3 -38h62q-2 19 -2 37t2 37h-62zM251 435q-4 -17 -4 -36t4 -38h85q2 19 2 38t-2 36h-85zM374 435q2 -19 2 -37t-2 -37h62
q3 19 3 38t-3 36h-62zM166 325q28 -46 79 -65q-15 31 -25 65h-54zM259 325q12 -39 35 -74q24 35 34 74h-69zM367 325q-10 -34 -25 -65q51 19 79 65h-54zM110 141h367v-72h-367v72z" />
    <glyph glyph-name="periodic-table-co2" unicode="&#xfce2;" arabic-form="medial" 
d="M68 510q-29 -2 -48.5 -20.5t-19.5 -47.5v-201q0 -29 19.5 -47.5t48.5 -20.5h100v68h-100v201h100v68h-100zM269 510q-28 -2 -48 -20.5t-20 -47.5v-201q0 -29 20 -47.5t48 -20.5h66q29 2 48.5 20.5t19.5 47.5v201q0 29 -19.5 47.5t-48.5 20.5h-66zM269 442h66v-201h-66
v201zM436 392v-50h101v-51h-51q-20 0 -34.5 -14t-15.5 -36v-101h151v50h-101v51h51q22 0 36 14t14 36v51q0 22 -14 36t-36 14h-101z" />
    <glyph glyph-name="pipe" unicode="&#xfce3;" arabic-form="medial" 
d="M587 266h-58v-58h-176v88h58v58h-58v147q-2 25 -18.5 41.5t-40.5 18.5h-236v57h-58v-234h58v58h176v-88h-58v-58h58v-147q2 -25 18.5 -41.5t41.5 -18.5h235v-57h58v234z" />
    <glyph glyph-name="pipe-disconnected" unicode="&#xfce4;" arabic-form="medial" 
d="M411 413v-59h-235v59h58v29h-176v-58h-58v234h58v-57h236q24 -2 40.5 -18.5t18.5 -41.5v-88h58zM234 237v-88q2 -25 18.5 -41.5t41.5 -18.5h235v-57h58v234h-58v-58h-176v29h58v59h-235v-59h58z" />
    <glyph glyph-name="power-socket-eu" unicode="&#xfce5;" arabic-form="medial" 
d="M161 369q20 0 32 -12.5t12 -31.5t-12 -31.5t-31.5 -12.5t-32 12.5t-12.5 31.5t12.5 31.5t31.5 12.5zM426 369q19 0 31.5 -12.5t12.5 -31.5t-12.5 -31.5t-32 -12.5t-31.5 12.5t-12 31.5t12 31.5t32 12.5zM65 618h457q28 0 46.5 -18.5t18.5 -45.5v-458q0 -27 -18.5 -45.5
t-46.5 -18.5h-457q-28 0 -46.5 18.5t-18.5 45.5v458q0 27 18.5 45.5t46.5 18.5zM294 561q-101 -3 -167 -69t-69 -167q3 -101 69 -167t167 -69q100 3 166 69t69 167q-3 101 -69 167t-166 69z" />
    <glyph glyph-name="power-socket-uk" unicode="&#xfce6;" arabic-form="medial" 
d="M367 274h103v-66h-103v66zM117 274h103v-66h-103v66zM265 501h57v-117h-57v117zM65 618q-28 0 -46.5 -18.5t-18.5 -45.5v-458q0 -27 18.5 -45.5t46.5 -18.5h457q28 0 46.5 18.5t18.5 45.5v458q0 27 -18.5 45.5t-46.5 18.5h-457zM294 561q100 -3 166 -69t69 -167
q-3 -101 -69 -167t-166 -69q-101 3 -167 69t-69 167q3 101 69 167t167 69z" />
    <glyph glyph-name="power-socket-us" unicode="&#xfce7;" arabic-form="medial" 
d="M176 472h58v-147h-58v147zM65 618h457q28 0 46.5 -18.5t18.5 -45.5v-458q0 -27 -18.5 -45.5t-46.5 -18.5h-457q-28 0 -46.5 18.5t-18.5 45.5v458q0 27 18.5 45.5t46.5 18.5zM294 561q-101 -3 -167 -69t-69 -167q3 -101 69 -167t167 -69q100 3 166 69t69 167
q-3 101 -69 167t-166 69zM353 457h58v-117h-58v117zM249 200q0 19 12.5 31.5t32 12.5t32 -12.5t12.5 -31.5v-22h-89v22z" />
    <glyph glyph-name="rice" unicode="&#xfce8;" arabic-form="medial" 
d="M587 346h-68q-6 25 -17 48t-27 41l101 159l-50 32l-95 -150q-8 7 -16.5 11.5t-17.5 9.5l26 106l-56 15l-24 -101q-25 6 -49 6q-83 -2 -144.5 -50.5t-81.5 -126.5h-68q1 -91 49.5 -162t126.5 -108v-52h235v52q78 37 126.5 108t49.5 162zM294 465q57 -2 101.5 -34t61.5 -85
h-327q17 53 61.5 85t102.5 34z" />
    <glyph glyph-name="ring" unicode="&#xfce9;" arabic-form="medial" 
d="M294 399l-146 204l58 88h175l58 -88zM422 516l-44 -62q61 -26 97 -79t38 -124q-2 -92 -64.5 -154t-154.5 -65q-93 3 -155.5 65t-64.5 154q2 71 38 124t97 79l-44 62q-74 -37 -118.5 -106.5t-46.5 -158.5q3 -123 85.5 -206.5t208.5 -85.5q125 2 207.5 85.5t85.5 206.5
q-2 89 -46.5 158.5t-118.5 106.5z" />
    <glyph glyph-name="sass" unicode="&#xfcea;" arabic-form="medial" 
d="M294 618q125 -2 207.5 -85t85.5 -208q-3 -125 -85.5 -208t-207.5 -85q-126 2 -208.5 85t-85.5 208q3 125 85.5 208t208.5 85zM234 227q7 -23 0 -44l-1 -5l-2 -3q-5 -11 -13 -21q-14 -14 -29 -18.5t-23 0t-4.5 20.5t20 32.5t33 27t18.5 10.5zM478 493q-12 40 -65 51
t-117 -11q-37 -12 -73.5 -32t-65.5 -48q-33 -32 -42.5 -57.5t-7.5 -36.5q12 -40 50 -68l65 -49q-10 -4 -42.5 -24t-47.5 -47q-11 -27 -3.5 -44.5t17.5 -20.5q30 -7 57 4.5t43 36t17.5 49t-7.5 41.5q18 5 46 3q37 -7 49.5 -23.5t10.5 -27.5t-7.5 -16.5t-10 -8.5t-3.5 -5
t5 -1.5t15 9t12 27.5q2 25 -19.5 45t-61.5 21q-33 -1 -47 -7l-1 3q-29 25 -60 49t-32 59q-3 13 17 44t100 74q70 32 117.5 29t58.5 -25q12 -31 -25 -71t-109 -51q-26 -2 -40.5 4.5t-18.5 10.5q-5 7 -7 5q-4 -4 -1 -10t12 -13.5t22.5 -12.5t42.5 -4.5t69 14.5q44 18 70 56.5
t18 78.5z" />
    <glyph glyph-name="send-secure" unicode="&#xfceb;" arabic-form="medial" 
d="M561 205v14q-2 27 -20.5 46t-46.5 19t-47 -19t-20 -46v-14q-11 0 -18.5 -7.5t-7.5 -18.5v-108q0 -11 7.5 -18.5t18.5 -7.5h134q11 0 18.5 7.5t7.5 18.5v108q0 11 -7.5 18.5t-18.5 7.5zM533 205h-80v14q1 16 12.5 27t28.5 11t28 -11t11 -27v-14zM561 365l-561 -240v186
l401 54l-401 54v186z" />
    <glyph glyph-name="soy-sauce" unicode="&#xfcec;" arabic-form="medial" 
d="M388 543q0 25 4 43l9 30h30l44 122h39v73h-441v-73h39l44 -122h30q13 -23 13 -73q-11 -55 -99.5 -199.5t-99.5 -293.5v-99q2 -52 86 -82t207.5 -30t207.5 30t86 82v99q-11 149 -99.5 293.5t-99.5 199.5zM294 176q-42 0 -69.5 28.5t-27.5 70t27.5 69t69 27.5t69 -27.5
t27.5 -69t-27.5 -70t-68.5 -28.5z" />
    <glyph glyph-name="standard-definition" unicode="&#xfced;" arabic-form="medial" 
d="M335 536h126q55 -2 90.5 -37.5t35.5 -88.5v-170q0 -53 -35.5 -88.5t-90.5 -37.5h-126v422zM461 199q18 0 29.5 12t13.5 29v170q-2 17 -13.5 29t-29.5 12h-41v-252h41zM83 536h169v-85h-169v-85h84q36 0 59.5 -23.5t25.5 -58.5v-85q-2 -36 -25.5 -59.5t-59.5 -25.5h-167
v85h167v85h-84q-36 0 -59.5 23.5t-23.5 58.5v85q0 36 23.5 59.5t59.5 25.5z" />
    <glyph glyph-name="surround-sound-2-0" unicode="&#xfcee;" arabic-form="medial" 
d="M457 489h64q28 -2 47 -20.5t19 -45.5v-196q0 -27 -19 -45.5t-47 -20.5h-64q-27 2 -46.5 20.5t-19.5 45.5v196q0 27 19.5 45.5t46.5 20.5zM457 423v-196h64v196h-64zM196 161h-196v66l130 196h-130v66h130q27 -2 46.5 -20.5t19.5 -45.5q0 -22 -11 -37l-107 -159h118v-66z
M294 161q-14 2 -23.5 11t-9.5 23t9.5 23t23 9t23 -9t9.5 -23t-9.5 -23t-22.5 -11z" />
    <glyph glyph-name="surround-sound-3-1" unicode="&#xfcef;" arabic-form="medial" 
d="M330 141q-16 2 -26 12.5t-10 26t10 25.5t25.5 10t26 -10t10.5 -25.5t-10.5 -26t-25.5 -12.5zM549 509v-294h38v-74h-148v74h38v220h-38l38 74h72zM0 509h148q31 -2 51.5 -22.5t20.5 -51.5v-220q0 -31 -20.5 -51.5t-51.5 -22.5h-148v74h148v74h-110v72h110v74h-148v74z
" />
    <glyph glyph-name="surround-sound-5-1" unicode="&#xfcf0;" arabic-form="medial" 
d="M330 141q-16 2 -26 12.5t-10 26t10 25.5t25.5 10t26 -10t10.5 -25.5t-10.5 -26t-25.5 -12.5zM549 509v-294h38v-74h-148v74h38v220h-38l38 74h72zM74 289q-31 0 -51.5 20.5t-22.5 51.5v148h220v-74h-146v-74h74q31 0 51.5 -20.5t20.5 -51.5v-74q0 -31 -20.5 -51.5
t-51.5 -22.5h-148v74h148v74h-74z" />
    <glyph glyph-name="surround-sound-7-1" unicode="&#xfcf1;" arabic-form="medial" 
d="M294 114q-18 2 -30 14t-12 29.5t12 29.5t29.5 12t29.5 -12t12 -29.5t-12 -29.5t-29 -14zM546 536v-337h41v-85h-167v85h41v252h-41l41 85h85zM252 536l-126 -422h-85l101 337h-142v85h252z" />
    <glyph glyph-name="television-classic" unicode="&#xfcf2;" arabic-form="medial" 
d="M181 590l-42 -42l76 -76h-157q-25 -1 -41.5 -17.5t-16.5 -41.5v-293q0 -26 16.5 -43t41.5 -17h471q25 0 41.5 17t16.5 43v293q0 25 -16.5 41.5t-41.5 17.5h-157l76 76l-42 42l-112 -113zM58 413h383v-293h-383v293zM514 413q12 0 20.5 -8t8.5 -20.5t-8.5 -21t-20.5 -8.5
t-20.5 8.5t-8.5 21t8.5 20.5t20.5 8zM514 325q12 0 20.5 -8.5t8.5 -20.5t-8.5 -20.5t-20.5 -8.5t-20.5 8.5t-8.5 20.5t8.5 20.5t20.5 8.5z" />
    <glyph glyph-name="textbox-password" unicode="&#xfcf3;" arabic-form="medial" 
d="M441 472h146v-294h-146v-58q0 -13 8 -21t21 -10h59v-57h-74q-13 0 -28 8t-16 20q-2 -12 -16.5 -20t-27.5 -8h-73v57h59q12 2 20.5 10t8.5 21v410q0 13 -8.5 21t-20.5 10h-59v57h73q13 0 27.5 -8t16.5 -20q1 12 16 20t28 8h74v-57h-59q-13 -2 -21 -10t-8 -21v-58zM0 472
h322v-59h-264v-176h264v-59h-322v294zM529 237v176h-88v-176h88zM190 325q0 19 -12.5 31.5t-31 12.5t-31 -12.5t-12.5 -31.5t12.5 -31.5t31 -12.5t31 12.5t12.5 31.5zM322 358q-13 12 -30.5 11t-30.5 -15t-11.5 -31t14.5 -29.5t29.5 -12.5t28.5 11v66z" />
    <glyph glyph-name="thought-bubble" unicode="&#xfcf4;" arabic-form="medial" 
d="M44 134q18 -1 30.5 -13.5t12.5 -31t-12.5 -31t-31 -12.5t-31 12.5t-12.5 31t12.5 31t31.5 13.5zM190 222q32 -1 52.5 -21.5t20.5 -51.5t-20.5 -52t-51.5 -21t-51.5 21t-20.5 52t20.5 51.5t50.5 21.5zM367 251q-27 0 -49.5 10.5t-39.5 29.5q-16 -19 -38 -29.5t-50 -10.5
q-44 2 -75 28t-41 69q-33 12 -53.5 41.5t-20.5 67.5q1 51 34.5 84t82.5 34q11 0 22 -3q33 31 81 32q27 0 49.5 -10.5t39.5 -29.5q16 19 38 29.5t50 10.5q44 -1 75 -27.5t41 -68.5q33 -13 53.5 -42.5t20.5 -66.5q-1 -51 -34.5 -84t-82.5 -35l-22 3q-33 -30 -81 -32z" />
    <glyph glyph-name="thought-bubble-outline" unicode="&#xfcf5;" arabic-form="isolated" 
d="M44 134q18 -1 30.5 -13.5t12.5 -31t-12.5 -31t-31 -12.5t-31 12.5t-12.5 31t12.5 31t31.5 13.5zM190 222q32 -1 52.5 -21.5t20.5 -51.5t-20.5 -52t-51.5 -21t-51.5 21t-20.5 52t20.5 51.5t50.5 21.5zM367 251q-27 0 -49.5 10.5t-39.5 29.5q-16 -19 -38 -29.5t-50 -10.5
q-44 2 -75 28t-41 69q-33 12 -53.5 41.5t-20.5 67.5q1 51 34.5 84t82.5 34l22 -3q33 31 81 32q27 0 49.5 -10.5t39.5 -29.5q16 19 38 29.5t50 10.5q44 -1 75 -27.5t41 -68.5q33 -13 53.5 -42.5t20.5 -66.5q-1 -51 -34.5 -84t-82.5 -35l-22 3q-33 -30 -81 -32zM117 516
q-25 0 -41.5 -17.5t-16.5 -42t16.5 -41t41.5 -16.5q15 0 28 5q-13 -15 -13 -36q0 -24 16.5 -40.5t43 -16.5t42.5 19l44 49l44 -49q18 -19 45 -19q23 0 39 13.5t20 35.5q16 -19 44 -21q25 0 41.5 17.5t16.5 42.5t-16.5 41.5t-41.5 16.5q-15 0 -28 -6q13 15 13 36
q0 25 -16.5 41.5t-43 16.5t-42.5 -20l-46 -49l-42 49q-17 20 -45 20q-23 0 -39 -14t-20 -36q-16 19 -44 21zM190 178q-12 -1 -20.5 -9.5t-8.5 -20.5t8.5 -20.5t21 -8.5t20.5 8.5t8 20.5t-8 20.5t-21 9.5z" />
    <glyph glyph-name="trackpad" unicode="&#xfcf6;" arabic-form="isolated" 
d="M58 590h471q25 0 41.5 -17.5t16.5 -42.5v-410q0 -25 -16.5 -42.5t-41.5 -17.5h-471q-25 0 -41.5 17.5t-16.5 42.5v410q0 25 16.5 42.5t41.5 17.5zM58 530v-234h471v234h-471zM58 120h207v117h-207v-117zM529 120v117h-207v-117h207z" />
    <glyph glyph-name="ultra-high-definition" unicode="&#xfcf7;" arabic-form="isolated" 
d="M214 459h53v-108h53v108h53v-268h-53v108h-53v-108h-53v268zM427 459h80q34 -2 56.5 -24.5t23.5 -55.5v-108q-1 -33 -23.5 -55.5t-56.5 -24.5h-80v268zM507 245q11 0 18.5 7.5t7.5 18.5v108q0 11 -7.5 18.5t-18.5 7.5h-27v-160h27zM160 271q0 -33 -22.5 -55.5t-57 -22.5
t-57 22.5t-23.5 55.5v188h54v-188q0 -11 7.5 -18.5t18.5 -7.5t18.5 7.5t8.5 18.5v188h53v-188z" />
    <glyph glyph-name="van-passenger" unicode="&#xfcf8;" arabic-form="isolated" 
d="M54 498q-23 -1 -38 -16t-16 -38v-213h54q1 -34 23.5 -56.5t56 -22.5t56 22.5t24.5 56.5h159q2 -34 24.5 -56.5t56 -22.5t56 22.5t23.5 56.5h54v107q-1 23 -16 38t-38 15l-80 107h-399zM54 458h106v-67h-106v67zM214 458h106v-67h-106v67zM373 458h67l52 -67h-119v67z
M134 271q17 0 28.5 -11.5t11.5 -28.5t-11.5 -28t-29 -11t-28.5 11t-11 28t11 28.5t29 11.5zM453 271q18 0 29 -11.5t11 -28.5t-11 -28t-28.5 -11t-29 11t-11.5 28t11.5 28.5t28.5 11.5z" />
    <glyph glyph-name="van-utility" unicode="&#xfcf9;" arabic-form="isolated" 
d="M54 498q-23 -1 -38 -16t-16 -38v-213h54q1 -34 23.5 -56.5t56 -22.5t56 22.5t24.5 56.5h159q2 -34 24.5 -56.5t56 -22.5t56 22.5t23.5 56.5h54v107q-1 23 -16 38t-38 15l-80 107h-399zM373 458h67l52 -67h-119v67zM134 271q17 0 28.5 -11.5t11.5 -28.5t-11.5 -28t-29 -11
t-28.5 11t-11 28t11 28.5t29 11.5zM453 271q18 0 29 -11.5t11 -28.5t-11 -28t-28.5 -11t-29 11t-11.5 28t11.5 28.5t28.5 11.5z" />
    <glyph glyph-name="vanish" unicode="&#xfcfa;" arabic-form="isolated" 
d="M423 293v64h164v-64h-164zM385 463l93 93l46 -46l-93 -93zM261 195h65v-163h-65v163zM261 618h65v-163h-65v163zM63 140l93 93l46 -46l-93 -93zM63 510l46 46l93 -93l-46 -46zM164 293h-164v64h164v-64zM524 140l-46 -46l-93 93l46 46z" />
    <glyph glyph-name="video-3d" unicode="&#xfcfb;" arabic-form="isolated" 
d="M0 536h167q36 -2 59.5 -25.5t25.5 -59.5v-252q-2 -36 -25.5 -59.5t-59.5 -25.5h-167v85h167v85h-126v82h126v85h-167v85zM335 536h126q55 -2 90.5 -37.5t35.5 -88.5v-170q0 -53 -35.5 -88.5t-90.5 -37.5h-126v422zM461 199q18 0 29.5 12t13.5 29v170q-2 17 -13.5 29
t-29.5 12h-41v-252h41z" />
    <glyph glyph-name="wall" unicode="&#xfcfc;" arabic-form="isolated" 
d="M29 222h265v-147h-265v147zM0 399h176v-148h-176v148zM205 399h177v-148h-177v148zM411 399h176v-148h-176v148zM322 222h236v-147h-236v147zM29 575h236v-147h-236v147zM294 575h264v-147h-264v147z" />
    <glyph glyph-name="xmpp" unicode="&#xfcfd;" arabic-form="isolated" 
d="M294 209q-51 53 -83.5 126t-34.5 151l-176 59q4 -125 79 -220t172 -152q-53 -38 -105 -40v-28q28 0 65.5 11t82.5 34q44 -23 81.5 -34t65.5 -11v28q-52 2 -105 40q97 57 172 152t79 220l-176 -59q0 -78 -33.5 -151t-83.5 -126z" />
    <glyph glyph-name="account-multiple-plus-outline" unicode="&#xfcfe;" arabic-form="isolated" 
d="M330 496q-36 0 -60.5 -24.5t-24.5 -61t24.5 -60.5t60.5 -25q28 0 49 16q21 -16 49 -16q36 1 60 25t24 60.5t-24 61t-60 24.5q-28 0 -49 -16q-20 16 -49 16zM330 459q21 0 34.5 -13.5t13.5 -34.5t-13.5 -35t-34 -14t-34.5 14t-14 35t14 34.5t34 13.5zM428 459
q20 0 34.5 -13.5t14.5 -34.5t-14.5 -35t-34.5 -14q-13 0 -24 7q11 18 11 41.5t-11 42.5q11 6 24 6zM73 422v-73h-73v-48h73v-73h50v73h73v48h-73v73h-50zM330 301q-45 0 -99 -20t-60 -60v-67h416v67q-5 40 -60 60t-99 20q-21 0 -49 -6q-27 6 -49 6zM330 264q47 -2 84 -17
t39 -26v-30h-245v30q2 11 38.5 26t83.5 17zM467 260q35 -7 58.5 -18.5t24.5 -20.5v-30h-60v30q-2 23 -23 39z" />
    <glyph glyph-name="account-plus-outline" unicode="&#xfcff;" arabic-form="isolated" 
d="M373 539q-45 -2 -74.5 -32t-29.5 -75.5t29.5 -75.5t74.5 -30t75 30t30 75.5t-30 75.5t-75 32zM373 487q24 0 39.5 -16t15.5 -40t-15.5 -39.5t-39 -15.5t-39.5 15.5t-16 39.5t16 40t39 16zM80 459v-80h-80v-54h80v-80h54v80h80v54h-80v80h-54zM373 299q-60 0 -133 -27
t-80 -81v-80h427v80q-7 54 -80.5 81t-133.5 27zM373 248q63 -2 111.5 -22t51.5 -35v-28h-325v28q3 15 51.5 35t110.5 22z" />
    <glyph glyph-name="allo" unicode="&#xfd00;" arabic-form="isolated" 
d="M587 325v-264q0 -22 -20 -28.5t-32 11.5l-46 62q-83 -74 -195 -74q-122 0 -208 86t-86 207.5t86 207.5t207.5 86t207.5 -86t86 -208z" />
    <glyph glyph-name="artist" unicode="&#xfd01;" arabic-form="isolated" 
d="M248 263q45 0 98 -13q-37 -41 -37 -95q0 -42 24 -78h-333v62q0 56 85 90t163 34zM480 387h107v-62h-61v-170q0 -31 -23 -54.5t-55 -23.5t-54.5 23.5t-22.5 55t22.5 54t54.5 22.5q14 0 32 -7v162zM248 325q-51 0 -88 36t-37 87t37 88t88 37t87 -37t36 -88t-36 -87t-87 -36
z" />
    <glyph glyph-name="atlassian" unicode="&#xfd02;" arabic-form="isolated" 
d="M174 347q-4 6 -11 7t-11 -2t-7 -8l-143 -287q-6 -15 7 -24q4 -2 8 -1h201q9 0 15 8q32 72 15.5 158t-74.5 149zM280 610q-55 -87 -60.5 -185t38.5 -191l96 -194q5 -8 15 -8h201q15 1 17 17q1 4 -2 8l-136 271q-118 238 -140 282q-3 5 -9.5 7.5t-12 -0.5t-7.5 -7z" />
    <glyph glyph-name="azure" unicode="&#xfd03;" arabic-form="isolated" 
d="M324 554l-190 -407l-134 2l149 257zM344 521l243 -425h-448l273 50l-143 169z" />
    <glyph glyph-name="basketball" unicode="&#xfd04;" arabic-form="isolated" 
d="M10 248q26 9 55 9q59 0 103 -37l-92 -92q-47 54 -66 120zM398 390q87 -65 188 -32q1 -10 1 -33q0 -45 -20.5 -101t-51.5 -91l-186 186zM198 189q47 -68 20 -148q-64 18 -111 57zM299 289l186 -186q-96 -84 -225 -70q10 29 10 63q0 28 -12.5 64.5t-28.5 59.5zM200 252
q-42 36 -95.5 46t-103.5 -6q-1 10 -1 33q0 45 20.5 101t51.5 91l195 -198zM398 450q-59 73 -27 159q27 -7 62 -27t58 -39zM577 402q-26 -9 -55 -9q-48 0 -92 28l91 90q38 -48 56 -109zM299 351l-197 196q96 84 225 70q-10 -29 -10 -62t14.5 -73t35.5 -63z" />
    <glyph glyph-name="battery-charging-wireless" unicode="&#xfd05;" arabic-form="isolated" 
d="M307 549h-55v55h-168v-55h-56q-12 -1 -20 -9t-8 -20v-447q0 -11 8 -19t20 -8h279q11 0 19 8t9 19v447q-1 12 -9 20t-19 9zM504 523l-39 -39q66 -70 66 -159t-66 -159l39 -39q83 87 83 198t-83 198zM426 443l-39 -39q32 -34 32 -79t-32 -79l39 -39q48 51 48 118t-48 118z
" />
    <glyph glyph-name="battery-charging-wireless-10" unicode="&#xfd06;" arabic-form="isolated" 
d="M504 523l-39 -39q66 -70 66 -159t-66 -159l39 -39q83 87 83 198t-83 198zM426 443l-39 -39q32 -34 32 -79t-32 -79l39 -39q48 51 48 118t-48 118zM307 549h-55v55h-168v-55h-56q-12 -1 -20 -9t-8 -20v-447q0 -11 8 -19t20 -8h279q11 0 19 8t9 19v447q-1 12 -9 20t-19 9z
M279 143h-224v350h224v-350z" />
    <glyph glyph-name="battery-charging-wireless-20" unicode="&#xfd07;" arabic-form="isolated" 
d="M504 523l-39 -39q66 -70 66 -159t-66 -159l39 -39q83 87 83 198t-83 198zM426 443l-39 -39q32 -34 32 -79t-32 -79l39 -39q48 51 48 118t-48 118zM307 549h-55v55h-168v-55h-56q-12 -1 -20 -9t-8 -20v-447q0 -11 8 -19t20 -8h279q11 0 19 8t9 19v447q-1 12 -9 20t-19 9z
M279 185h-224v308h224v-308z" />
    <glyph glyph-name="battery-charging-wireless-30" unicode="&#xfd08;" arabic-form="isolated" 
d="M504 523l-39 -39q66 -70 66 -159t-66 -159l39 -39q83 87 83 198t-83 198zM426 443l-39 -39q32 -34 32 -79t-32 -79l39 -39q48 51 48 118t-48 118zM307 549h-55v55h-168v-55h-56q-12 -1 -20 -9t-8 -20v-447q0 -11 8 -19t20 -8h279q11 0 19 8t9 19v447q-1 12 -9 20t-19 9z
M279 214h-224v279h224v-279z" />
    <glyph glyph-name="battery-charging-wireless-40" unicode="&#xfd09;" arabic-form="isolated" 
d="M504 523l-39 -39q66 -70 66 -159t-66 -159l39 -39q83 87 83 198t-83 198zM426 443l-39 -39q32 -34 32 -79t-32 -79l39 -39q48 51 48 118t-48 118zM307 549h-55v55h-168v-55h-56q-12 -1 -20 -9t-8 -20v-447q0 -11 8 -19t20 -8h279q11 0 19 8t9 19v447q-1 12 -9 20t-19 9z
M279 256h-224v237h224v-237z" />
    <glyph glyph-name="battery-charging-wireless-50" unicode="&#xfd0a;" arabic-form="isolated" 
d="M504 523l-39 -39q66 -70 66 -159t-66 -159l39 -39q83 87 83 198t-83 198zM426 443l-39 -39q32 -34 32 -79t-32 -79l39 -39q48 51 48 118t-48 118zM307 549h-55v55h-168v-55h-56q-12 -1 -20 -9t-8 -20v-447q0 -11 8 -19t20 -8h279q11 0 19 8t9 19v447q-1 12 -9 20t-19 9z
M279 297h-224v196h224v-196z" />
    <glyph glyph-name="battery-charging-wireless-60" unicode="&#xfd0b;" arabic-form="isolated" 
d="M504 523l-39 -39q66 -70 66 -159t-66 -159l39 -39q83 87 83 198t-83 198zM426 443l-39 -39q32 -34 32 -79t-32 -79l39 -39q48 51 48 118t-48 118zM307 549h-55v55h-168v-55h-56q-12 -1 -20 -9t-8 -20v-447q0 -11 8 -19t20 -8h279q11 0 19 8t9 19v447q-1 12 -9 20t-19 9z
M279 337h-224v156h224v-156z" />
    <glyph glyph-name="battery-charging-wireless-70" unicode="&#xfd0c;" arabic-form="isolated" 
d="M504 523l-39 -39q66 -70 66 -159t-66 -159l39 -39q83 87 83 198t-83 198zM426 443l-39 -39q32 -34 32 -79t-32 -79l39 -39q48 51 48 118t-48 118zM307 549h-55v55h-168v-55h-56q-12 -1 -20 -9t-8 -20v-447q0 -11 8 -19t20 -8h279q11 0 19 8t9 19v447q-1 12 -9 20t-19 9z
M279 381h-224v112h224v-112z" />
    <glyph glyph-name="battery-charging-wireless-80" unicode="&#xfd0d;" arabic-form="isolated" 
d="M504 523l-39 -39q66 -70 66 -159t-66 -159l39 -39q83 87 83 198t-83 198zM426 443l-39 -39q32 -34 32 -79t-32 -79l39 -39q48 51 48 118t-48 118zM307 549h-55v55h-168v-55h-56q-12 -1 -20 -9t-8 -20v-447q0 -11 8 -19t20 -8h279q11 0 19 8t9 19v447q-1 12 -9 20t-19 9z
M279 409h-224v84h224v-84z" />
    <glyph glyph-name="battery-charging-wireless-90" unicode="&#xfd0e;" arabic-form="isolated" 
d="M504 523l-39 -39q66 -70 66 -159t-66 -159l39 -39q83 87 83 198t-83 198zM426 443l-39 -39q32 -34 32 -79t-32 -79l39 -39q48 51 48 118t-48 118zM307 549h-55v55h-168v-55h-56q-12 -1 -20 -9t-8 -20v-447q0 -11 8 -19t20 -8h279q11 0 19 8t9 19v447q-1 12 -9 20t-19 9z
M279 451h-224v42h224v-42z" />
    <glyph glyph-name="battery-charging-wireless-alert" unicode="&#xfd0f;" arabic-form="isolated" 
d="M307 549h-55v55h-168v-55h-56q-12 -1 -20 -9t-8 -20v-447q0 -11 8 -19t20 -8h279q11 0 19 8t9 19v447q-1 12 -9 20t-19 9zM195 157h-56v57h56v-57zM195 269h-56v140h56v-140zM504 523l-39 -39q66 -70 66 -159t-66 -159l39 -39q83 87 83 198t-83 198zM426 443l-39 -39
q32 -34 32 -79t-32 -79l39 -39q48 51 48 118t-48 118z" />
    <glyph glyph-name="battery-charging-wireless-outline" unicode="&#xfd10;" arabic-form="isolated" 
d="M504 523l-39 -39q66 -70 66 -159t-66 -159l39 -39q83 87 83 198t-83 198zM426 443l-39 -39q32 -34 32 -79t-32 -79l39 -39q48 51 48 118t-48 118zM307 549h-55v55h-168v-55h-56q-12 -1 -20 -9t-8 -20v-447q0 -11 8 -19t20 -8h279q11 0 19 8t9 19v447q-1 12 -9 20t-19 9z
M279 101h-224v392h224v-392z" />
    <glyph glyph-name="bitcoin" unicode="&#xfd11;" arabic-form="final" 
d="M0 607h142v121h79v-121h61v121h81v-121q162 -14 178.5 -121.5t-78.5 -130.5q129 -13 124 -152t-224 -160v-121h-81v121h-61v-121h-79v121h-142l21 80h39q17 2 28.5 13t11.5 28v322q0 17 -11.5 28t-28.5 13h-60v80zM221 527v-162q11 -2 90.5 7.5t91.5 73.5
q-12 64 -91.5 74.5t-90.5 6.5zM221 304v-181q15 -2 111.5 12t111.5 78q-15 67 -111.5 81t-111.5 10z" />
    <glyph glyph-name="briefcase-outline" unicode="&#xfd12;" arabic-form="final" 
d="M529 487q25 0 41.5 -17.5t16.5 -41.5v-323q0 -25 -16.5 -42t-41.5 -17h-471q-25 0 -41.5 17t-16.5 42v323q0 24 16.5 41.5t41.5 17.5h118v59q0 25 16.5 41.5t41.5 16.5h119q25 0 41.5 -16.5t16.5 -41.5v-59h118zM58 428v-323h471v323h-471zM353 487v59h-119v-59h119z" />
    <glyph glyph-name="cellphone-wireless" unicode="&#xfd13;" arabic-form="final" 
d="M509 514q37 -36 57.5 -85t20.5 -104t-20.5 -104t-57.5 -85l-37 38q30 30 46 68t16 83t-16 83t-46 68zM434 438q22 -22 34.5 -50.5t12.5 -62.5t-12.5 -62.5t-34.5 -50.5l-37 38q30 30 30 75t-30 75zM320 379q23 -1 38.5 -16t15.5 -38t-15.5 -38t-38 -15t-37.5 15t-15 38
t15 38t37 16zM280 619q29 -1 48 -20t20 -47v-121h-54v108h-240v-400h240v80h54v-121q-1 -28 -20 -47t-48 -20h-212q-29 1 -48 20t-20 47v454q1 28 20 47t48 20h212z" />
    <glyph glyph-name="clover" unicode="&#xfd14;" arabic-form="final" 
d="M294 348q73 65 110 108t37 84q-1 34 -24 56t-57 22q-40 0 -66 -28q-27 28 -68 28q-34 0 -56.5 -23t-23.5 -56q0 -40 37 -83t111 -108zM270 325q-65 73 -107.5 110t-83.5 37q-35 -1 -57 -23.5t-22 -57.5q0 -40 29 -66q-29 -26 -29 -68q0 -34 23.5 -56t56.5 -23
q40 0 82.5 37t107.5 110zM318 325q64 -73 106.5 -110t83.5 -37q35 1 57 23.5t22 57.5q0 40 -29 66q29 26 29 68q0 34 -23.5 56t-56.5 23q-40 0 -82.5 -37t-106.5 -110zM294 302q-74 -65 -111 -108t-37 -84q1 -34 24 -56t57 -22q40 0 67 28q26 -28 67 -28q34 0 56.5 23
t23.5 56q0 40 -37 83t-110 108z" />
    <glyph glyph-name="comment-question" unicode="&#xfd15;" arabic-form="final" 
d="M58 618h471q25 0 41.5 -16.5t16.5 -40.5v-353q0 -25 -16.5 -42t-41.5 -17h-179l-109 -109q-10 -8 -21 -8h-15q-12 0 -20.5 8t-8.5 20v89h-118q-25 0 -41.5 17t-16.5 42v353q0 24 16.5 40.5t41.5 16.5zM299 517q-39 0 -63.5 -17t-21.5 -48h57q0 12 8.5 18.5t21 6.5
t20.5 -8t8 -20t-6.5 -22t-17.5 -17q-24 -13 -32 -23.5t-8 -32.5h57q0 12 4.5 19.5t15.5 14.5q20 10 33.5 26t13.5 35q0 30 -24.5 49t-65.5 19zM265 325v-59h57v59h-57z" />
    <glyph glyph-name="content-save-outline" unicode="&#xfd16;" arabic-form="final" 
d="M391 553v-130h-325v-326h140q-20 19 -31 43t-11 55q1 55 37.5 91.5t92 36.5t92 -36.5t37.5 -91.5q0 -31 -11 -55t-31 -43h140v364l-91 92h-39zM66 489h260v64h-260v-64zM457 618l130 -129v-392q0 -27 -19 -46t-47 -19h-455q-29 0 -47.5 19t-18.5 46v456q0 27 19 46t47 19
h391zM294 259q-28 0 -46.5 -18t-18.5 -45.5t18.5 -47t46 -19.5t46 19.5t18.5 47t-18.5 45.5t-45.5 18z" />
    <glyph glyph-name="delete-restore" unicode="&#xfd17;" arabic-form="final" 
d="M378 240h83l-167 170l-168 -170h83v-167h169v167zM41 536h505v-504q0 -34 -26 -59.5t-59 -25.5h-335q-33 0 -59 25.5t-26 59.5v504zM587 662v-85h-587v85h146l43 41h209l43 -41h146z" />
    <glyph glyph-name="door" unicode="&#xfd18;" arabic-form="final" 
d="M99 765q-44 0 -71.5 -27.5t-27.5 -70.5v-782h587v782q0 43 -27.5 70.5t-71.5 27.5h-389zM99 667h389v-684h-389v684zM342 373v-96h98v96h-98z" />
    <glyph glyph-name="door-closed" unicode="&#xfd19;" arabic-form="final" 
d="M411 354h59v-58h-59v58zM294 590h205q26 0 42.5 -17t16.5 -43v-410h29v-60h-587v60h234v410q2 26 18.5 43t41.5 17zM294 530v-410h205v410h-205z" />
    <glyph glyph-name="door-open" unicode="&#xfd1a;" arabic-form="final" 
d="M294 590q-25 0 -41.5 -17t-18.5 -43h-205v-410h-29v-60h587v60h-29v410q0 26 -16.5 43t-42.5 17h-205zM294 530h205v-410h-205v410zM88 354h58v-58h-58v58z" />
    <glyph glyph-name="fan-off" unicode="&#xfd1b;" arabic-form="final" 
d="M308 618q-63 -2 -86.5 -48t-8.5 -112l168 -167q19 -4 37.5 -15t29.5 -31q30 -53 82 -42t57 107q-4 80 -72 97t-153 -27q-14 18 -36 26q4 22 15 42t33 31q54 32 42 82.5t-108 56.5zM37 560l-37 -37l71 -73q-27 0 -49 -27t-22 -83q3 -78 71 -96t153 26q14 -18 36 -27
q-4 -21 -15 -40.5t-32 -31.5q-54 -32 -43 -82.5t108 -56.5q51 0 76 31t25 81l112 -112l37 37z" />
    <glyph glyph-name="file-percent" unicode="&#xfd1c;" arabic-form="final" 
d="M367 691l220 -220v-439q-2 -31 -22.5 -52t-51.5 -21h-439q-31 0 -51.5 21t-22.5 52v586q2 31 22.5 52t51.5 21h293zM124 32l279 281l-49 48l-280 -280zM330 435h202l-202 201v-201zM129 361q-24 0 -39.5 -15.5t-15.5 -38.5t15.5 -38.5t39.5 -15.5t39.5 15.5t15.5 38.5
t-15.5 38.5t-39.5 15.5zM348 141q-24 0 -39 -15.5t-15 -38.5t15 -38.5t39 -15.5t39.5 15.5t15.5 38.5t-15.5 38.5t-39.5 15.5z" />
    <glyph glyph-name="finance" unicode="&#xfd1d;" arabic-form="final" 
d="M21 294h125v-316h-125v316zM240 262h127v-284h-127v284zM462 419h125v-441h-125v441zM462 672h125v-127h-31v62l-254 -254l-124 125l-144 -144l-34 34l178 177l124 -124l220 218h-60v33z" />
    <glyph glyph-name="flash-circle" unicode="&#xfd1e;" arabic-form="final" 
d="M278 89l144 287h-100v185l-146 -287h102v-185zM294 618q121 0 207 -86t86 -207t-86 -207t-207.5 -86t-207.5 86t-86 207t86 207t208 86z" />
    <glyph glyph-name="floor-plan" unicode="&#xfd1f;" arabic-form="final" 
d="M228 553v-162h-32v162h-130v-260h130v32h32v-164h-32v98h-130v-162h228v64h32v-64h195v64h66v-129h-587v586h587v-391h-66v164h-195v-164h-32v196h227v130h-293z" />
    <glyph glyph-name="forum-outline" unicode="&#xfd20;" arabic-form="final" 
d="M58 618q-25 0 -41.5 -16.5t-16.5 -40.5v-383l117 118h265q24 0 41 16.5t18 41.5v207q-1 24 -18 40.5t-41 16.5h-324zM58 561h324v-207h-265l-59 -58v265zM499 501v-59h30v-293l-59 59h-294v29h-59v-29q0 -25 17.5 -42t41.5 -17h294l117 -117v410q0 25 -16.5 42t-41.5 17
h-30z" />
    <glyph glyph-name="golf" unicode="&#xfd21;" arabic-form="final" 
d="M535 118q23 0 37.5 -14.5t14.5 -37t-14.5 -37t-37 -14.5t-37 14.5t-14.5 37t14.5 37t36.5 14.5zM450 535l-207 -107v-312q74 -4 121.5 -22t49.5 -46q-2 -29 -60 -48t-146 -19t-146.5 19t-61.5 48q2 20 29.5 36t73.5 24v-60h70v621z" />
    <glyph glyph-name="google-home" unicode="&#xfd22;" arabic-form="final" 
d="M119 510q-38 0 -44 6l-19 -270q36 -21 92 -34.5t162 -7.5t221 46l-36 418q-58 -58 -172 -108q-102 -44 -175 -50h-29zM114 618q-45 -39 -38 -53.5t66 -8.5q72 6 164 46q62 27 108 58t62.5 52t12.5 30.5t-41 9.5q-75 0 -188 -48q-96 -42 -146 -86zM531 758q4 -9 4 -19
l52 -639q0 -114 -79 -180t-213.5 -66t-214.5 68t-80 182l31 464q0 17 14.5 38t27.5 33l14 13q65 54 157 93q62 27 121.5 40.5t106 8.5t59.5 -36z" />
    <glyph glyph-name="guy-fawkes-mask" unicode="&#xfd23;" arabic-form="final" 
d="M587 293q-3 -125 -85.5 -208t-207.5 -86q-126 3 -208.5 86t-85.5 208l2 278q64 38 138 59t154.5 21t154.5 -20t138 -57v-281zM326 67q85 13 139.5 75t55.5 151v241q-104 51 -226 52q-125 -1 -232 -55l3 -238q1 -89 55.5 -151t139.5 -75v62h65v-62zM261 195h-97l-66 98
l98 -34h32l33 34h65l33 -34h32l98 34l-66 -98h-97l-32 32zM98 421q32 32 81 32t82 -32q-33 -30 -82 -30t-81 30zM326 421q32 32 81 32t82 -32q-33 -30 -82 -30t-81 30z" />
    <glyph glyph-name="home-account" unicode="&#xfd24;" arabic-form="final" 
d="M294 575l-294 -264h88v-236h411v236h88zM294 406q27 0 45.5 -19t18.5 -47t-18.5 -46.5t-46 -18.5t-46 18.5t-18.5 46.5t18.5 47t46.5 19zM294 222q37 0 82.5 -16.5t49.5 -49.5v-22h-265v22q4 33 49.5 49.5t83.5 16.5z" />
    <glyph glyph-name="home-heart" unicode="&#xfd25;" arabic-form="final" 
d="M0 311l294 264l293 -264h-88v-236h-411v236h-88zM294 134l20 19q58 51 92 90.5t35 79.5q-1 34 -24 57t-57 24q-20 0 -37 -8t-29 -23q-13 15 -30 23t-37 8q-34 -1 -57 -24t-24 -57q1 -40 35 -79.5t92 -90.5z" />
    <glyph glyph-name="hot-tub" unicode="&#xfd26;" arabic-form="final" 
d="M146 575q25 -1 42 -17.5t17 -41.5t-17 -41.5t-42 -16.5t-41.5 16.5t-16.5 41.5t16.5 41.5t41.5 17.5zM269 339h318v-235q0 -25 -16.5 -41.5t-41.5 -16.5h-471q-25 0 -41.5 16.5t-16.5 41.5v235h88v23q0 28 18.5 47t47.5 19v0q15 0 27.5 -5.5t22.5 -16.5l40 -46
q11 -11 25 -21zM146 104v176h-58v-176h58zM265 104v176h-60v-176h60zM382 104v176h-60v-176h60zM499 104v176h-58v-176h58zM489 520q22 -22 32.5 -50.5t6.5 -58.5l-3 -12h-55l3 16q5 36 -20 65l-2 1q-22 24 -32.5 52t-6.5 59l3 12h55l-3 -18q-5 -36 19 -65zM372 520
q22 -22 32.5 -50.5t4.5 -58.5l-1 -12h-55l3 16q5 36 -21 65l-2 1q-23 24 -32.5 52t-5.5 59l1 12h57l-3 -18q-7 -36 19 -65z" />
    <glyph glyph-name="hulu" unicode="&#xfd27;" arabic-form="final" 
d="M587 294v-360h-187v316q-2 22 -16.5 36.5t-34.5 14.5h-114q-22 0 -36 -14.5t-16 -36.5v-316h-183v782h187v-250q18 8 37 8h187q75 -2 124.5 -53.5t51.5 -126.5z" />
    <glyph glyph-name="ice-cream" unicode="&#xfd28;" arabic-form="final" 
d="M294 813q82 -2 137 -57t57 -140q44 -9 71.5 -42t27.5 -77q-2 -53 -36.5 -87.5t-85.5 -36.5h-343q-51 2 -85.5 36.5t-36.5 87.5q0 44 27.5 77t71.5 44q2 83 57 138t138 57zM147 325h293l-98 -488h-97z" />
    <glyph glyph-name="image-off" unicode="&#xfd29;" arabic-form="final" 
d="M38 618l-38 -37l59 -59v-372q0 -25 17 -42t42 -17h373l59 -59l37 38zM113 618l474 -474v415q0 27 -17 43t-42 16h-415zM220 311l74 -88l29 37l80 -81h-285z" />
    <glyph glyph-name="karate" unicode="&#xfd2a;" arabic-form="final" 
d="M515 644q-23 13 -46.5 6.5t-37.5 -30t-7.5 -47t29.5 -37t47 -7t38 30t7.5 46.5t-30.5 38zM587 392l-81 -139l-54 31l54 94l-48 41l-98 -170v-252h-63v268l-297 173l31 54l243 -141l76 129l-201 73l24 59l218 -79q17 -7 35 -16l26 -16q16 -9 31 -22z" />
    <glyph glyph-name="ladybug" unicode="&#xfd2b;" arabic-form="final" 
d="M294 561q41 0 78 -11l61 105q6 12 21 16.5t28.5 -3.5t17 -22.5t-5.5 -28.5l-55 -94q69 -41 109 -108h-509q40 67 109 108l-55 94q-9 14 -5.5 28.5t17 22.5t28.5 3.5t21 -16.5l61 -105q37 11 79 11zM587 269q-3 -119 -77 -199.5t-189 -92.5v383h251q15 -43 15 -91zM0 269
q0 48 15 91h251v-383q-115 12 -189 92.5t-77 199.5z" />
    <glyph glyph-name="notebook" unicode="&#xfd2c;" arabic-form="final" 
d="M0 489v64h66v33q0 28 18 46.5t46 18.5h196v-228l82 49l81 -49v228h32q28 0 46 -19.5t20 -45.5v-522q-2 -26 -20 -45.5t-46 -19.5h-391q-26 0 -45 19.5t-19 45.5v33h-66v64h66v132h-66v64h66v132h-66zM130 357h-64v-64h64v64zM130 489v64h-64v-64h64zM130 97v64h-64v-64
h64z" />
    <glyph glyph-name="phone-return" unicode="&#xfd2d;" arabic-form="initial" 
d="M587 512v-163h-49v114h-183l79 -79l-35 -35l-138 139l138 139l35 -35l-79 -80h232zM190 428q13 14 7 32q-18 58 -18 118q0 14 -9 23t-23 9h-115q-14 0 -23 -9t-9 -23q6 -235 162.5 -392t392.5 -163q14 0 23 9t9 23v115q0 14 -9 23t-23 9q-60 0 -116 18q-20 6 -34 -7
l-72 -72q-69 36 -124 90.5t-90 124.5z" />
    <glyph glyph-name="poker-chip" unicode="&#xfd2e;" arabic-form="initial" 
d="M587 325q-4 -125 -86.5 -207.5t-206.5 -85.5q-125 3 -207.5 85.5t-86.5 207.5q4 125 86.5 207.5t207.5 85.5q124 -3 206.5 -85.5t86.5 -207.5zM320 536q43 -5 80 -26t63 -56l47 27q-34 46 -83 75t-107 35v-55zM77 481l47 -27q26 35 63 56t80 26v55q-58 -6 -107 -35
t-83 -75zM51 216l46 27q-17 40 -17 82t17 82l-46 27q-24 -53 -24 -109t24 -109zM267 114q-43 5 -80 26t-63 56l-47 -27q34 -46 83 -75t107 -35v55zM510 169l-47 27q-26 -35 -63 -56t-80 -26v-54q57 6 106.5 34.5t83.5 74.5zM536 216q24 53 24 109t-24 109l-46 -27
q17 -40 17 -82t-17 -82zM373 325l-79 134l-80 -134l80 -134z" />
    <glyph glyph-name="shape" unicode="&#xfd2f;" arabic-form="initial" 
d="M248 278v-249h-248v249h248zM279 634l170 -279h-340zM449 294q60 -2 99 -41t39 -98.5t-39 -99t-99 -39.5t-99 39.5t-39 99t39 98.5t99 41z" />
    <glyph glyph-name="shape-outline" unicode="&#xfd30;" arabic-form="initial" 
d="M248 278v-249h-248v249h248zM186 215h-124v-123h124v123zM279 634l170 -279h-340zM279 515l-60 -98h120zM449 294q60 -2 99 -41t39 -98.5t-39 -99t-99 -39.5t-99 39.5t-39 99t39 98.5t99 41zM449 231q-32 -1 -54 -23t-22 -54.5t22 -54.5t54.5 -22t54.5 22t22 54.5
t-22 54.5t-55 23z" />
    <glyph glyph-name="ship-wheel" unicode="&#xfd31;" arabic-form="initial" 
d="M26 351l54 -2q7 46 28.5 83.5t58.5 64.5l-30 46q-7 10 -3.5 21t13.5 16.5t20 2.5t16 -13l25 -48q39 16 85.5 16t85.5 -16l25 48q6 10 16 13t20 -2.5t13.5 -16.5t-3.5 -21l-30 -46q37 -27 58.5 -64.5t28.5 -83.5l54 2q11 0 18.5 -7.5t7.5 -18.5t-7.5 -18.5t-18.5 -7.5
l-54 2q-7 -46 -28.5 -83.5t-58.5 -64.5l30 -46q7 -10 3.5 -21t-13.5 -16.5t-20 -2.5t-16 13l-25 48q-39 -16 -85.5 -16t-85.5 16l-25 -48q-6 -10 -16 -13t-20 2.5t-13.5 16.5t3.5 21l30 46q-37 27 -58.5 64.5t-28.5 83.5l-54 -2q-11 0 -18.5 7.5t-7.5 18.5t7.5 18.5
t18.5 7.5zM214 343q7 25 26 41l-44 68q-25 -19 -41 -46t-21 -60zM294 405q12 0 23 -3l38 71q-29 13 -61.5 13t-61.5 -13l38 -71q11 3 24 3zM373 343l80 3q-5 33 -21 60t-41 46l-44 -68q19 -16 26 -41zM373 307q-7 -25 -26 -41l44 -68q25 19 41 46t21 60zM294 245
q-13 0 -24 3l-38 -71q29 -13 61.5 -13t61.5 13l-38 71q-11 -3 -23 -3zM214 307l-80 -3q5 -33 21 -60t41 -46l44 68q-19 16 -26 41z" />
    <glyph glyph-name="soccer-field" unicode="&#xfd32;" arabic-form="initial" 
d="M58 561q-25 -2 -41.5 -18.5t-16.5 -41.5v-352q0 -25 16.5 -41.5t41.5 -18.5h471q25 2 41.5 18.5t16.5 41.5v352q0 25 -16.5 41.5t-41.5 18.5h-471zM58 501h207v-62q-40 -11 -64.5 -42t-24.5 -72t24.5 -72t64.5 -42v-62h-207v59h88v234h-88v59zM322 501h207v-59h-88v-234
h88v-59h-207v62q40 11 64.5 42t24.5 72t-24.5 72t-64.5 42v62zM58 384h30v-118h-30v118zM499 384h30v-118h-30v118zM322 376q14 -8 22.5 -21t8.5 -30t-8.5 -30t-22.5 -21v102zM265 376v-102q-14 8 -22.5 21t-8.5 30t8.5 30t22.5 21z" />
    <glyph glyph-name="table-column" unicode="&#xfd33;" arabic-form="initial" 
d="M99 813h389q42 0 70.5 -27.5t28.5 -68.5v-784q0 -41 -28.5 -68.5t-70.5 -27.5h-389q-42 0 -70.5 27.5t-28.5 68.5v784q0 41 28.5 68.5t70.5 27.5zM99 424v-198h389v198h-389zM99 130v-197h389v197h-389zM99 717v-197h389v197h-389z" />
    <glyph glyph-name="table-of-contents" unicode="&#xfd34;" arabic-form="medial" 
d="M0 423h457v66h-457v-66zM0 293h457v64h-457v-64zM0 161h457v66h-457v-66zM521 161h66v66h-66v-66zM521 489v-66h66v66h-66zM521 293h66v64h-66v-64z" />
    <glyph glyph-name="table-row" unicode="&#xfd35;" arabic-form="medial" 
d="M587 266q0 -25 -16.5 -41.5t-41.5 -16.5h-471q-25 0 -41.5 16.5t-16.5 41.5v118q0 25 16.5 41.5t41.5 16.5h471q25 0 41.5 -16.5t16.5 -41.5v-118zM58 266h118v118h-118v-118zM234 266h119v118h-119v-118zM411 266h118v118h-118v-118z" />
    <glyph glyph-name="table-settings" unicode="&#xfd36;" arabic-form="medial" 
d="M130 64h66v-65h-66v65zM261 64h65v-65h-65v65zM391 64h66v-65h-66v65zM66 651h455q28 -1 47 -19.5t19 -45.5v-392q0 -27 -19 -45.5t-47 -19.5h-455q-28 1 -47 19.5t-19 45.5v392q0 27 19 45.5t47 19.5zM66 520v-130h195v130h-195zM326 520v-130h195v130h-195zM66 324
v-130h195v130h-195zM326 324v-130h195v130h-195z" />
    <glyph glyph-name="television-box" unicode="&#xfd37;" arabic-form="medial" 
d="M66 618h455q28 0 47 -19t19 -46v-456q0 -27 -19 -46t-47 -19h-455q-28 0 -47 19t-19 46v456q0 27 19 46t47 19zM423 195l98 260h-81l-49 -147l-49 147h-276v-64h98v-196h64v196h58l73 -196h64z" />
    <glyph glyph-name="television-classic-off" unicode="&#xfd38;" arabic-form="medial" 
d="M0 553l37 37l521 -521l-37 -38l-59 59h-404q-25 0 -41.5 16.5t-16.5 42.5v294q0 22 14.5 38.5t36.5 20.5zM181 619l113 -113l112 113l42 -41l-76 -76h157q25 -1 41.5 -17.5t16.5 -41.5v-294q0 -15 -7 -27l-139 139v182h-182l-59 59h15l-76 76zM58 443v-294h346l-295 294
h-51zM514 443q-12 0 -20.5 -8.5t-8.5 -21t8.5 -20.5t20.5 -8t20.5 8t8.5 20.5t-8.5 21t-20.5 8.5zM514 355q-12 0 -20.5 -8.5t-8.5 -21t8.5 -20.5t20.5 -8t20.5 8t8.5 20.5t-8.5 21t-20.5 8.5z" />
    <glyph glyph-name="television-off" unicode="&#xfd39;" arabic-form="medial" 
d="M0 559l33 33l501 -501l-33 -33l-78 78h-19v-53h-208v53h-131q-22 0 -37 14.5t-16 36.5v313q1 20 12 34zM534 187v313h-343l-53 53h396q22 0 37 -15t16 -38v-313q-1 -15 -10.5 -28.5t-23.5 -19.5l-49 48h30zM65 187h306l-306 307v-307z" />
    <glyph glyph-name="towing" unicode="&#xfd3a;" arabic-form="medial" 
d="M373 379h144l-89 106h-55v-106zM440 151q16 0 28 12t12 28.5t-12 28t-28.5 11.5t-28 -11.5t-11.5 -28t11.5 -28.5t28.5 -12zM134 151q17 0 28.5 12t11.5 28.5t-11.5 28t-29 11.5t-28.5 -11.5t-11 -28t11 -28.5t29 -12zM453 539l134 -160v-188h-67q0 -32 -24 -56
t-56.5 -24t-56 24t-23.5 56h-146q0 -32 -24 -56t-56.5 -24t-56 24t-23.5 56h-54v108h219l-165 130v-78h-54v160h27l293 -161v189h133z" />
    <glyph glyph-name="upload-multiple" unicode="&#xfd3b;" arabic-form="medial" 
d="M167 219v252h-167l294 295l293 -295h-167v-252h-253zM0 51v85h587v-85h-587zM587 -34h-587v-82h587v82z" />
    <glyph glyph-name="video-4k-box" unicode="&#xfd3c;" arabic-form="final" 
d="M66 618h455q28 0 47 -19t19 -46v-456q0 -27 -19 -46t-47 -19h-455q-28 0 -47 19t-19 46v456q0 27 19 46t47 19zM492 227l-66 98l66 98h-56l-65 -98v98h-48v-196h48v98l65 -98h56zM289 276v49h-32v98h-49v-98h-49v98h-49v-147h98v-49h49v49h32z" />
    <glyph glyph-name="video-input-antenna" unicode="&#xfd3d;" arabic-form="isolated" 
d="M294 503q-80 -1 -132.5 -53.5t-54.5 -132.5h53q1 56 39 94t95 40q56 -2 94 -40t39 -94h53q-2 80 -54.5 132.5t-131.5 53.5zM320 256q18 8 29 24t11 37q0 29 -19 47.5t-47.5 18.5t-47.5 -18.5t-19 -47.5q0 -20 11 -36.5t29 -24.5v-88l-91 -91l38 -37l80 80l79 -80l38 37
l-91 91v88zM294 610q-125 -3 -207.5 -85.5t-86.5 -207.5h54q2 102 69.5 169.5t170.5 70.5q102 -3 169.5 -70.5t69.5 -169.5h54q-4 125 -86.5 207.5t-206.5 85.5z" />
    <glyph glyph-name=".notdef" 
d="M508 675v-650q0 -25 -25 -25h-391q-25 0 -25 25v650q0 25 25 25h391q25 0 25 -25zM288 395l151 256h-302zM261 350l-145 246v-491zM460 596l-146 -246l146 -245v491zM439 49l-151 257l-151 -257h302z" />
    <glyph glyph-name=".null" horiz-adv-x="0" 
 />
    <glyph glyph-name="nonmarkingreturn" 
 />
    <glyph glyph-name="space" unicode=" " 
 />
    <glyph glyph-name="exclam" unicode="!" 
d="M340 675l-10 -445q0 -12 -7 -18.5t-19 -6.5h-33q-25 0 -25 25l-11 445q0 25 25 25h55q25 0 25 -25zM305 -10h-35q-25 0 -25 25v47q0 25 25 25h35q25 0 25 -25v-47q0 -25 -25 -25z" />
    <glyph glyph-name="quotedbl" unicode="&#x22;" 
d="M219.5 743.5q6.5 -6.5 5.5 -18.5l-12 -288q-1 -24 -26 -24h-27q-24 0 -26 24l-13 288q0 25 25 25h55q12 0 18.5 -6.5zM448.5 743.5q6.5 -6.5 5.5 -18.5l-13 -288q0 -24 -25 -24h-28q-23 0 -25 24l-13 288q-1 12 5.5 18.5t19.5 6.5h55q12 0 18.5 -6.5z" />
    <glyph glyph-name="numbersign" unicode="#" 
d="M524 245v-27q0 -25 -25 -25h-66v-168q0 -25 -25 -25h-35q-25 0 -25 25v168h-120v-168q0 -25 -25 -25h-35q-25 0 -25 25v168h-67q-25 0 -25 25v26q0 26 25 26h67v154h-67q-25 0 -25 25v26q0 26 25 26h67v174q0 25 25 25h35q25 0 25 -25v-174h120v174q0 25 25 25h35
q25 0 25 -25v-174h66q25 0 25 -25v-27q0 -25 -25 -25h-66v-154h66q25 0 25 -25zM348 270v154h-120v-154h120z" />
    <glyph glyph-name="dollar" unicode="$" 
d="M470 50q-48 -44 -140 -56v-169q0 -25 -25 -25h-35q-25 0 -25 25v165q-103 3 -163 13q-12 2 -17 10t-3 20l6 26q6 23 30 20q67 -12 161 -12q84 0 128.5 27t44.5 78q0 39 -37 62.5t-107 31.5q-117 13 -172.5 51t-55.5 121q0 74 47 117t138 52v168q0 25 25 25h35
q25 0 25 -25v-166q70 -2 124 -11q20 -5 20 -23q0 -5 -1 -8l-7 -26q-6 -22 -30 -18q-62 11 -139 11q-75 0 -113.5 -24t-38.5 -71q0 -45 36 -66.5t107 -29.5q230 -26 230 -177q0 -72 -48 -116z" />
    <glyph glyph-name="glyph8" unicode="%" 
d="M213 575v-90q0 -25 -25 -25h-100q-25 0 -25 25v90q0 25 25 25h100q25 0 25 -25zM43 105q0 8 9 17l412 412q9 9 18 9q7 0 17 -8l24 -21q9 -9 9 -18t-8 -17l-413 -413q-8 -8 -17 -8q-8 0 -18 8l-23 21q-10 10 -10 18zM513 115v-90q0 -25 -25 -25h-100q-25 0 -25 25v90
q0 25 25 25h100q25 0 25 -25z" />
    <glyph glyph-name="ampersand" unicode="&#x26;" 
d="M443 21q-9 31 -28 64q-38 -46 -85.5 -69t-96.5 -23q-83 0 -132 51t-49 136q0 55 28 107t85 93q-82 83 -82 161q0 44 21.5 79.5t59.5 56t84 20.5q47 0 85.5 -21.5t60.5 -58.5t22 -83q0 -32 -13 -63t-38 -56q-7 -7 -15 -7q-10 0 -19 9l-20 20q-9 9 -9 19q0 8 7 15
q26 26 26 61q0 37 -25 61.5t-63 24.5q-34 0 -56.5 -22t-22.5 -54q0 -51 63 -114q111 -111 174 -191q7 20 13 47q6 23 30 19l33 -6q20 -3 20 -22q0 -5 -1 -8q-14 -59 -38 -108q46 -72 63 -132q3 -13 -3 -20t-19 -7h-32q-20 0 -28 21zM303 90.5q35 21.5 64 66.5
q-58 75 -147 167q-42 -29 -63 -67t-21 -77q0 -54 25.5 -82.5t71.5 -28.5q35 0 70 21.5z" />
    <glyph glyph-name="quotesingle" unicode="'" 
d="M340 725l-13 -288q-1 -24 -25 -24h-28q-24 0 -26 24l-12 288q-1 12 5.5 18.5t18.5 6.5h55q25 0 25 -25z" />
    <glyph glyph-name="parenleft" unicode="(" 
d="M472 -130q0 -5 -1 -8l-6 -28q-4 -24 -30 -19q-103 21 -182 85t-123.5 161t-44.5 214t44.5 214t123.5 161t182 85l8 1q17 0 22 -20l6 -28q1 -3 1 -8q0 -19 -20 -22q-82 -16 -145.5 -69t-99.5 -134t-36 -180t36 -180t99.5 -134t145.5 -69q20 -3 20 -22z" />
    <glyph glyph-name="parenright" unicode=")" 
d="M268.5 -39q63.5 53 99.5 134t36 180t-36 180t-99.5 134t-145.5 69q-20 3 -20 22q0 5 1 8l6 28q4 24 30 19q103 -21 182 -85t123.5 -161t44.5 -214t-44.5 -214t-123.5 -161t-182 -85l-8 -1q-17 0 -22 20l-6 28q-1 3 -1 8q0 19 20 22q82 16 145.5 69z" />
    <glyph glyph-name="glyph13" unicode="*" 
d="M532 301q0 -15 -18 -21l-141 -46l100 -140q6 -7 6 -16q0 -11 -11 -19l-29 -20q-9 -6 -16 -6q-10 0 -19 11l-117 162l-116 -162q-10 -12 -21 -12q-7 0 -15 6l-29 21q-11 8 -11 18q0 8 6 17l102 140l-142 46q-18 6 -18 21q0 4 2 10l11 34q6 18 22 18q2 0 10 -2l157 -52v166
q0 25 25 25h35q25 0 25 -25v-166l157 52q8 2 10 2q16 0 22 -18l11 -34q2 -6 2 -10z" />
    <glyph glyph-name="glyph14" unicode="+" 
d="M524 264v-27q0 -25 -25 -25h-169v-187q0 -25 -25 -25h-35q-25 0 -25 25v187h-169q-25 0 -25 25v26q0 26 25 26h169v186q0 25 25 25h35q25 0 25 -25v-186h169q25 0 25 -25z" />
    <glyph glyph-name="comma" unicode="," 
d="M363 115v-117q0 -91 -24 -144t-77 -77t-144 -24q-25 0 -25 24v27q0 25 24 25q89 0 125.5 38.5t35.5 132.5h-40q-25 0 -25 25v90q0 25 25 25h100q25 0 25 -25z" />
    <glyph glyph-name="hyphen" unicode="-" 
d="M77 289h423q25 0 25 -25v-27q0 -25 -25 -25h-423q-25 0 -25 25v26q0 26 25 26z" />
    <glyph glyph-name="period" unicode="." 
d="M362 115v-90q0 -25 -25 -25h-100q-25 0 -25 25v90q0 25 25 25h100q25 0 25 -25z" />
    <glyph glyph-name="glyph18" unicode="/" 
d="M455 682q8 14 20 14q6 0 13 -3l32 -16q14 -8 14 -20q0 -5 -3 -13l-413 -826q-8 -14 -20 -14q-5 0 -13 3l-32 16q-14 8 -14 20q0 5 3 13z" />
    <glyph glyph-name="zero" unicode="0" 
d="M411.5 666.5q52.5 -43.5 80.5 -125t28 -191.5t-28 -191.5t-80.5 -125t-123.5 -43.5t-124 43.5t-81 125t-28 191.5t28 191.5t81 125t124 43.5t123.5 -43.5zM180 557.5q-40 -76.5 -40 -207.5q0 -41 5 -86l264 264q-19 51 -50 78.5t-71 27.5q-68 0 -108 -76.5zM395.5 143
q39.5 76 39.5 207q0 42 -5 87l-263 -263q19 -52 50 -79.5t71 -27.5q68 0 107.5 76z" />
    <glyph glyph-name="one" unicode="1" 
d="M490 52v-27q0 -25 -25 -25h-355q-25 0 -25 25v27q0 25 25 25h167v443h-167q-25 0 -25 25v27q0 25 25 25q75 0 117 18.5t62 64.5q9 20 29 20h19q25 0 25 -25v-598h103q25 0 25 -25z" />
    <glyph glyph-name="two" unicode="2" 
d="M514 52v-28q0 -25 -25 -25h-380q-25 0 -25 25v24q0 62 27 110.5t60 78.5t88 72q53 42 83 70t49 61.5t19 73.5q0 118 -145 118q-57 0 -125 -24q-8 -2 -11 -2q-14 0 -22 17l-9 26q-2 4 -2 11q0 15 16 21q77 29 153 29q100 0 165.5 -49t65.5 -147q0 -57 -25.5 -103.5
t-62 -81t-96.5 -81.5q-69 -53 -103 -89.5t-39 -81.5h319q25 0 25 -25z" />
    <glyph glyph-name="three" unicode="3" 
d="M114 674q0 18 18 22q56 14 116 14q98 0 165 -43.5t67 -135.5q0 -57 -28.5 -96.5t-85.5 -70.5q53 -24 88.5 -72.5t35.5 -114.5q0 -94 -72 -140.5t-175 -46.5q-63 0 -121 14q-18 4 -18 22q0 6 1 9l8 28q4 17 21 17q6 0 10 -1q47 -11 99 -11q161 0 161 121q0 60 -43 97.5
t-111 37.5h-51q-25 0 -25 25v27q0 25 25 25h51q67 0 105.5 32t38.5 93q0 57 -37 81.5t-109 24.5q-47 0 -94 -11q-4 -1 -10 -1q-17 0 -21 17l-8 28q-1 3 -1 9z" />
    <glyph glyph-name="four" unicode="4" 
d="M510 196v-26q0 -25 -25 -25h-55v-120q0 -25 -25 -25h-35q-24 0 -24 25v120h-249q-24 0 -24 24v40q0 17 7 31l218 437q6 13 14 18t23 5h36q11 0 17 -4.5t6 -12.5q0 -3 -4 -13l-225 -449h181v171q0 25 25 25h35q25 0 25 -25v-171h54q25 0 25 -25z" />
    <glyph glyph-name="five" unicode="5" 
d="M435 375.5q58 -55.5 58 -164.5q0 -110 -62 -165.5t-185 -55.5q-63 0 -121 14q-18 4 -18 22q0 6 1 9l8 28q4 17 21 17q6 0 10 -1q47 -11 99 -11q161 0 161 143t-144 143h-64l-50 7q-24 3 -22 28l22 288q2 23 27 23h255q25 0 25 -25v-26q0 -25 -25 -25h-206l-15 -193h53
q114 0 172 -55.5z" />
    <glyph glyph-name="six" unicode="6" 
d="M399 625q-38 7 -67 7q-71 0 -123.5 -52t-64.5 -178q86 27 141 27q59 0 107 -25.5t76 -73t28 -110.5q0 -70 -26.5 -122t-74.5 -80t-112 -28q-110 0 -170 83.5t-60 252.5q0 121 34 207.5t96 131.5t147 45q35 0 85 -8q12 -2 17 -10t3 -20l-6 -28q-6 -23 -30 -19zM375 107.5
q35 39.5 35 112.5q0 60 -35 95.5t-94 35.5q-76 0 -142 -34q0 -129 41.5 -189t105.5 -60q54 0 89 39.5z" />
    <glyph glyph-name="seven" unicode="7" 
d="M515 676v-50q0 -41 -10 -77.5t-35 -83.5l-98 -185q-70 -135 -70 -256q0 -24 -26 -24h-34q-25 0 -25 24q0 121 82 288l90 180q23 45 32 74.5t9 57.5h-260v-106q0 -25 -25 -25h-35q-25 0 -25 25v157q0 25 25 25h381q24 0 24 -24z" />
    <glyph glyph-name="eight" unicode="8" 
d="M480 277.5q39 -43.5 39 -108.5q0 -86 -64 -132.5t-167 -46.5q-62 0 -115 21.5t-84.5 61t-31.5 90.5q0 107 155 194q-62 32 -97 74.5t-35 109.5q0 50 27 88.5t74.5 59.5t106.5 21t106.5 -20.5t74.5 -57t27 -84.5q0 -107 -124 -189q69 -38 108 -81.5zM308 393
q49 33 75.5 75t26.5 75q0 38 -35 64.5t-87 26.5q-53 0 -88 -26.5t-35 -67.5q0 -80 143 -147zM392 93.5q42 26.5 42 77.5q0 50 -42 86.5t-115 68.5q-65 -37 -100 -74.5t-35 -80.5q0 -49 41 -76.5t105 -27.5q62 0 104 26.5z" />
    <glyph glyph-name="nine" unicode="9" 
d="M154 79q38 -7 67 -7q71 0 123.5 52t64.5 178q-86 -27 -141 -27q-59 0 -107 25.5t-76 73t-28 110.5q0 70 26.5 122t74.5 80t112 28q110 0 170 -83.5t60 -252.5q0 -121 -34 -207.5t-96 -131.5t-147 -45q-35 0 -85 8q-12 2 -17 10t-3 20l6 28q6 23 30 19zM178 596.5
q-35 -39.5 -35 -112.5q0 -60 35 -95.5t94 -35.5q76 0 142 34q0 129 -41.5 189t-105.5 60q-54 0 -89 -39.5z" />
    <glyph glyph-name="colon" unicode=":" 
d="M363 475v-90q0 -25 -25 -25h-100q-25 0 -25 25v90q0 25 25 25h100q25 0 25 -25zM363 115v-90q0 -25 -25 -25h-100q-25 0 -25 25v90q0 25 25 25h100q25 0 25 -25z" />
    <glyph glyph-name="semicolon" unicode=";" 
d="M363 475v-90q0 -25 -25 -25h-100q-25 0 -25 25v90q0 25 25 25h100q25 0 25 -25zM363 115v-117q0 -91 -24 -144t-77 -77t-144 -24q-25 0 -25 24v27q0 25 24 25q89 0 125.5 38.5t35.5 132.5h-40q-25 0 -25 25v90q0 25 25 25h100q25 0 25 -25z" />
    <glyph glyph-name="less" unicode="&#x3c;" 
d="M440 562q8 6 17 6q11 0 18 -10l19 -23q7 -10 7 -17q0 -9 -11 -18l-332 -250l332 -250q11 -9 11 -18q0 -7 -7 -17l-19 -23q-7 -10 -19 -10q-9 0 -17 6l-324 244q-19 14 -30 32t-11 36t11 36t30 32z" />
    <glyph glyph-name="glyph32" unicode="=" 
d="M76 404h423q25 0 25 -25v-27q0 -25 -25 -25h-423q-25 0 -25 25v26q0 26 25 26zM76 174h423q25 0 25 -25v-27q0 -25 -25 -25h-423q-25 0 -25 25v26q0 26 25 26z" />
    <glyph glyph-name="greater" unicode="&#x3e;" 
d="M490 286q11 -18 11 -36t-11 -36t-30 -32l-324 -244q-7 -6 -17 -6q-12 0 -19 10l-19 23q-7 10 -7 17q0 9 11 18l332 250l-332 250q-11 9 -11 18q0 7 7 17l19 23q7 10 18 10q10 0 17 -6l325 -244q19 -14 30 -32z" />
    <glyph glyph-name="glyph34" unicode="?" 
d="M90 700q136 -1 228.5 -30.5t137 -76t44.5 -98.5q0 -77 -69 -122.5t-187 -45.5h-1v-97q0 -25 -25 -25h-35q-25 0 -25 25v146q0 25 25 25h61q79 0 124.5 25t45.5 69q0 39 -39.5 68.5t-112.5 46t-172 16.5q-25 0 -25 25v24q0 25 25 25zM183 97h35q25 0 25 -25v-47
q0 -25 -25 -25h-35q-25 0 -25 25v47q0 25 25 25z" />
    <glyph glyph-name="glyph35" unicode="@" 
d="M110.5 648q59.5 62 177.5 62q117 0 176.5 -62t59.5 -184v-352q0 -25 -25 -25h-60q-84 0 -122.5 47t-38.5 142t38.5 142t122.5 47q0 169 -151 169q-152 0 -152 -170v-376q0 -170 152 -170q44 0 93 18q4 2 11 2q15 0 21 -16l11 -27q3 -6 3 -13q0 -13 -16 -19
q-58 -21 -123 -21q-118 0 -177.5 62t-59.5 184v376q0 122 59.5 184z" />
    <glyph glyph-name="A" unicode="A" 
d="M559 20q0 -9 -6 -14.5t-16 -5.5h-36q-22 0 -28 22l-49 198h-272l-50 -198q-6 -22 -28 -22h-35q-11 0 -17 5.5t-6 14.5q0 5 1 8l148 593q11 43 44.5 66t78.5 23t78.5 -23.5t43.5 -65.5l148 -593q1 -3 1 -8zM405 296l-78 311q-3 13 -14 20t-25 7t-25 -7t-14 -20l-78 -311
h234z" />
    <glyph glyph-name="B" unicode="B" 
d="M64 624q-25 0 -25 25v26q0 25 25 25h180q77 0 128.5 -26t76 -67t24.5 -86q0 -49 -26.5 -90t-64.5 -61q60 -22 95.5 -69.5t35.5 -104.5q0 -51 -29.5 -96t-86 -72.5t-133.5 -27.5h-137q-25 0 -25 25v599h-38zM244 403q72 0 113 31t41 77q0 28 -16.5 54t-51 42.5t-86.5 16.5
h-57v-221h57zM358.5 94.5q39.5 17.5 59 46t19.5 60.5t-19.5 60.5t-59 46.5t-94.5 18h-77v-249h77q55 0 94.5 17.5z" />
    <glyph glyph-name="C" unicode="C" 
d="M491 53q3 -6 3 -12q0 -15 -16 -21q-70 -30 -138 -30q-66 0 -123.5 30t-94.5 101.5t-37 188.5v80q0 117 37 188.5t94.5 101.5t123.5 30q67 0 138 -30q16 -6 16 -21q0 -6 -3 -12l-10 -24q-6 -16 -21 -16q-7 0 -11 2q-63 23 -111 23q-71 0 -119 -54t-48 -188v-80
q0 -134 48 -188t119 -54q48 0 111 23q4 2 11 2q15 0 21 -16z" />
    <glyph glyph-name="D" unicode="D" 
d="M355.5 671q80.5 -29 121 -101t40.5 -200v-40q0 -117 -31.5 -189t-104.5 -106.5t-198 -34.5h-56q-25 0 -25 25v599h-38q-25 0 -25 25v26q0 25 25 25h80q131 0 211.5 -29zM375 560.5q-57 62.5 -188 62.5v-546q88 0 141.5 25.5t78.5 80.5t25 147v40q0 128 -57 190.5z" />
    <glyph glyph-name="E" unicode="E" 
d="M516 52v-27q0 -25 -25 -25h-381q-25 0 -25 25v650q0 25 25 25h359q25 0 25 -25v-26q0 -25 -25 -25h-299v-221h278q25 0 25 -25v-27q0 -25 -25 -25h-278v-249h321q25 0 25 -25z" />
    <glyph glyph-name="F" unicode="F" 
d="M516 675v-26q0 -25 -25 -25h-321v-256h299q25 0 25 -25v-27q0 -24 -25 -24h-299v-267q0 -25 -25 -25h-35q-25 0 -25 25v650q0 25 25 25h381q25 0 25 -25z" />
    <glyph glyph-name="G" unicode="G" 
d="M500 374v-323q0 -21 -19 -30q-72 -31 -141 -31q-66 0 -123.5 30t-94.5 101.5t-37 188.5v80q0 117 37 188.5t94.5 101.5t123.5 30q67 0 138 -30q16 -6 16 -21q0 -6 -3 -12l-10 -24q-6 -16 -21 -16q-7 0 -11 2q-63 23 -111 23q-71 0 -119 -54t-48 -188v-80q0 -134 48 -188
t119 -54q34 0 77 12v242h-72q-25 0 -25 25v26q0 26 25 26h132q25 0 25 -25z" />
    <glyph glyph-name="H" unicode="H" 
d="M507 675v-650q0 -25 -25 -25h-35q-25 0 -25 25v308h-269v-308q0 -25 -25 -25h-35q-25 0 -25 25v650q0 25 25 25h35q25 0 25 -25v-265h269v265q0 25 25 25h35q25 0 25 -25z" />
    <glyph glyph-name="I" unicode="I" 
d="M480 675v-26q0 -25 -25 -25h-125v-547h135q25 0 25 -25v-27q0 -25 -25 -25h-355q-25 0 -25 25v27q0 25 25 25h135v547h-125q-25 0 -25 25v26q0 25 25 25h335q25 0 25 -25z" />
    <glyph glyph-name="J" unicode="J" 
d="M490 675v-405q0 -146 -70.5 -213t-176.5 -67q-75 0 -146 30q-16 6 -16 21q0 6 3 12l10 24q6 16 21 16q7 0 11 -2q63 -23 111 -23q69 0 118 47.5t49 154.5v352h-219q-25 0 -25 25v28q0 25 25 25h280q25 0 25 -25z" />
    <glyph glyph-name="K" unicode="K" 
d="M413 16l-222 307h-21v-298q0 -25 -25 -25h-35q-25 0 -25 25v650q0 25 25 25h35q25 0 25 -25v-276h22l205 286q11 15 30 15h53q10 0 16 -4t6 -10q0 -5 -7 -16l-232 -310l247 -329q7 -10 7 -16q0 -7 -6 -11t-16 -4h-52q-20 0 -30 16z" />
    <glyph glyph-name="L" unicode="L" 
d="M554 52v-27q0 -25 -25 -25h-419q-25 0 -25 25v650q0 25 25 25h35q25 0 25 -25v-598h359q25 0 25 -25z" />
    <glyph glyph-name="M" unicode="M" 
d="M545 26q0 -11 -7.5 -18.5t-18.5 -7.5h-34q-11 0 -17.5 7t-7.5 19l-18 514l-111 -222q-8 -18 -29 -18h-28q-21 0 -29 18l-111 222l-18 -514q-1 -12 -7.5 -19t-17.5 -7h-34q-11 0 -18.5 7.5t-7.5 18.5l20 654q0 25 27 25h16q42 0 59 -36l135 -270l135 270q17 36 59 36h16
q27 0 27 -25z" />
    <glyph glyph-name="N" unicode="N" 
d="M498.5 692.5q7.5 -7.5 7.5 -18.5v-649q0 -25 -27 -25h-16q-21 0 -35 8.5t-24 27.5l-250 491v-501q0 -11 -7 -18.5t-18 -7.5h-34q-11 0 -18.5 7.5t-7.5 18.5v649q0 25 27 25h16q23 0 36.5 -6.5t22.5 -24.5l250 -500v505q0 11 7 18.5t18 7.5h34q11 0 18.5 -7.5z" />
    <glyph glyph-name="O" unicode="O" 
d="M434.5 644q55.5 -66 55.5 -187v-214q0 -121 -55.5 -187t-146.5 -66t-147 65.5t-56 187.5v214q0 122 56 187.5t147 65.5t146.5 -66zM371.5 113.5q33.5 47.5 33.5 129.5v214q0 82 -33.5 129.5t-83.5 47.5q-51 0 -84.5 -48t-33.5 -129v-214q0 -81 33.5 -129t84.5 -48
q50 0 83.5 47.5z" />
    <glyph glyph-name="P" unicode="P" 
d="M393.5 670q61.5 -30 92.5 -80t31 -110q0 -61 -31 -111t-92.5 -79.5t-148.5 -29.5h-75v-235q0 -25 -25 -25h-35q-25 0 -25 25v650q0 25 25 25h135q87 0 148.5 -30zM384 377.5q48 41.5 48 102.5t-48.5 102.5t-138.5 41.5h-75v-288h75q91 0 139 41.5z" />
    <glyph glyph-name="Q" unicode="Q" 
d="M549 -180q0 -14 -17 -20q-55 -20 -105 -20q-80 0 -131 51t-51 163q-74 15 -117 79t-43 170v214q0 122 56 187.5t147 65.5t146.5 -66t55.5 -187v-214q0 -105 -43 -169.5t-116 -79.5q0 -76 24.5 -106t71.5 -30q37 0 75 14q4 2 12 2q14 0 21 -16l11 -26q3 -6 3 -12z
M203.5 114q33.5 -48 84.5 -48q50 0 83.5 47.5t33.5 129.5v214q0 82 -33.5 129.5t-83.5 47.5q-51 0 -84.5 -48t-33.5 -129v-214q0 -81 33.5 -129z" />
    <glyph glyph-name="R" unicode="R" 
d="M555 16q0 -16 -22 -16h-42q-20 0 -29 18l-147 294h-145v-287q0 -25 -25 -25h-35q-25 0 -25 25v650q0 25 25 25h158q74 0 126.5 -25.5t79 -69.5t26.5 -99t-27 -101t-75 -70l153 -305q4 -7 4 -14zM377 423.5q38 34.5 38 82.5q0 31 -16.5 58t-50 43.5t-80.5 16.5h-98v-235
h98q71 0 109 34.5z" />
    <glyph glyph-name="S" unicode="S" 
d="M438 609q-7 0 -11 2q-62 23 -111 23q-61 0 -104.5 -30t-43.5 -80q0 -41 31.5 -74.5t92.5 -46.5q109 -23 165.5 -78.5t56.5 -129.5q0 -61 -36.5 -107.5t-97.5 -72t-130 -25.5q-37 0 -76 7.5t-73 22.5q-16 6 -16 21q0 6 3 12l10 24q6 16 21 16q7 0 11 -2q27 -11 61.5 -16.5
t63.5 -5.5q73 0 123 32.5t50 88.5q0 44 -36 78.5t-108 49.5q-103 22 -152.5 77t-49.5 126q0 60 32.5 102.5t86 64.5t115.5 22q34 0 72.5 -7t67.5 -20q14 -7 14 -17q0 -6 -3 -14l-9 -27q-6 -16 -20 -16z" />
    <glyph glyph-name="T" unicode="T" 
d="M529 624h-199v-599q0 -25 -25 -25h-35q-25 0 -25 25v599h-199q-24 0 -24 25v26q0 25 25 25h482q25 0 25 -25v-26q0 -25 -25 -25z" />
    <glyph glyph-name="U" unicode="U" 
d="M430 700h35q25 0 25 -25v-462q0 -223 -202 -223q-203 0 -203 223v462q0 25 25 25h35q25 0 25 -25v-462q0 -82 27 -114.5t91 -32.5t90.5 32.5t26.5 114.5v462q0 25 25 25z" />
    <glyph glyph-name="V" unicode="V" 
d="M366.5 13.5q-33.5 -23.5 -78.5 -23.5t-78.5 23t-44.5 66l-148 593q-1 3 -1 8q0 9 6 14.5t17 5.5h35q24 0 28 -22l147 -585q3 -13 14 -20t25 -7t25 7t14 20l146 585q6 22 28 22h36q22 0 22 -19q0 -6 -1 -9l-148 -593q-10 -42 -43.5 -65.5z" />
    <glyph glyph-name="W" unicode="W" 
d="M498 -5h-16q-42 0 -59 36l-135 270l-135 -270q-17 -36 -59 -36h-16q-27 0 -27 25l-20 654q0 11 7.5 18.5t18.5 7.5h34q11 0 17.5 -7t7.5 -19l18 -514l111 222q8 18 29 18h28q21 0 29 -18l111 -222l18 514q1 12 7.5 19t17.5 7h34q11 0 18.5 -7.5t7.5 -18.5l-20 -654
q0 -25 -27 -25z" />
    <glyph glyph-name="X" unicode="X" 
d="M355 357q12 -4 22.5 -13t15.5 -19l142 -295q3 -7 3 -13q0 -17 -21 -17h-31q-21 0 -30 18l-138 277q-15 30 -30 30q-16 0 -30 -30l-139 -277q-9 -18 -29 -18h-31q-10 0 -16 4.5t-6 12.5q0 6 3 13l143 295q5 10 15 19t22 13q-28 12 -37 33l-136 281q-3 8 -3 13q0 16 22 16
h31q21 0 29 -18l132 -263q14 -29 30 -29t30 29l131 263q8 18 30 18h31q22 0 22 -16q0 -6 -4 -13l-135 -281q-11 -22 -38 -33z" />
    <glyph glyph-name="Y" unicode="Y" 
d="M554 684q0 -6 -4 -13l-145 -291q-24 -50 -75 -65v-290q0 -25 -25 -25h-35q-25 0 -25 25v290q-51 15 -75 65l-145 291q-4 7 -4 13q0 16 22 16h37q21 0 29 -18l136 -272q16 -30 43 -30q28 0 42 30l136 272q8 18 30 18h36q22 0 22 -16z" />
    <glyph glyph-name="Z" unicode="Z" 
d="M150 77h335q25 0 25 -25v-27q0 -25 -25 -25h-395q-25 0 -25 25v30q0 65 19.5 119t56.5 91l239 239q19 19 30.5 50t13.5 70h-303q-25 0 -25 25v26q0 25 25 25h364q25 0 25 -25v-30q0 -55 -19.5 -104t-56.5 -86l-238 -238q-41 -41 -46 -140z" />
    <glyph glyph-name="bracketleft" unicode="[" 
d="M495 -127v-26q0 -25 -25 -25h-295q-25 0 -25 25v878q0 25 25 25h295q25 0 25 -25v-26q0 -25 -25 -25h-235v-776h235q25 0 25 -25z" />
    <glyph glyph-name="backslash" unicode="\" 
d="M536 -157q0 -12 -14 -20l-32 -16q-7 -3 -13 -3q-12 0 -20 14l-413 826q-3 8 -3 13q0 12 14 20l32 16q7 3 13 3q12 0 20 -14l413 -826q3 -8 3 -13z" />
    <glyph glyph-name="bracketright" unicode="]" 
d="M425 725v-878q0 -25 -25 -25h-295q-25 0 -25 25v26q0 25 25 25h235v776h-235q-25 0 -25 25v26q0 25 25 25h295q25 0 25 -25z" />
    <glyph glyph-name="asciicircum" unicode="^" 
d="M253 710q15 9 35 9t34.5 -9t34.5 -28l189 -183q9 -9 9 -18t-10 -18l-22 -20q-10 -8 -18 -8q-9 0 -18 9l-184 189q-3 4 -6.5 6.5t-8.5 2.5q-7 0 -16 -9l-184 -189q-9 -9 -18 -9q-7 0 -17 8l-23 20q-10 10 -10 18q0 9 9 18l189 183q20 19 35 28z" />
    <glyph glyph-name="underscore" unicode="_" 
d="M76 0h423q25 0 25 -25v-27q0 -25 -25 -25h-423q-25 0 -25 25v27q0 25 25 25z" />
    <glyph glyph-name="grave" unicode="`" 
d="M390 544q-9 -15 -22 -15q-3 0 -11 2l-222 75q-17 6 -17 20q0 6 3 12l22 46q6 15 20 15q5 0 13 -3l209 -101q16 -7 16 -22q0 -3 -2 -11z" />
    <glyph glyph-name="a" unicode="a" 
d="M446 2q-99 -12 -161 -12q-65 0 -112.5 19.5t-71.5 52.5t-24 72t24 72t72 53t115 20h97v40q0 63 -33 89.5t-98 26.5q-41 0 -91 -10q-3 -1 -8 -1q-19 0 -22 19l-3 27v6q0 10 4.5 15.5t14.5 7.5q65 13 124 13q97 0 147 -46t50 -147v-290q0 -24 -24 -27zM195.5 182
q-32.5 -20 -32.5 -49t33 -48.5t95 -19.5q28 0 94 6v131h-97q-60 0 -92.5 -20z" />
    <glyph glyph-name="b" unicode="b" 
d="M85 725q0 25 25 25h35q25 0 25 -25v-223q40 8 77 8q105 0 174 -63.5t69 -196.5t-69 -196.5t-174 -63.5q-77 0 -149 29q-13 7 -13 21v685zM170 77q39 -9 77 -9q72 0 114.5 43t42.5 139q0 101 -46 143.5t-121 42.5q-28 0 -67 -7v-352z" />
    <glyph glyph-name="c" unicode="c" 
d="M460 407q-7 0 -11 2q-63 23 -121 23q-72 0 -114.5 -43t-42.5 -139t42.5 -139t114.5 -43q56 0 121 23q4 2 11 2q15 0 21 -16l10 -24q3 -6 3 -12q0 -15 -16 -21q-70 -30 -150 -30q-105 0 -174 63.5t-69 196.5t69 196.5t174 63.5q79 0 150 -30q16 -6 16 -21q0 -6 -3 -12
l-10 -24q-6 -16 -21 -16z" />
    <glyph glyph-name="d" unicode="d" 
d="M477 19q-72 -29 -149 -29q-105 0 -174 63.5t-69 196.5t69 196.5t174 63.5q37 0 77 -8v223q0 25 25 25h35q25 0 25 -25v-685q0 -14 -13 -21zM338 436q-75 0 -121 -42.5t-46 -143.5q0 -96 42.5 -139t114.5 -43q38 0 77 9v352q-39 7 -67 7z" />
    <glyph glyph-name="e" unicode="e" 
d="M494 41q0 -15 -16 -21q-70 -30 -150 -30q-105 0 -174 63.5t-69 196.5q0 81 28 140t75 89.5t104 30.5q52 0 97.5 -26.5t73 -77.5t27.5 -121v-23q0 -25 -25 -25h-294q3 -88 48.5 -128.5t112.5 -40.5q52 0 117 23q4 2 11 2q15 0 21 -16l10 -24q3 -6 3 -12zM217 402
q-34 -32 -39 -88h227q0 38 -17 65t-42.5 41t-52.5 14q-42 0 -76 -32z" />
    <glyph glyph-name="f" unicode="f" 
d="M465 669q-8 0 -12 2q-38 14 -75 14q-47 0 -71.5 -30t-24.5 -106v-49h163q25 0 25 -25v-26q0 -25 -25 -25h-164v-399q0 -25 -25 -25h-35q-25 0 -25 25v399h-96q-25 0 -25 25v26q0 25 25 25h96v49q0 112 51 163t131 51q50 0 105 -20q17 -6 17 -20q0 -6 -3 -12l-11 -26
q-7 -16 -21 -16z" />
    <glyph glyph-name="g" unicode="g" 
d="M509 21.5q66 -39.5 66 -108.5q-1 -73 -68 -117t-187 -44q-130 0 -199.5 35t-69.5 100q0 37 22 71t58 53q-23 13 -33.5 32t-10.5 46q0 31 20.5 59.5t51.5 42.5q-35 24 -53.5 61t-18.5 81q0 50 25.5 90.5t71.5 63.5t104 23q34 0 71 -10h151q25 0 25 -25v-16q0 -25 -25 -25
h-54q33 -46 33 -103q0 -51 -25.5 -91.5t-71 -64t-104.5 -23.5q-38 0 -74 11q-20 -9 -31 -24t-11 -31q0 -26 33.5 -36.5t114.5 -10.5q123 0 189 -39.5zM205 404.5q-33 -29.5 -33 -73.5t33.5 -73t82.5 -29t82.5 29t33.5 73t-33 73.5t-83 29.5t-83 -29.5zM442.5 -147
q47.5 24 47.5 60q-1 33 -46.5 52t-133.5 19q-73 0 -115 7q-31 -12 -48 -33t-17 -46q1 -40 47.5 -61.5t132.5 -21.5q85 0 132.5 24z" />
    <glyph glyph-name="h" unicode="h" 
d="M278 510q112 0 162 -46.5t50 -155.5v-283q0 -25 -25 -25h-35q-25 0 -25 25v283q0 70 -29 98t-98 28q-52 0 -108 -5v-404q0 -25 -25 -25h-35q-25 0 -25 25v701q0 25 25 25l35 -1q25 0 25 -25v-220q58 5 108 5z" />
    <glyph glyph-name="i" unicode="i" 
d="M330 735v-66q0 -25 -25 -25h-65q-25 0 -25 25v66q0 25 25 25h65q25 0 25 -25zM490 52v-27q0 -25 -25 -25h-355q-25 0 -25 25v27q0 25 25 25h135v347h-102q-25 0 -25 25v26q0 25 25 25h162q25 0 25 -25v-398h135q25 0 25 -25z" />
    <glyph glyph-name="j" unicode="j" 
d="M490 735v-66q0 -25 -25 -25h-65q-25 0 -25 25v66q0 25 25 25h65q25 0 25 -25zM490 475v-355q0 -147 -68.5 -213.5t-174.5 -66.5q-79 0 -150 30q-16 6 -16 21q0 6 3 12l10 24q6 16 21 16q7 0 11 -2q63 -23 121 -23q73 0 115 46t42 156v302h-279q-25 0 -25 25v28
q0 25 25 25h340q25 0 25 -25z" />
    <glyph glyph-name="k" unicode="k" 
d="M511 14q0 -6 -6 -10t-16 -4h-58q-18 0 -31 13l-200 201q-22 22 -30 22v-211q0 -25 -25 -25h-35q-25 0 -25 25v700q0 25 25 25h35q25 0 25 -25v-440q8 0 30 22l180 180q13 13 31 13h58q10 0 16 -4t6 -10q0 -8 -9 -17l-182 -182q-9 -9 -18.5 -15t-28.5 -12q19 -6 28.5 -12
t18.5 -15l202 -202q9 -9 9 -17z" />
    <glyph glyph-name="l" unicode="l" 
d="M496 20q0 -16 -19 -20q-41 -10 -88 -10q-85 0 -124.5 38.5t-39.5 121.5v524h-112q-25 0 -25 25v26q0 25 25 25h172q25 0 25 -25v-575q0 -45 17.5 -63.5t61.5 -19.5q36 0 65 7q3 1 8 1q16 0 24 -18l8 -26q2 -4 2 -11z" />
    <glyph glyph-name="m" unicode="m" 
d="M491 472q33 -36 33 -120v-327q0 -25 -25 -25h-35q-25 0 -25 25v325q0 45 -17 63.5t-58 18.5q-20 0 -44 -3q10 -30 10 -79v-325q0 -25 -25 -25h-35q-25 0 -25 25v325q0 45 -17 63.5t-58 18.5q-16 0 -34 -2v-405q0 -25 -25 -25h-35q-25 0 -25 25v443q0 22 23 27
q71 13 115 13q63 0 95 -24q49 24 104 24q70 0 103 -36z" />
    <glyph glyph-name="n" unicode="n" 
d="M108 498q80 12 170 12q112 0 162 -46.5t50 -155.5v-283q0 -25 -25 -25h-35q-25 0 -25 25v283q0 70 -29 98t-98 28q-48 0 -108 -4v-405q0 -25 -25 -25h-35q-25 0 -25 25v446q0 22 23 27z" />
    <glyph glyph-name="o" unicode="o" 
d="M393 483.5q45 -28.5 71 -87.5t26 -146t-26 -146t-71 -87.5t-102 -28.5t-103.5 29t-74.5 88t-28 145t28 145t74.5 88t103.5 29t102 -28.5zM373 114q32 49 32 136t-32 136t-85 49t-85.5 -49t-32.5 -136t32.5 -136t85.5 -49t85 49z" />
    <glyph glyph-name="p" unicode="p" 
d="M98 481q72 29 149 29q105 0 174 -63.5t69 -196.5t-69 -196.5t-174 -63.5q-37 0 -77 8v-223q0 -25 -25 -25h-35q-25 0 -25 25v685q0 15 13 21zM237 64q75 0 121 42.5t46 143.5q0 96 -42.5 139t-114.5 43q-38 0 -77 -9v-352q38 -7 67 -7z" />
    <glyph glyph-name="q" unicode="q" 
d="M490 -225q0 -25 -25 -25h-35q-25 0 -25 25v223q-40 -8 -77 -8q-105 0 -174 63.5t-69 196.5t69 196.5t174 63.5q77 0 149 -29q13 -6 13 -21v-685zM405 423q-39 9 -77 9q-72 0 -114.5 -43t-42.5 -139q0 -101 46 -143.5t121 -42.5q29 0 67 7v352z" />
    <glyph glyph-name="r" unicode="r" 
d="M108 498q80 12 170 12q79 0 124.5 -16t66.5 -51t21 -95q0 -25 -25 -25h-35q-25 0 -25 25q0 47 -29 66.5t-98 19.5q-48 0 -108 -4v-405q0 -25 -25 -25h-35q-25 0 -25 25v446q0 22 23 27z" />
    <glyph glyph-name="s" unicode="s" 
d="M399 425q-57 9 -90 9q-50 0 -84 -16.5t-34 -46.5q0 -26 27 -46t75 -26q89 -11 132.5 -52t43.5 -101q0 -70 -55 -113t-155 -43q-67 0 -135 11q-21 3 -21 22q0 5 1 8l6 26q4 23 29 20q58 -10 120 -10q60 0 92.5 22t32.5 57q0 29 -24.5 50t-76.5 26q-83 8 -130 49.5
t-47 99.5q0 61 51 100t142 39q59 0 118 -11q20 -3 20 -22q0 -5 -1 -8l-7 -26q-6 -22 -30 -18z" />
    <glyph glyph-name="t" unicode="t" 
d="M490 30q0 -14 -17 -20q-55 -20 -105 -20q-80 0 -131 51t-51 163v220h-76q-25 0 -25 25v26q0 25 25 25h76v135q0 25 25 25h35q25 0 25 -25v-135h164q25 0 25 -25v-26q0 -25 -25 -25h-164v-220q0 -76 25 -106t72 -30q37 0 75 14q4 2 12 2q14 0 21 -16l11 -26q3 -6 3 -12z
" />
    <glyph glyph-name="u" unicode="u" 
d="M467 2q-80 -12 -170 -12q-112 0 -162 46.5t-50 155.5v283q0 25 25 25h35q25 0 25 -25v-283q0 -70 29 -98t98 -28q48 0 108 4v405q0 25 25 25h35q25 0 25 -25v-446q0 -22 -23 -27z" />
    <glyph glyph-name="v" unicode="v" 
d="M424 478q6 22 27 22h35q11 0 17 -5t6 -15q0 -5 -1 -8l-98 -393q-10 -42 -43.5 -65.5t-78.5 -23.5t-78.5 23t-44.5 66l-98 393q-1 3 -1 8q0 10 6 15t17 5h36q21 0 27 -22l97 -385q3 -13 14 -20t25 -7t25 7t14 20z" />
    <glyph glyph-name="w" unicode="w" 
d="M498 -5h-16q-42 0 -59 36l-135 270l-135 -270q-17 -36 -59 -36h-16q-25 0 -27 25l-20 454q-1 11 7 18.5t19 7.5h34q11 0 17.5 -7t7.5 -19l18 -314l111 222q8 18 29 18h28q21 0 29 -18l111 -222l18 314q1 12 7.5 19t17.5 7h34q11 0 18.5 -7.5t7.5 -18.5l-20 -454
q0 -25 -27 -25z" />
    <glyph glyph-name="glyph91" unicode="x" 
d="M355 257q12 -4 22.5 -13t15.5 -19l94 -195q3 -7 3 -13q0 -17 -22 -17h-32q-21 0 -30 18l-88 177q-9 17 -14.5 23.5t-15.5 6.5t-15.5 -6t-14.5 -24l-89 -177q-9 -18 -29 -18h-33q-22 0 -22 16q0 7 4 14l94 195q5 10 15 19t22 13q-28 12 -37 33l-88 181q-3 6 -3 12
q0 8 6 12.5t16 4.5h33q21 0 29 -18l82 -163q9 -18 14 -24t15 -6q11 0 16.5 6t14.5 24l81 163q8 18 30 18h33q21 0 21 -16q0 -5 -3 -13l-87 -181q-11 -22 -38 -33z" />
    <glyph glyph-name="y" unicode="y" 
d="M503 494.5q6 -5.5 6 -14.5q0 -5 -1 -8l-124 -492q-31 -122 -82 -176t-138 -54q-54 0 -122 24q-17 6 -17 22q0 2 2 10l9 25q6 17 21 17q7 0 11 -2q22 -8 49.5 -12.5t46.5 -4.5q52 0 84 38t53 123h-13q-49 0 -80.5 23t-42.5 67l-98 392q-1 3 -1 8q0 20 23 20h36
q23 0 27 -21l97 -386q3 -14 13 -22t26 -8h31l104 416q6 21 28 21h36q10 0 16 -5.5z" />
    <glyph glyph-name="z" unicode="z" 
d="M490 52v-27q0 -25 -25 -25h-355q-24 0 -24 25v45q0 36 26 62l292 292h-273q-25 0 -25 25v26q0 25 25 25h334q24 0 24 -25v-44q0 -36 -26 -62l-292 -292h294q25 0 25 -25z" />
    <glyph glyph-name="braceleft" unicode="{" 
d="M317 334q-13 -29 -53 -48q40 -18 53 -47.5t13 -74.5v-177q0 -48 18 -68.5t62 -20.5h81q25 0 25 -25v-26q0 -25 -25 -25h-81q-88 0 -126.5 38t-38.5 127v177q0 45 -18 64.5t-62 19.5h-80q-25 0 -25 25v26q0 25 25 25h80q44 0 62 20t18 65v176q0 89 38.5 127t126.5 38h81
q25 0 25 -25v-26q0 -25 -25 -25h-81q-44 0 -62 -21t-18 -68v-176q0 -46 -13 -75z" />
    <glyph glyph-name="bar" unicode="|" 
d="M330 725v-878q0 -25 -25 -25h-35q-25 0 -25 25v878q0 25 25 25h35q25 0 25 -25z" />
    <glyph glyph-name="braceright" unicode="}" 
d="M245 585q0 47 -18 68t-62 21h-81q-25 0 -25 25v26q0 25 25 25h81q88 0 126.5 -38t38.5 -127v-176q0 -45 18 -65t62 -20h80q25 0 25 -25v-26q0 -25 -25 -25h-80q-44 0 -62 -19.5t-18 -64.5v-177q0 -89 -38 -127t-127 -38h-81q-25 0 -25 25v26q0 25 25 25h81q44 0 62 20.5
t18 68.5v177q0 45 13 74.5t53 47.5q-40 19 -53 48t-13 75v176z" />
    <glyph glyph-name="asciitilde" unicode="~" 
d="M538 282q0 -69 -32.5 -105.5t-93.5 -36.5q-33 0 -72 21.5t-79 61.5q-61 61 -97 61q-23 0 -35.5 -17.5t-12.5 -51.5q0 -22 -27 -22h-28q-24 0 -24 26q0 68 33 105t94 37q32 0 71.5 -22t79.5 -62q61 -61 97 -61q23 0 35 18t12 52q0 10 7 16t20 6h29q23 0 23 -26z" />
    <glyph glyph-name="uni00A0" unicode="&#xa0;" 
 />
    <glyph glyph-name="exclamdown" unicode="&#xa1;" 
d="M330 438q0 -25 -25 -25h-35q-25 0 -25 25v47q0 25 25 25h35q25 0 25 -25v-47zM260 -200q-25 0 -25 25l11 445q0 25 25 25h33q12 0 19 -6.5t7 -18.5l10 -445q0 -25 -25 -25h-55z" />
    <glyph glyph-name="cent" unicode="&#xa2;" 
d="M491 53q3 -6 3 -12q0 -15 -16 -21q-63 -27 -135 -30v-143q0 -25 -25 -25h-35q-25 0 -25 25v151q-78 19 -125.5 81t-47.5 171t47.5 171t125.5 81v151q0 25 25 25h35q25 0 25 -25v-143q72 -3 135 -30q16 -6 16 -21q0 -6 -3 -12l-10 -24q-6 -16 -21 -16q-7 0 -11 2
q-63 23 -121 23q-72 0 -114.5 -43t-42.5 -139t42.5 -139t114.5 -43q56 0 121 23q4 2 11 2q15 0 21 -16z" />
    <glyph glyph-name="sterling" unicode="&#xa3;" 
d="M405 544q-1 38 -20 64t-58 26q-35 0 -56.5 -25.5t-21.5 -70.5v-149h176q25 0 25 -25v-27q0 -25 -25 -25h-176v-235h216q25 0 25 -25v-27q0 -25 -25 -25h-355q-25 0 -25 25v27q0 25 25 25h54v235h-54q-25 0 -25 25v26q0 26 25 26h54v149q0 89 44.5 130.5t118.5 41.5
q84 0 123 -46.5t40 -119.5q0 -26 -25 -26h-35q-25 0 -25 26z" />
    </font>
</defs>
</svg>
